<svg width="197" height="54" viewBox="0 0 197 54" fill="none" xmlns="http://www.w3.org/2000/svg">
<rect width="197" height="54" fill="url(#paint0_linear_17_4)"/>
<path d="M28.16 40.252C26.408 40.252 24.824 39.952 23.408 39.352C22.016 38.752 20.912 37.888 20.096 36.76C19.28 35.632 18.86 34.3 18.836 32.764H24.236C24.308 33.796 24.668 34.612 25.316 35.212C25.988 35.812 26.9 36.112 28.052 36.112C29.228 36.112 30.152 35.836 30.824 35.284C31.496 34.708 31.832 33.964 31.832 33.052C31.832 32.308 31.604 31.696 31.148 31.216C30.692 30.736 30.116 30.364 29.42 30.1C28.748 29.812 27.812 29.5 26.612 29.164C24.98 28.684 23.648 28.216 22.616 27.76C21.608 27.28 20.732 26.572 19.988 25.636C19.268 24.676 18.908 23.404 18.908 21.82C18.908 20.332 19.28 19.036 20.024 17.932C20.768 16.828 21.812 15.988 23.156 15.412C24.5 14.812 26.036 14.512 27.764 14.512C30.356 14.512 32.456 15.148 34.064 16.42C35.696 17.668 36.596 19.42 36.764 21.676H31.22C31.172 20.812 30.8 20.104 30.104 19.552C29.432 18.976 28.532 18.688 27.404 18.688C26.42 18.688 25.628 18.94 25.028 19.444C24.452 19.948 24.164 20.68 24.164 21.64C24.164 22.312 24.38 22.876 24.812 23.332C25.268 23.764 25.82 24.124 26.468 24.412C27.14 24.676 28.076 24.988 29.276 25.348C30.908 25.828 32.24 26.308 33.272 26.788C34.304 27.268 35.192 27.988 35.936 28.948C36.68 29.908 37.052 31.168 37.052 32.728C37.052 34.072 36.704 35.32 36.008 36.472C35.312 37.624 34.292 38.548 32.948 39.244C31.604 39.916 30.008 40.252 28.16 40.252ZM52.6535 19.768C54.1655 19.768 55.5095 20.104 56.6855 20.776C57.8615 21.424 58.7735 22.396 59.4215 23.692C60.0935 24.964 60.4295 26.5 60.4295 28.3V40H55.3895V28.984C55.3895 27.4 54.9935 26.188 54.2015 25.348C53.4095 24.484 52.3295 24.052 50.9615 24.052C49.5695 24.052 48.4655 24.484 47.6495 25.348C46.8575 26.188 46.4615 27.4 46.4615 28.984V40H41.4215V13.36H46.4615V22.54C47.1095 21.676 47.9735 21.004 49.0535 20.524C50.1335 20.02 51.3335 19.768 52.6535 19.768ZM63.9263 29.956C63.9263 27.94 64.3223 26.152 65.1143 24.592C65.9303 23.032 67.0223 21.832 68.3903 20.992C69.7823 20.152 71.3303 19.732 73.0343 19.732C74.5223 19.732 75.8183 20.032 76.9223 20.632C78.0503 21.232 78.9503 21.988 79.6223 22.9V20.056H84.6983V40H79.6223V37.084C78.9743 38.02 78.0743 38.8 76.9223 39.424C75.7943 40.024 74.4863 40.324 72.9983 40.324C71.3183 40.324 69.7823 39.892 68.3903 39.028C67.0223 38.164 65.9303 36.952 65.1143 35.392C64.3223 33.808 63.9263 31.996 63.9263 29.956ZM79.6223 30.028C79.6223 28.804 79.3823 27.76 78.9023 26.896C78.4223 26.008 77.7743 25.336 76.9583 24.88C76.1423 24.4 75.2663 24.16 74.3303 24.16C73.3943 24.16 72.5303 24.388 71.7383 24.844C70.9463 25.3 70.2983 25.972 69.7943 26.86C69.3143 27.724 69.0743 28.756 69.0743 29.956C69.0743 31.156 69.3143 32.212 69.7943 33.124C70.2983 34.012 70.9463 34.696 71.7383 35.176C72.5543 35.656 73.4183 35.896 74.3303 35.896C75.2663 35.896 76.1423 35.668 76.9583 35.212C77.7743 34.732 78.4223 34.06 78.9023 33.196C79.3823 32.308 79.6223 31.252 79.6223 30.028ZM88.3247 29.956C88.3247 27.94 88.7207 26.152 89.5127 24.592C90.3287 23.032 91.4327 21.832 92.8247 20.992C94.2167 20.152 95.7647 19.732 97.4687 19.732C98.7647 19.732 100.001 20.02 101.177 20.596C102.353 21.148 103.289 21.892 103.985 22.828V13.36H109.097V40H103.985V37.048C103.361 38.032 102.485 38.824 101.357 39.424C100.229 40.024 98.9207 40.324 97.4327 40.324C95.7527 40.324 94.2167 39.892 92.8247 39.028C91.4327 38.164 90.3287 36.952 89.5127 35.392C88.7207 33.808 88.3247 31.996 88.3247 29.956ZM104.021 30.028C104.021 28.804 103.781 27.76 103.301 26.896C102.821 26.008 102.173 25.336 101.357 24.88C100.541 24.4 99.6647 24.16 98.7287 24.16C97.7927 24.16 96.9287 24.388 96.1367 24.844C95.3447 25.3 94.6967 25.972 94.1927 26.86C93.7127 27.724 93.4727 28.756 93.4727 29.956C93.4727 31.156 93.7127 32.212 94.1927 33.124C94.6967 34.012 95.3447 34.696 96.1367 35.176C96.9527 35.656 97.8167 35.896 98.7287 35.896C99.6647 35.896 100.541 35.668 101.357 35.212C102.173 34.732 102.821 34.06 103.301 33.196C103.781 32.308 104.021 31.252 104.021 30.028ZM132.559 29.596C132.559 30.316 132.511 30.964 132.415 31.54H117.835C117.955 32.98 118.459 34.108 119.347 34.924C120.235 35.74 121.327 36.148 122.623 36.148C124.495 36.148 125.827 35.344 126.619 33.736H132.055C131.479 35.656 130.375 37.24 128.743 38.488C127.111 39.712 125.107 40.324 122.731 40.324C120.811 40.324 119.083 39.904 117.547 39.064C116.035 38.2 114.847 36.988 113.983 35.428C113.143 33.868 112.723 32.068 112.723 30.028C112.723 27.964 113.143 26.152 113.983 24.592C114.823 23.032 115.999 21.832 117.511 20.992C119.023 20.152 120.763 19.732 122.731 19.732C124.627 19.732 126.319 20.14 127.807 20.956C129.319 21.772 130.483 22.936 131.299 24.448C132.139 25.936 132.559 27.652 132.559 29.596ZM127.339 28.156C127.315 26.86 126.847 25.828 125.935 25.06C125.023 24.268 123.907 23.872 122.587 23.872C121.339 23.872 120.283 24.256 119.419 25.024C118.579 25.768 118.063 26.812 117.871 28.156H127.339ZM154.778 29.596C154.778 30.316 154.73 30.964 154.634 31.54H140.054C140.174 32.98 140.678 34.108 141.566 34.924C142.454 35.74 143.546 36.148 144.842 36.148C146.714 36.148 148.046 35.344 148.838 33.736H154.274C153.698 35.656 152.594 37.24 150.962 38.488C149.33 39.712 147.326 40.324 144.95 40.324C143.03 40.324 141.302 39.904 139.766 39.064C138.254 38.2 137.066 36.988 136.202 35.428C135.362 33.868 134.942 32.068 134.942 30.028C134.942 27.964 135.362 26.152 136.202 24.592C137.042 23.032 138.218 21.832 139.73 20.992C141.242 20.152 142.982 19.732 144.95 19.732C146.846 19.732 148.538 20.14 150.026 20.956C151.538 21.772 152.702 22.936 153.518 24.448C154.358 25.936 154.778 27.652 154.778 29.596ZM149.558 28.156C149.534 26.86 149.066 25.828 148.154 25.06C147.242 24.268 146.126 23.872 144.806 23.872C143.558 23.872 142.502 24.256 141.638 25.024C140.798 25.768 140.282 26.812 140.09 28.156H149.558ZM163.497 23.152C164.145 22.096 164.985 21.268 166.017 20.668C167.073 20.068 168.273 19.768 169.617 19.768V25.06H168.285C166.701 25.06 165.501 25.432 164.685 26.176C163.893 26.92 163.497 28.216 163.497 30.064V40H158.457V20.056H163.497V23.152Z" fill="#F2F2F2"/>
<path d="M175.243 40.252C174.331 40.252 173.575 39.976 172.975 39.424C172.399 38.848 172.111 38.14 172.111 37.3C172.111 36.46 172.399 35.764 172.975 35.212C173.575 34.636 174.331 34.348 175.243 34.348C176.131 34.348 176.863 34.636 177.439 35.212C178.015 35.764 178.303 36.46 178.303 37.3C178.303 38.14 178.015 38.848 177.439 39.424C176.863 39.976 176.131 40.252 175.243 40.252Z" fill="#50C878"/>
<defs>
<linearGradient id="paint0_linear_17_4" x1="1.46776e-06" y1="27" x2="197" y2="27" gradientUnits="userSpaceOnUse">
<stop stop-color="#0094FF"/>
<stop offset="1" stop-color="#A100FF"/>
</linearGradient>
</defs>
</svg>
