<svg version="1.2" xmlns="http://www.w3.org/2000/svg" viewBox="0 0 4000 2200" width="600" height="330"><style>.a{fill:#55a797}.b{fill:#33b457}.c{fill:#47605c}.d{fill:#f2bf5e}.e{fill:#031629}.f{fill:#fff}.g{fill:#e8b156}.h{fill:#dba34b}.i{fill:#af7c38}.j{fill:#4949ed}.k{fill:#f0f}.l{fill:#e9eaec}.m{fill:#344442}.n{fill:#0080ff}.o{fill:#b5d1e2}</style><path class="a" d="m910.1 1949c0 13.5-116.7 24.4-260.7 24.4-144 0-260.8-10.9-260.8-24.4 0-13.4 116.8-24.3 260.8-24.3 144 0 260.7 10.9 260.7 24.3z"/><path class="b" d="m590.4 1378.2c-2.3-0.1-4.6-0.2-6.9-0.3-0.2 0-0.3 0-0.6 0-78.3-3.8-159.4-38.8-223.7-103-64.4-64.5-99.4-145.9-103.1-224.5-0.2-2.3-0.2-4.5-0.3-6.8 2.3 0.1 4.5 0.2 6.8 0.3 78.6 3.8 160 38.7 224.4 103.1 64.5 64.5 99.3 145.9 103.1 224.4 0 0.4 0.1 0.9 0.1 1.4 0.1 1.8 0.1 3.6 0.2 5.4z"/><path class="c" d="m590.4 1378.2c-2.3-0.1-4.6-0.2-6.9-0.3q-163.7-163.7-327.4-327.5c-0.2-2.3-0.2-4.5-0.3-6.8 2.3 0.1 4.5 0.2 6.8 0.3q163.8 163.7 327.5 327.5c0 0.4 0.1 0.9 0.1 1.4 0.1 1.8 0.1 3.6 0.2 5.4z"/><path class="b" d="m624.3 1104.3c-1.6-0.1-3.2-0.1-4.8-0.2-0.6 0-1.1 0-1.7-0.1-54.3-3-110.4-27.3-154.9-71.8-44.9-45-69.3-101.8-71.9-156.6-0.1-1.6-0.2-3.2-0.2-4.8 1.6 0 3.1 0.1 4.8 0.2 54.8 2.6 111.6 27 156.6 71.9 44.9 45 69.3 101.9 71.9 156.6q0 0.1 0 0.2 0.1 2.3 0.2 4.6z"/><path class="c" d="m624.3 1104.3c-1.6-0.1-3.2-0.1-4.8-0.2q-0.9-0.9-1.7-1.7-113.4-113.4-226.8-226.8c-0.1-1.6-0.2-3.2-0.2-4.8 1.6 0 3.1 0.1 4.8 0.2q114.2 114.3 228.5 228.5 0 0.1 0 0.2 0.1 2.3 0.2 4.6z"/><path class="b" d="m875.6 1210.3q0 1.7-0.1 3.5c-1.9 39.4-19.4 80.2-51.7 112.5-32.1 32-72.4 49.5-111.3 51.7-0.5 0-0.9 0.1-1.4 0.1-1.1 0-2.2 0.1-3.4 0.1 0-1.1 0.1-2.3 0.2-3.4q0 0 0-0.1c1.8-39.4 19.3-80.2 51.7-112.5 32.3-32.4 73.2-49.8 112.6-51.8q1.7 0 3.4-0.1z"/><path class="c" d="m875.6 1210.3q0 1.7-0.1 3.5-82.2 82.1-164.4 164.3c-1.1 0-2.2 0.1-3.4 0.1 0-1.1 0.1-2.3 0.2-3.4q0 0 0-0.1 82.2-82.1 164.3-164.3 1.7 0 3.4-0.1z"/><path class="b" d="m948.7 924.8q0 2.8-0.2 5.6c-3.1 64.8-31.9 131.9-85 185.1-52.7 52.6-119 81.3-183.1 84.9-0.7 0-1.4 0.1-2 0.1q-2.8 0.1-5.6 0.2c0-0.7 0-1.5 0-2.2q0.1-1.7 0.2-3.4c3-64.8 31.8-131.9 85-185.1 53.1-53.1 120.3-81.9 185.1-85 1.9-0.1 3.7-0.2 5.6-0.2z"/><path class="c" d="m948.7 924.8q0 2.8-0.2 5.6-135.1 135-270.1 270.1-2.8 0.1-5.6 0.2c0-0.7 0-1.5 0-2.2q0.1-1.7 0.2-3.4 135-135.1 270.1-270.1c1.9-0.1 3.7-0.2 5.6-0.2z"/><path class="c" d="m680.4 1198.5q0 162.5 0 324.9-3.8 0-7.6 0 0-161.3 0-322.7c0-0.7 0-1.5 0-2.2q3.8 0 7.6 0z"/><path class="c" d="m624.3 1104.3q0 209.6 0 419.1-3.3 0-6.5 0 0-211.8 0-423.7 3.1 0 6.3 0 0.1 2.3 0.2 4.6z"/><path class="c" d="m712.5 1374.7q0 74.4 0 148.7-2.4 0-4.8 0 0-72.6 0-145.2c0-1.1 0.1-2.3 0.2-3.4q0 0 0-0.1 2.3 0 4.6 0z"/><path class="c" d="m590.4 1378.2q0 72.6 0 145.2-3.7 0-7.5 0 0-75.3 0-150.6 3.7 0 7.3 0c0.1 1.8 0.1 3.6 0.2 5.4z"/><path class="d" d="m777.9 1924.9q-128.5 0-257 0-58.6-201.6-117.1-403.3 245.6 0 491.2 0-58.6 201.7-117.1 403.3z"/><path class="e" d="m824.3 1954.6q-174.9 0-349.8 0 0-20.3 0-40.5 174.9 0 349.8 0 0 20.2 0 40.5z"/><path class="f" d="m3347.3 1183.2c3.4 1.7 5.1 7.1 2.8 10.3q-2.6 3.5-4.6 7.4c-3.9 7.3-6.6 15.9-6.5 24.3 0.1 9.1 3.9 18.8 7.1 27.3 2 4.5 4 9 5.9 13.6 2 4.8 3.8 9.7 5 14.8 2.8 11.7 2 23.7-1.6 35.2-3.6 11.3-9.3 21.8-15 32.1-2.1 3.7-6.8 4.6-10.4 2.7-3.7-1.9-4.6-6.9-2.7-10.4 8.3-14.9 19.9-32.7 16.1-50.7-3-14.5-10-27-14.9-40.8-7.3-21-4.7-44.9 8.5-63.1 2.5-3.5 6.4-4.8 10.3-2.7z"/><path class="f" d="m3396.1 1183.2c3.4 1.7 5.1 7.1 2.8 10.3q-2.6 3.5-4.6 7.4c-3.9 7.3-6.6 15.9-6.5 24.3 0.1 9.1 3.9 18.8 7.1 27.3 2 4.5 4 9 5.9 13.6 2 4.8 3.8 9.7 5 14.8 2.8 11.7 2 23.7-1.6 35.2-3.6 11.3-9.3 21.8-15 32.1-2.1 3.7-6.8 4.6-10.4 2.7-3.7-1.9-4.6-6.9-2.7-10.4 8.3-14.9 19.9-32.7 16.1-50.7-3-14.5-10-27-14.9-40.8-7.3-21-4.8-44.9 8.5-63.1 2.5-3.5 6.4-4.8 10.3-2.7z"/><path class="f" d="m3446.9 1183.2c3.4 1.7 5 7.1 2.7 10.3q-2.6 3.5-4.6 7.4c-3.9 7.3-6.5 15.9-6.5 24.3 0.1 9.1 3.9 18.8 7.1 27.3 2 4.5 4 9 5.9 13.6 2 4.8 3.8 9.7 5.1 14.8 2.8 11.7 1.9 23.7-1.7 35.2-3.6 11.3-9.2 21.8-15 32.1-2 3.7-6.8 4.6-10.4 2.7-3.6-1.9-4.6-6.9-2.7-10.4 8.4-14.9 19.9-32.7 16.2-50.7-3.1-14.5-10.1-27-14.9-40.8-7.4-21-4.8-44.9 8.4-63.1 2.5-3.5 6.4-4.8 10.4-2.7z"/><path class="g" d="m3531.3 1517.4q0-19.4 0-38.8 55.9 0 111.8 0c21.4 0 38.8 17.3 38.8 38.8q0 86.2 0 172.4c0 10.7-4.3 20.4-11.4 27.4-7 7.1-16.7 11.4-27.4 11.4q-55.9 0-111.8 0 0-19.4 0-38.8 55.9 0 111.8 0 0-86.2 0-172.4-55.9 0-111.8 0z"/><path class="h" d="m3562.9 1400.2q0 203.4 0 406.8c0 13.2-76.8 24-171.5 24-94.8 0-171.5-10.8-171.5-24q0-203.4 0-406.8c0-13.2 76.7-24 171.5-24 94.7 0 171.5 10.8 171.5 24z"/><path class="i" d="m3535.7 1413.3c-30.6 6.6-83.8 11-144.3 11-60.6 0-113.8-4.4-144.3-11 30.5-6.7 83.7-11.1 144.3-11.1 60.5 0 113.7 4.4 144.3 11.1z"/><path class="d" d="m3562.9 1400.3q0 203.3 0 406.7c0 13.2-76.8 24-171.5 24-94.8 0-171.5-10.8-171.5-24q0-203.4 0-406.7c0 13.2 76.7 24 171.5 24 94.7 0 171.5-10.8 171.5-24z"/><path class="g" d="m3391.4 1831c-94.8 0-171.5-10.8-171.5-24q0-3.8 0-7.6c191.5-92.9 309.4-332.2 336.8-392.7 4-2.1 6.2-4.2 6.2-6.4q0 203.3 0 406.7c0 13.2-76.8 24-171.5 24z"/><path class="a" d="m3877.9 1939.2c0 17.8-211.9 32.3-473.4 32.3-261.4 0-473.4-14.5-473.4-32.3 0-17.9 212-32.3 473.4-32.3 261.5 0 473.4 14.4 473.4 32.3z"/><path class="j" d="m2996.7 1805.8q428.4 0 856.7 0 0 8.9 0 17.9-5.2 0-10.5 0 0 52.1 0 104.2 5.3 0 10.5 0 0 8.9 0 17.8-428.3 0-856.7 0c-22.7 0-41.1-18.4-41.1-41.1q0-28.8 0-57.7c0-22.7 18.4-41.1 41.1-41.1z"/><path class="k" d="m3484.3 1805.8q184.5 0 369.1 0 0 8.9 0 17.9-5.2 0-10.5 0 0 52.1 0 104.2 5.3 0 10.5 0 0 8.9 0 17.8-184.6 0-369.1 0c-22.8 0-41.2-18.4-41.2-41.1q0-28.8 0-57.7c0-22.7 18.5-41.1 41.2-41.1z"/><path class="f" d="m3461 1897q0-21.2 0-42.5c0-17 13.8-30.8 30.9-30.8q175.5 0 351 0 0 52.1 0 104.2-175.5 0-351 0c-17.1 0-30.9-13.8-30.9-30.9z"/><path class="l" d="m3461.1 1852.8q190.9 0 381.8 0 0 3.5 0 7-190.9 0-381.9 0 0-2.6 0-5.3 0-0.8 0.1-1.7z"/><path class="l" d="m3842.9 1887.8q0 3.5 0 7-190.9 0-381.9 0 0-3.5 0-7 191 0 381.9 0z"/><path class="l" d="m3842.9 1904.6q0 3.5 0 7-189.1 0-378.2 0c-1.2-2.1-2.1-4.5-2.7-7q190.4 0 380.9 0z"/><path class="e" d="m2932.5 1944.4c0 16-417.5 29-932.5 29-515 0-932.5-13-932.5-29 0-16 417.5-29 932.5-29 515 0 932.5 13 932.5 29z"/><path class="c" d="m2217.9 1940.9q-217.9 0-435.8 0 26.7-169.6 53.4-339.3 164.5 0 329 0 26.7 169.7 53.4 339.3z"/><path class="m" d="m1835.5 1601.6q164.5 0 329 0 26.7 169.7 53.4 339.3-71.1 0-142.3 0-126.8-126.8-253.6-253.6 6.7-42.8 13.5-85.7z"/><path class="m" d="m2331.9 1944.4q-331.9 0-663.8 0 0 0 0 0c0-21.8 17.7-39.4 39.4-39.4q292.5 0 585 0c21.7 0 39.4 17.6 39.4 39.4q0 0 0 0z"/><path class="m" d="m2882 1687.1q-882 0-1764 0c-27.9 0-50.5-22.6-50.5-50.5q0-567.3 0-1134.6c0-27.9 22.6-50.6 50.5-50.6q882 0 1764 0c27.9 0 50.5 22.7 50.5 50.6q0 567.3 0 1134.6c0 27.9-22.6 50.5-50.5 50.5z"/><path class="f" d="m2932.5 1521.7q0 57.5 0 114.9c0 27.9-22.6 50.5-50.5 50.5q-882 0-1764 0c-27.9 0-50.5-22.6-50.5-50.5q0-57.4 0-114.9 932.5 0 1865 0z"/><path class="n" d="m2886.6 1473.6q-886.6 0-1773.2 0 0-488.1 0-976.2 886.6 0 1773.2 0 0 488.1 0 976.2z"/><path class="k" d="m2570.7 1408.6q-570.7 0-1141.4 0c-12.8 0-23.2-10.4-23.2-23.2q0-367.9 0-735.8c0-12.9 10.4-23.3 23.2-23.3q570.7 0 1141.4 0c12.8 0 23.2 10.4 23.2 23.3q0 367.9 0 735.8c0 12.8-10.4 23.2-23.2 23.2z"/><path class="f" d="m2554.2 599.3q0 384.5 0 769-277.1 0-554.2 0 0-384.5 0-769 1.3-0.6 2.7-1.1c71.7-30 150-41.5 227.4-33.2q162 17.1 324.1 34.3z"/><path class="o" d="m2230.1 1309.1q162 17.2 324.1 34.4 0 12.4 0 24.8-277.1 0-554.2 0 0-12.4 0-24.8c72.5-30.9 151.7-42.7 230.1-34.4z"/><path class="o" d="m2490 648.6q0 8.9 0 17.8-212.9 0-425.8 0 0-8.9 0-17.8 212.9 0 425.8 0z"/><path class="o" d="m2490 731.2q0 8.9 0 17.8-212.9 0-425.8 0 0-8.9 0-17.8 212.9 0 425.8 0z"/><path class="o" d="m2490 813.8q0 8.9 0 17.8-212.9 0-425.8 0 0-8.9 0-17.8 212.9 0 425.8 0z"/><path class="o" d="m2490 896.4q0 8.9 0 17.8-212.9 0-425.8 0 0-8.9 0-17.8 212.9 0 425.8 0z"/><path class="o" d="m2490 979q0 8.9 0 17.8-212.9 0-425.8 0 0-8.9 0-17.8 212.9 0 425.8 0z"/><path class="o" d="m2490 1061.6q0 8.9 0 17.9-212.9 0-425.8 0 0-8.9 0-17.9 212.9 0 425.8 0z"/><path class="o" d="m2490 1144.2q0 9 0 17.9-212.9 0-425.8 0 0-8.9 0-17.9 212.9 0 425.8 0z"/><path class="o" d="m2490 1226.9q0 8.9 0 17.8-212.9 0-425.8 0 0-8.9 0-17.8 212.9 0 425.8 0z"/><path class="f" d="m2000 599.3q0 384.5 0 769-277.1 0-554.2 0 0-384.5 0-769 162.1-17.2 324.1-34.3c77.4-8.3 155.7 3.2 227.4 33.2q1.3 0.5 2.7 1.1z"/><path class="o" d="m2000 1343.5q0 12.4 0 24.8-277.1 0-554.2 0 0-12.4 0-24.8 162.1-17.2 324.1-34.4c78.4-8.3 157.6 3.5 230.1 34.4z"/><path class="o" d="m1935.8 648.6q0 8.9 0 17.8-212.9 0-425.8 0 0-8.9 0-17.8 212.9 0 425.8 0z"/><path class="o" d="m1935.8 731.2q0 8.9 0 17.8-212.9 0-425.8 0 0-8.9 0-17.8 212.9 0 425.8 0z"/><path class="o" d="m1935.8 813.8q0 8.9 0 17.8-212.9 0-425.8 0 0-8.9 0-17.8 212.9 0 425.8 0z"/><path class="o" d="m1935.8 896.4q0 8.9 0 17.8-212.9 0-425.8 0 0-8.9 0-17.8 212.9 0 425.8 0z"/><path class="o" d="m1935.8 979q0 8.9 0 17.8-212.9 0-425.8 0 0-8.9 0-17.8 212.9 0 425.8 0z"/><path class="o" d="m1935.8 1061.6q0 9 0 17.9-212.9 0-425.8 0 0-9 0-17.9 212.9 0 425.8 0z"/><path class="o" d="m1935.8 1144.2q0 9 0 17.9-212.9 0-425.8 0 0-8.9 0-17.9 212.9 0 425.8 0z"/><path class="o" d="m1935.8 1226.9q0 8.9 0 17.8-212.9 0-425.8 0 0-8.9 0-17.8 212.9 0 425.8 0z"/><path class="o" d="m2002.7 598.2q0 377.2 0 754.5-2.7 0-5.4 0 0-377.3 0-754.5 1.3 0.5 2.7 1.1 1.3-0.6 2.7-1.1z"/><path class="k" d="m2423.4 582.7v259l-43.5-52.9-43.6 52.9v-268.1z"/></svg>