<svg version="1.2" xmlns="http://www.w3.org/2000/svg" viewBox="0 0 3100 1867" width="600" height="361">
	<title>AdobeStock_389482861-ai</title>
	<defs>
		<linearGradient id="g1" x1="1827.6" y1="1537.4" x2="2192.9" y2="1482.8" gradientUnits="userSpaceOnUse">
			<stop offset="0" stop-color="#ffffff"/>
			<stop offset="1" stop-color="#d1bdbd"/>
		</linearGradient>
		<linearGradient id="g2" x1="2439.9" y1="784.9" x2="2374.1" y2="1127" gradientUnits="userSpaceOnUse">
			<stop offset="0" stop-color="#ffffff"/>
			<stop offset="1" stop-color="#000000"/>
		</linearGradient>
		<linearGradient id="g3" x1="2317.9" y1="791.6" x2="2252.8" y2="1129.9" gradientUnits="userSpaceOnUse">
			<stop offset="0" stop-color="#ffffff"/>
			<stop offset="1" stop-color="#000000"/>
		</linearGradient>
		<linearGradient id="g4" x1="875.4" y1="1519.2" x2="1072.8" y2="1478.7" gradientUnits="userSpaceOnUse">
			<stop offset="0" stop-color="#ffffff"/>
			<stop offset="1" stop-color="#f0c2c2"/>
		</linearGradient>
		<linearGradient id="g5" x1="1067.3" y1="598.2" x2="1032.2" y2="1045.6" gradientUnits="userSpaceOnUse">
			<stop offset="0" stop-color="#ffffff"/>
			<stop offset="1" stop-color="#000000"/>
		</linearGradient>
		<linearGradient id="g6" x1="992.6" y1="620.9" x2="958" y2="1063.4" gradientUnits="userSpaceOnUse">
			<stop offset="0" stop-color="#ffffff"/>
			<stop offset="1" stop-color="#000000"/>
		</linearGradient>
		<linearGradient id="g7" x1="1764.6" y1="1582.4" x2="1943.8" y2="1568.4" gradientUnits="userSpaceOnUse">
			<stop offset="0" stop-color="#ffffff"/>
			<stop offset="1" stop-color="#f0c2c2"/>
		</linearGradient>
		<linearGradient id="g8" x1="1783.1" y1="880.9" x2="1928.7" y2="909.5" gradientUnits="userSpaceOnUse">
			<stop offset="0" stop-color="#4d4d4d"/>
			<stop offset="1" stop-color="#000000"/>
		</linearGradient>
		<linearGradient id="g9" x1="1751.8" y1="940.8" x2="1770.9" y2="944.6" gradientUnits="userSpaceOnUse">
			<stop offset="0" stop-color="#4d4d4d"/>
			<stop offset="1" stop-color="#000000"/>
		</linearGradient>
		<linearGradient id="g10" x1="1799" y1="990.5" x2="1898.3" y2="1010" gradientUnits="userSpaceOnUse">
			<stop offset="0" stop-color="#4d4d4d"/>
			<stop offset="1" stop-color="#000000"/>
		</linearGradient>
		<linearGradient id="g11" x1="1754.8" y1="1187" x2="1769.8" y2="1190" gradientUnits="userSpaceOnUse">
			<stop offset="0" stop-color="#4d4d4d"/>
			<stop offset="1" stop-color="#000000"/>
		</linearGradient>
		<linearGradient id="g12" x1="2291.2" y1="1620.9" x2="2434.4" y2="1609.7" gradientUnits="userSpaceOnUse">
			<stop offset="0" stop-color="#ffffff"/>
			<stop offset="1" stop-color="#f0c2c2"/>
		</linearGradient>
		<linearGradient id="g13" x1="484.2" y1="1626.6" x2="758.4" y2="1607" gradientUnits="userSpaceOnUse">
			<stop offset="0" stop-color="#ffffff"/>
			<stop offset="1" stop-color="#f0c2c2"/>
		</linearGradient>
		<linearGradient id="g14" x1="215.4" y1="1686.6" x2="350.1" y2="1679.9" gradientUnits="userSpaceOnUse">
			<stop offset="0" stop-color="#ffffff"/>
			<stop offset="1" stop-color="#f0c2c2"/>
		</linearGradient>
	</defs>
	<style>
		.s0 { fill: #ff7e78 } 
		.s1 { fill: #f7726f } 
		.s2 { fill: #ff8b85 } 
		.s3 { fill: #ffe6e6 } 
		.s4 { fill: #492e2a } 
		.s5 { fill: #ff6161 } 
		.s6 { fill: #311e69 } 
		.s7 { fill: #cecece } 
		.s8 { fill: #ffd7d7 } 
		.s9 { fill: #f2f2f2 } 
		.s10 { fill: #ffffff } 
		.s11 { fill: #ad263d } 
		.s12 { mix-blend-mode: multiply;fill: url(#g1) } 
		.s13 { fill: #614cd4 } 
		.s14 { fill: #1e1240 } 
		.s15 { mix-blend-mode: color-dodge;fill: url(#g2) } 
		.s16 { mix-blend-mode: color-dodge;fill: url(#g3) } 
		.s17 { mix-blend-mode: multiply;fill: url(#g4) } 
		.s18 { mix-blend-mode: screen;fill: url(#g5) } 
		.s19 { mix-blend-mode: screen;fill: url(#g6) } 
		.s20 { mix-blend-mode: multiply;fill: url(#g7) } 
		.s21 { fill: #e6f2f5 } 
		.s22 { fill: #843082 } 
		.s23 { fill: #ff61ab } 
		.s24 { mix-blend-mode: color-dodge;fill: url(#g8) } 
		.s25 { mix-blend-mode: color-dodge;fill: url(#g9) } 
		.s26 { mix-blend-mode: color-dodge;fill: url(#g10) } 
		.s27 { mix-blend-mode: color-dodge;fill: url(#g11) } 
		.s28 { fill: #f9caca } 
		.s29 { fill: #d95f76 } 
		.s30 { fill: #aa3766 } 
		.s31 { mix-blend-mode: multiply;fill: url(#g12) } 
		.s32 { fill: #dde8eb } 
		.s33 { mix-blend-mode: multiply;fill: url(#g13) } 
		.s34 { fill: #2e88bf } 
		.s35 { fill: #b8d2d8 } 
		.s36 { fill: #4cb4d4 } 
		.s37 { fill: #ffcaca } 
		.s38 { fill: #ffd188 } 
		.s39 { fill: #4c40bc } 
		.s40 { mix-blend-mode: multiply;fill: url(#g14) } 
	</style>
	<g id=" 1">
		<g id="&lt;Group&gt;">
			<path id="&lt;Path&gt;" class="s0" d="m634.9 1303.6c0 0-196.2-19.4-222.3-63.9-26.1-44.5 65.8-20.9 61.4-42.1-4.4-21.1-136.2-10.8-118.8-45.9 17.3-35.1 77.1-6.9 65.6-25.8-11.5-18.9-127.2-38.6-112.5-79.6 14.7-41.1 76.9 44.3 94.3 24.3 17.4-20.1-32.4-29.5 5.9-49.3 38.2-19.7 64.9 137 103.3 129.9 38.3-7.1-14.8-94.6 33.3-89.2 48.1 5.5 172.3 253.3 89.8 241.6z"/>
			<path id="&lt;Path&gt;" class="s1" d="m760.8 1228.7c-36.2-23.2-211.3-49.3-195.6-107.6 15.8-58.3 121.7 26 136-3.1 14.3-29.1-59-35.5-114.1-70-55.2-34.5-150.9-28.7-129.7-95.8 21.2-67.2 176.8 51.4 171.8 11.7-4.9-39.6-255.3-136.9-220.1-174.8 35.1-37.9 122.9 36.5 148.6 43 25.8 6.5 10.7-30.9-10.6-66.8-21.3-35.8-93.3-126.3-43.8-143.9 49.5-17.7 109.5 188.2 137.4 185.8 27.8-2.5-12.9-130.9 37.9-140 50.7-9.2 117 335.1 117 335.1 0 0 0.4-102.1 40.2-122.7 54.8-28.3 31.5 197.2 71 204.1 39.5 7 11.6-51.4 33.8-51.8 22.2-0.3 80.6 236.3 80.6 236.3 27.8 56.6-224.2-16.3-260.4-39.5z"/>
			<g id="&lt;Group&gt;">
				<path id="&lt;Path&gt;" class="s1" d="m2121.4 1199.9c-37.9 3-75.4-12.9-103.2-41.9-41.2-42.9-102.7-126.6-88.3-233 21.2-157 94-388.7 189.1-360.6 87.2 25.8 221.2 617.8 2.4 635.5z"/>
				<path id="&lt;Path&gt;" class="s2" d="m2099.5 894.3l-3 119.7 143.2-65.3q0.2 5 0.3 10l-42.1 19.2 41.8 20.9q-0.2 4.9-0.4 9.8l-52.1-25.8-90.9 41.4-4.4 174.3q-4.3-0.8-8.5-1.8l7.6-301-122.3-145.2q1.6-4.9 3.2-9.8l119.4 141.8 8-320.2q4.3-0.3 8.6 0l-6.5 257.4 110.6-63.2q1.2 4.6 2.3 9.3l-113.2 64.7-1.6 63.8q0 0 0 0z"/>
			</g>
			<g id="&lt;Group&gt;">
				<path id="&lt;Path&gt;" class="s1" d="m1376.7 1191.6c-22.5-13.8-216.4-252.3-273.6-291.7-97.4-67.3-244.4-130.1-261.1-186.3-16.7-56.1 50.3-210.2 271.2-95.2 220.8 115 306.9 519.4 306.9 519.4 7.4 30.6-20.9 67.7-43.4 53.8z"/>
				<path id="&lt;Path&gt;" class="s2" d="m1043.9 699.7c-79.3-39.3-162.2-43.4-196.8-43.2q1.8-4.6 4-9.3c36.9 0.1 115.6 5.3 191.9 41.8l-57-111.6q5.4 0.4 11 1.2l60.1 117.5c45.5 24.4 97.6 76.8 138 122.5l-13.7-152.5q5.1 4.6 10.2 9.4l13.9 155c11.1 12.9 21.1 25 29.4 35.3 28.7 35.5 54.8 71.2 75.2 101.3l18.8-91.3q3.4 7 6.6 14.1l-18.1 88.1c16.3 24.6 28.2 44.7 33.6 56.8 12.1 26.9 38.4 87.3 62 141.7-1.9 3.1-4.1 5.9-6.5 8.4-24-55.5-51.5-118.6-64-146.3-5.2-11.6-16.3-30.5-31.5-53.6l-113 8.8q-4-4.4-7.9-8.7l115-9c-27-40-64.8-90.7-105.6-138.2l-119.8 46.5q-4.8-3.1-9.7-6.2l123.1-47.8c-47-53.9-97.4-102.7-139.4-125.6l-139.2 80.2q-4.4-2.9-8.6-5.8z"/>
			</g>
			<g id="&lt;Group&gt;">
				<path id="&lt;Path&gt;" class="s1" d="m2545.7 912.1c0 0-46.6-92.6 47.8-185.4 91.5-89.9 204.5-110.2 255.6-45.9 51.1 64.2-200.1 232.5-228.6 244.9-28.6 12.3-65.8-5.6-65.8-5.6 0 0-43.6 128.4-46.9 154-3.3 25.6-19.8 30-19.6 11.5 0.2-18.5 57.5-173.5 57.5-173.5z"/>
				<path id="&lt;Path&gt;" class="s2" d="m2805.3 689.7c-0.1 0-13 0.7-35.5 8.9-15.5 5.7-37.9 15.9-65.4 34l70.8 10.4c0.9 0.1 1.6 1.1 1.5 2.1-0.2 0.9-1.1 1.6-2.1 1.5l-74.7-11c-8.2 5.6-16.9 11.9-26 18.9-5.1 4-10.1 8.5-15.1 13.5q0 0 0 0c-4.2 4.1-8.4 8.6-12.5 13.3l77.6 11.2c0.9 0.1 1.6 1 1.5 2-0.1 1-1.1 1.7-2 1.6l-79.9-11.6c-12 14-23.4 29.8-33.8 45.2q-0.1 0.2-0.2 0.3c-4.5 6.8-8.8 13.5-12.8 19.9l80.2-6c1-0.1 1.9 0.7 2 1.7 0.1 1-0.7 1.8-1.7 1.9l-82.9 6.2c-9.7 15.9-17.9 30.1-23.6 40.1q-2.3 4-4 7c-0.4 0.8-1.3 1.1-2 0.9q-0.3-0.1-0.5-0.2c-0.8-0.5-1.1-1.6-0.6-2.5q1.7-3 4-7c8.4-14.8 22-38.6 38.5-63.4l-23-68.9c-0.3-1 0.2-2 1.2-2.3 0.9-0.3 2 0.2 2.3 1.1l22.1 66.3c14.1-20.9 30.2-42.2 46.9-58.8l-9.6-62.1c-0.2-1 0.5-2 1.5-2.1 1-0.2 1.9 0.5 2 1.5l9.3 59.6c4.3-4.1 8.6-7.8 12.9-11.2 9.3-7.3 18.2-13.7 26.6-19.4q0.2-0.1 0.3-0.2 5.7-3.8 11.1-7.2c1.9-6 17.3-55.2 18-57.7 0.2-1 1.2-1.6 2.2-1.3 1 0.2 1.5 1.2 1.3 2.2-0.6 2.3-12.5 40.4-16.8 53.9 22.5-13.7 41-22 54.4-26.9 22.9-8.4 35.8-9 36.3-9 1 0 1.9 0.8 1.9 1.8 0.1 0.9-0.7 1.8-1.7 1.8z"/>
			</g>
			<g id="&lt;Group&gt;">
				<path id="&lt;Path&gt;" class="s1" d="m2379.9 673.3c84.2-98.9 93.4-102 93.4-102 0 0 83.7 466.1-108.1 469.9-11.7 0.2-22.3 0.2-31.8 0-115-2.6-65.3-166.5-0.8-285 1.7-3 3.3-7 3.3-7 0 0 27.8-56.9 44-75.9z"/>
				<path id="&lt;Path&gt;" class="s2" d="m2473.3 571.3q0 0 0.1 0.6 0 0 0 0 0 0.1 0 0.2c0.2 1 0.6 3.2 1.1 6.4-4.9 12.2-17.2 43-31.6 81.3l40.1-18.7q0.5 3.9 0.9 8l-44.8 20.8c-8.8 23.7-18.2 49.7-27 75.6l77.8-22q0.2 3.9 0.4 7.8l-81.2 22.9c-11.3 33.6-21.5 66.6-27.9 93.7l67.1-4.3 42.9-40.8q-0.1 5.4-0.3 10.7l-30.9 29.4 29.4-1.9q-0.3 3.9-0.6 7.7l-109.4 6.9c-1.8 8-3.2 15.5-4.1 22.1-2.2 15.2-5 34.4-8.2 55.9l108.8-5.5q-1 3.8-2.1 7.7l-107.8 5.4c-4.7 31.3-10.1 66.5-15.3 100.2q-1.9 0-3.8 0 0 0-0.1 0-1.8 0-3.6 0-0.1 0-0.1 0c5.1-33.6 10.5-68.7 15.2-100.1l-78.6-62.7q1-3.3 2.1-6.7l14.9 11.9-8.7-29.9q1.9-5.1 3.9-10.2l13.7 47.2 53.8 43c3.3-22 6.2-41.8 8.4-57.3 1-7.7 2.7-16.3 4.9-25.7l-66.7-41q1.4-3.1 2.7-6.1l65.5 40.3c2.8-11.2 6.1-23.4 9.8-36.2l-51.4-51.7c1.7-3 3.3-7 3.3-7q0 0 0.2-0.4l50.4 50.8c8.2-27.3 18.2-56.8 28.3-85.4l-30-46.7q2.6-3 5.2-6l28 43.7c20.9-58.2 41.8-110.7 49.2-128.8 5-4.7 6.1-5.1 6.1-5.1z"/>
			</g>
			<g id="&lt;Group&gt;">
				<path id="&lt;Path&gt;" class="s1" d="m2673.2 1186.7c83.7-71.8 229.6-68.9 230.8-19.1 1.2 49.8-51.7 18.8-98.8 96-30.1 49.4-74.6 99-102.7 128.4-23.2 24.2-60.1 30.2-89.3 13.7-70-39.6-9.2-159.6 60-219z"/>
				<path id="&lt;Path&gt;" class="s2" d="m2619.8 1247.6l37.5 15.9-7.5-54.1q2-2.2 4-4.2l14.3 103.4c8.8-13.9 18.7-28.5 29.3-42.5q0.2-0.5 0.6-0.8c10.4-13.7 21.4-26.9 32.8-38.5 0.5-3 2.5-15 5.6-29.7-2-4.1-11.4-23.1-15.4-41q2.1-1 4.2-1.9c2.8 13.4 9.1 27.9 12.8 35.7 3.4-15.3 7.9-32.6 13.1-45.7q2.7-0.9 5.5-1.7c-9.6 22.6-17.4 62.8-20.3 78.8 8-7.6 16.2-14.5 24.4-20.2 41-28.4 81.9-37.4 108.9-40 13.4-1.2 24.7-1.1 33.1-0.6q0.8 2.2 1.1 4.6c-8.4-0.6-20.1-0.8-33.9 0.5-26.5 2.6-66.5 11.5-106.7 39.2-20.4 14.2-40.6 35.8-59.2 60l99 2.2q-1.3 2.3-2.8 4.5l-99.5-2.2c-21.8 28.9-41.2 61.1-56.3 88.2l82.6 8q-1.9 2.2-3.8 4.2l-81.2-7.9c-10.6 19.4-18.8 35.9-23.9 46.4q-2.1-0.9-4.1-2c5.3-10.8 13.8-27.9 24.7-47.8q0 0 0.1-0.1c4.8-8.8 10.1-18.2 15.9-27.9 3-5.1 6.3-10.4 9.7-15.9l-6.4-45.8-40.7-17.2q1.2-1.9 2.5-3.9z"/>
			</g>
			<g id="&lt;Group&gt;">
				<path id="&lt;Path&gt;" class="s3" d="m1761.8 1077.2c0 0 419.6 107.4 489.7 189.4 69.7 81.5 61.7 175.8 61.7 175.8 0 0-779.5 46.9-899.2 33.2-119.8-13.7-389.8-46.9-389.8-46.9 0 0 11.8-169.6 68.5-224.5 61.3-59.2 313.2-116.7 400.7-127 40-4.7 268.4 0 268.4 0z"/>
				<path id="&lt;Path&gt;" class="s4" d="m1728.4 833.5c0 0-334.9-128.5-329.3-269.7 0 0-119.1-176.8 102.2-252.9 129.3-44.5 236.5 84.2 236.5 84.2 0 0 93.8-2.4 120.2 146.2 36.6 205.5-129.6 292.2-129.6 292.2z"/>
				<path id="&lt;Path&gt;" class="s5" d="m1713.4 697.1l46 418c-11.6 54.8-317.5 60.5-295.6-9l40.5-353.8z"/>
				<path id="&lt;Path&gt;" class="s6" d="m1486.4 908.4c40.5-5.8 116.9-16.9 136.8-21.6 27.4-6.4 58.5-19.5 58.5-19.5 0 0-1.4 29.8-51.6 68.6-37.7 29.1-113.9 27.9-149.8 25.4z"/>
				<path id="&lt;Path&gt;" class="s5" d="m1663.5 551.6l38 230.3c6.5 76.9-49.2 145.1-125.9 153.7-61.3 6.8-99.4 1-173.2-19.7-61.5-17.3-84.4-82.4-71.7-164.6 16.5-106.5 61.9-200 89-248.7 61.9-110.9 208.1-99.4 243.8 49z"/>
				<path id="&lt;Path&gt;" class="s5" d="m1678.5 667.8c5.7-11.5 9.6-23.6 12.8-36 6.1-23.6 20.5-57.2 51-31 44.4 38.1 15.7 152.7-45 147.3-45-4-33.3-51.5-18.8-80.3z"/>
				<path id="&lt;Path&gt;" class="s7" d="m1719.9 599.1v-31.2h23.9v31.2z"/>
				<path id="&lt;Path&gt;" class="s8" d="m1489.3 1478.1l18.6-320.9 19.1 2.2-11.7 318.6q-13.7 0.1-26 0.1z"/>
				<g id="&lt;Group&gt;">
					<path id="&lt;Path&gt;" class="s9" d="m1796.9 675.4c0 44.3-29.4 80.1-65.7 80.1-36.3 0-65.7-35.8-65.7-80.1 0-44.2 29.4-80.1 65.7-80.1 36.3 0 65.7 35.9 65.7 80.1z"/>
					<path id="&lt;Path&gt;" class="s7" d="m1740.1 754.8q-4.4 0.7-8.9 0.7c-36.3 0-65.7-35.8-65.7-80.1 0-44.2 29.4-80.1 65.7-80.1q4.5 0 8.9 0.7c-32.1 5.3-56.9 38.8-56.9 79.4 0 40.6 24.8 74.1 56.9 79.4z"/>
				</g>
				<path id="&lt;Path&gt;" class="s9" d="m1710.2 564.4c0 0 16.1-105.6 12.8-139.7-3.1-33.2-10.4-55.5-10.4-55.5l31.6 19.4c10.5 6.8 16.4 18.5 18.4 30.7 0.8 4.5 0.9 9.1 0.6 13.7l-8.3 131.5c0 3.8-3.2 6.8-7.1 6.8h-30.5c-3.9 0-7.1-3.1-7.1-6.9z"/>
				<g id="&lt;Group&gt;">
					<path id="&lt;Path&gt;" class="s7" d="m1758.9 735.5c-13 13.4-38.2 3.2-38.2 3.2l-47.5 8.9c-4 0.7-7.8-1.9-8.6-5.8l-2.4-12.1c-0.7-3.9 1.8-7.7 5.7-8.6l45.8-10.1c0 0 7.9-18.2 29.8-17.7 26.8 0.6 27.2 29.9 15.4 42.2z"/>
					<g id="&lt;Group&gt;">
						<path id="&lt;Path&gt;" class="s9" d="m1444.6 775.8c-5.5 0.4-8.6 0.6-8.8 0.7-2.6 0.1-4.9-1.8-5-4.4-0.2-2.7 1.7-5 4.4-5.1 0.4 0 49.3-3.6 98.6-11.5 130.7-20.9 132.8-23.9 133.3-24 2.5-0.6 5.1 0.9 5.7 3.4 0.7 2.6-0.9 5.2-3.4 5.8-0.5 0.1-2.9 3.2-134.1 24.2-37.3 6-74.3 9.5-90.7 10.9z"/>
					</g>
					<path id="&lt;Path&gt;" class="s9" d="m1446.4 785.4c-2 2-45.3 7.4-51.3 4.3-6-3.1-5.8-18.1-4.5-24.9 1.4-6.7 52.5-9.6 56.1-4.7 0.6 0.9 1.3 2 1.9 3.1 3.9 6.9 3.3 15.5-1.7 21.6q-0.3 0.3-0.5 0.6z"/>
				</g>
				<path id="&lt;Path&gt;" class="s10" d="m1525.4 1116.7c0 0 97.2-17 128.1-27.9 25.7-9 97.7-48.5 97.7-48.5 0 0 29.9 78.7 29.9 93.2 0 14.4-208.5 70.7-208.5 70.7l-53-37.8-89.9 20.3 19.7-86.5c1.9-8.5 5.7-16.5 11-23.5l7.9-10.5z"/>
				<path id="&lt;Path&gt;" class="s2" d="m1489.3 1253.7c0 11.4-6.9 20.6-15.4 20.6-8.5 0-15.4-9.2-15.4-20.6 0-11.3 6.9-20.5 15.4-20.5 8.5 0 15.4 9.2 15.4 20.5z"/>
				<path id="&lt;Path&gt;" class="s2" d="m1478 1397.6c0 11.3-6.8 20.5-15.3 20.5-8.5 0-15.4-9.2-15.4-20.5 0-11.4 6.9-20.6 15.4-20.6 8.5 0 15.3 9.2 15.3 20.6z"/>
				<path id="&lt;Path&gt;" class="s11" d="m1575.6 935.6c-61.3 6.8-99.4 1-173.2-19.7-39.9-11.2-63.6-42.6-71.8-85.8 8.7 5.1 23.7 23.5 51.4 33.4 65.5 23.3 115.2 28.4 202.5 16.2 49.7-6.9 83.5-16.8 103.5-24-20.6 42.8-61.9 74.3-112.4 79.9z"/>
			</g>
			<g id="&lt;Group&gt;">
				<path id="&lt;Mesh&gt;" class="s12" d="m1665.5 1511.5c123.6-6.6 317-17 532.8-28.6q0.4 0 0.8-0.1c40.5 21.7 79.3 42.5 114.7 61.4q-0.3 0.1-0.7 0.1c-187.1 10.1-372.6 7.8-499.1-4-72.2-6.7-125.3-16.5-148.5-28.8zm23-38.3c63.5-22 207.2-42 394.3-52.1q0.4 0 0.7 0c38.5 20.5 77.1 41.1 115.6 61.7q-0.4 0.1-0.8 0.1c-215.8 11.6-409.2 22-532.8 28.6q-0.1 0-0.2-0.1c-23.2-12.4-13.1-25.6 23.2-38.2zm510.6 9.6c215.5-11.6 408.3-22.1 531.8-28.7 22.8 12.3 12.8 25.5-23.4 38.1-63.4 21.9-206.9 41.9-393.7 52-35.4-18.9-74.2-39.7-114.7-61.4zm-115.6-61.7c186.9-10.1 372.1-7.8 498.5 3.9 72.4 6.8 125.5 16.6 148.7 29q0.1 0 0.2 0.1c-123.5 6.6-316.3 17.1-531.8 28.7-38.5-20.6-77.1-41.2-115.6-61.7z"/>
				<path id="&lt;Path&gt;" class="s13" d="m1983.4 988.4c0-15.6 12.7-28.3 28.3-28.3h671c15.6 0 28.3 12.7 28.3 28.3v426.3h-727.6z"/>
				<path id="&lt;Path&gt;" class="s14" d="m2347.2 966.7c2.7 0 4.9 2.2 4.9 5 0 2.7-2.2 4.9-4.9 4.9-2.7 0-4.9-2.2-4.9-4.9 0-2.8 2.2-5 4.9-5z"/>
				<path id="&lt;Compound Path&gt;" class="s6" d="m2011.7 984.4h671c2.2 0 4 1.8 4 4v402h-679v-402c0-2.2 1.8-4 4-4z"/>
				<path id="&lt;Path&gt;" class="s6" d="m2342.8 1494.9l368.2-80.2v11.3c0 8.4-6.7 15.3-15.1 15.6l-349 72.2q-4.1 0.8-8.3 0.8h-703.7c-10.9 0-19.7-8.8-19.7-19.6v-0.1z"/>
				<path id="&lt;Path&gt;" class="s13" d="m2711 1414.7l-368.2 80.2h-727.6l368.2-80.2z"/>
				<g id="&lt;Group&gt;">
					<path id="&lt;Path&gt;" class="s14" d="m2494 1441.3h-571.7l29.1-6h571.7z"/>
					<path id="&lt;Path&gt;" class="s14" d="m1909.8 1443.9h571.7l-29 6h-571.7z"/>
					<path id="&lt;Path&gt;" class="s14" d="m1963.9 1432.7l27.2-5.6h571.7l-27.2 5.6z"/>
					<path id="&lt;Path&gt;" class="s14" d="m2439.9 1452.4l-27.2 5.6h-571.7l27.2-5.6z"/>
				</g>
				<path id="&lt;Path&gt;" class="s15" d="m2562.8 984.4l-138 406h-99.3l152.9-406z"/>
				<path id="&lt;Path&gt;" class="s16" d="m2416.2 984.4l-138 406h-73.5l152.9-406z"/>
			</g>
			<g id="&lt;Group&gt;">
				<path id="&lt;Mesh&gt;" class="s17" d="m833.6 1499.5c55.6-4.6 142.4-11.8 239.4-19.9q0.2 0 0.4 0c1.3 15.7 2.5 30.8 3.6 44.5q-0.1 0-0.3 0c-84.1 7-158.7 5.1-202.5-3.6-24.9-4.9-39.8-12.1-40.6-21zm36.6-27.6c41.7-15.8 115-30.1 199.1-37q0.2-0.1 0.3-0.1c1.3 15 2.5 29.9 3.8 44.8q-0.2 0-0.4 0c-97 8.1-183.8 15.3-239.4 19.9q0-0.1 0-0.1c-0.8-9 12.7-18.5 36.6-27.5zm203.2 7.7c96.8-8 183.5-15.3 239.1-19.9 0.6 8.9-12.9 18.4-36.7 27.4-41.6 15.8-114.8 30-198.8 37-1.1-13.7-2.3-28.8-3.6-44.5zm-3.8-44.8c84-6.9 158.5-5 202.2 3.7 25 5 39.9 12.1 40.7 21.1q0 0 0 0.1c-55.6 4.6-142.3 11.9-239.1 19.9-1.3-14.9-2.5-29.8-3.8-44.8z"/>
				<g id="&lt;Group&gt;">
					<g id="&lt;Group&gt;">
						<path id="&lt;Path&gt;" class="s6" d="m884.6 1469.2l-68.2-607c-2.1-18.1 11-34.5 29.2-36.5l272-30.6c18.1-2 34.5 11 36.6 29.2l68.2 607c2 18.1-11 34.5-29.2 36.5l-272 30.6c-18.2 2-34.6-11-36.6-29.2z"/>
					</g>
					<g id="&lt;Group&gt;">
						<path id="&lt;Path&gt;" class="s13" d="m903.3 1467.1l-68.2-607c-2-18.1 11-34.5 29.2-36.5l272-30.6c18.2-2 34.5 11 36.6 29.2l68.2 607c2.1 18.1-11 34.5-29.2 36.5l-272 30.6c-18.2 2-34.5-11-36.6-29.2z"/>
					</g>
					<path id="&lt;Path&gt;" class="s6" d="m858.3 862.6l292.5-32.9c2.1-0.2 4.1 1.3 4.3 3.4l60.3 536.6c0.3 2.1-1.3 4-3.4 4.3l-292.5 32.9c-2.2 0.2-4.1-1.3-4.3-3.5l-60.3-536.5c-0.3-2.1 1.3-4.1 3.4-4.3z"/>
					<path id="&lt;Path&gt;" class="s14" d="m1147.5 842.1c-0.3-2.2-2.2-3.7-4.3-3.5l-287.9 32.4-0.4-4.1c-0.3-2.1 1.3-4.1 3.4-4.3l292.5-32.9c2.1-0.2 4.1 1.3 4.3 3.4l60.3 536.6c0.3 2.1-1.3 4-3.4 4.3l-4.7 0.5z"/>
					<g id="&lt;Group&gt;">
						<path id="&lt;Path&gt;" class="s14" d="m966.3 830.4l72.1-8.1c1.3-0.1 2.4 0.8 2.5 2 0.2 1.3-0.7 2.4-2 2.6l-72.1 8.1c-1.3 0.1-2.4-0.8-2.6-2-0.1-1.3 0.8-2.4 2.1-2.6z"/>
					</g>
					<path id="&lt;Path&gt;" class="s18" d="m1130.4 832l-27.3 554.2-87.5 9.8 34.7-555z"/>
					<path id="&lt;Path&gt;" class="s19" d="m1023.3 844l-27.4 554.3-53.8 6 34.7-555z"/>
					<path id="&lt;Path&gt;" class="s9" d="m1026 1097.2c-1.1 15.1-32.1 17.1-33 26.9-0.9 9.8 24.6 57.8 34.7 57.3 10-0.5 27.1-14.4 37.2-14.3 10.1 0.2 35.6 28.4 25.4 48-10.2 19.7-58.5 29-79.1 24.2-20.7-4.9-73.4-123.7-62.7-149.7 10.7-26 32.3-46.6 51.2-42 13.6 3.3 27.5 34.6 26.3 49.6z"/>
					<g id="&lt;Group&gt;">
						<g id="&lt;Group&gt;">
							<path id="&lt;Path&gt;" class="s9" d="m1132.1 1101.9q-0.7 0.1-1.5-0.1c-10.2-3-28.2-14.6-24-36.8 0.5-2.3 2.7-3.8 5-3.4 2.3 0.5 3.8 2.7 3.3 5-3.8 20.2 17.2 26.8 18.1 27 2.2 0.7 3.5 3.1 2.8 5.3-0.5 1.7-2 2.9-3.7 3z"/>
						</g>
						<g id="&lt;Group&gt;">
							<path id="&lt;Path&gt;" class="s9" d="m1115.6 1125.6q-0.8 0-1.6-0.2c-0.4-0.1-43.6-13.3-35.7-54.6 0.5-2.3 2.7-3.8 5-3.3 2.3 0.4 3.8 2.6 3.4 4.9-2.7 14.2 1.4 25.9 12.2 35.1 8.3 7 17.4 9.8 17.5 9.8 2.2 0.6 3.5 3 2.9 5.2-0.5 1.8-2.1 2.9-3.7 3.1z"/>
						</g>
						<g id="&lt;Group&gt;">
							<path id="&lt;Path&gt;" class="s9" d="m1098.4 1148.6q-0.8 0-1.6-0.2c-0.6-0.2-14.3-4.3-26.9-14.9-11.9-10.1-24.9-27.9-19.5-56 0.4-2.3 2.7-3.8 5-3.3 2.3 0.4 3.8 2.6 3.3 4.9-3.7 19.2 1.9 35.3 16.5 47.7 11.2 9.6 23.9 13.5 24 13.5 2.2 0.7 3.5 3 2.8 5.3-0.5 1.7-2 2.8-3.6 3z"/>
						</g>
					</g>
					<g id="&lt;Group&gt;">
						<path id="&lt;Path&gt;" class="s10" d="m806.3 1323q-0.9 0-1.8-0.4c-1.8-1.1-2.5-3.4-1.4-5.2l12.1-21.6-15.6-19.2c-1-1.2-1.2-2.8-0.4-4.2l12.1-21.6-15.6-19.2c-1-1.2-1.1-2.8-0.4-4.2l12.2-21.6-15.7-19.2c-0.9-1.2-1.1-2.8-0.3-4.2l12.1-21.6-15.6-19.2c-1-1.2-1.1-2.8-0.4-4.2l12.2-21.6-15.7-19.2c-1-1.2-1.1-2.8-0.3-4.2l12.1-21.6-15.6-19.2c-1-1.2-1.2-2.8-0.4-4.2l12.1-21.6-15.6-19.2c-1-1.2-1.1-2.9-0.4-4.2l12.2-21.6-15.7-19.2c-0.9-1.2-1.1-2.9-0.3-4.2l12.1-21.6-15.6-19.2c-1.3-1.6-1.1-4 0.5-5.3 1.6-1.3 4-1.1 5.3 0.5l17.3 21.2c1 1.2 1.1 2.9 0.3 4.2l-12.1 21.6 15.6 19.2c1 1.2 1.2 2.9 0.4 4.3l-12.1 21.6 15.6 19.2c1 1.2 1.1 2.8 0.4 4.2l-12.2 21.6 15.7 19.2c0.9 1.2 1.1 2.8 0.3 4.2l-12.1 21.6 15.6 19.2c1 1.2 1.1 2.8 0.4 4.2l-12.2 21.6 15.7 19.2c0.9 1.2 1.1 2.8 0.3 4.2l-12.1 21.6 15.6 19.2c1 1.2 1.1 2.8 0.4 4.2l-12.1 21.6 15.6 19.2c1 1.2 1.1 2.8 0.3 4.2l-12.1 21.6 15.6 19.2c1 1.2 1.2 2.9 0.4 4.2l-13.4 23.8c-0.7 1.2-2 1.9-3.3 1.9z"/>
					</g>
					<g id="&lt;Group&gt;">
						<path id="&lt;Path&gt;" class="s10" d="m762.8 1281.4q-0.9 0-1.8-0.5c-1.8-1-2.5-3.3-1.5-5.1l12.2-21.6-15.7-19.2c-0.9-1.2-1.1-2.8-0.3-4.2l12.1-21.6-15.6-19.2c-1-1.2-1.1-2.8-0.4-4.2l12.2-21.6-15.7-19.2c-0.9-1.2-1.1-2.8-0.3-4.2l12.1-21.6-15.6-19.2c-1-1.2-1.1-2.8-0.4-4.2l12.1-21.6-15.6-19.2c-1-1.2-1.1-2.8-0.3-4.2l12.1-21.6-15.6-19.2c-1-1.2-1.2-2.9-0.4-4.2l13.4-23.8c1-1.8 3.3-2.5 5.1-1.5 1.8 1.1 2.5 3.4 1.4 5.2l-12.1 21.6 15.6 19.2c1 1.2 1.2 2.8 0.4 4.2l-12.1 21.6 15.6 19.2c1 1.2 1.1 2.8 0.4 4.2l-12.2 21.6 15.7 19.2c0.9 1.2 1.1 2.8 0.3 4.2l-12.1 21.6 15.6 19.2c1 1.2 1.1 2.8 0.4 4.2l-12.2 21.6 15.7 19.2c0.9 1.2 1.1 2.8 0.3 4.2l-12.1 21.6 15.6 19.2c1 1.2 1.2 2.8 0.4 4.2l-13.4 23.8c-0.7 1.2-2 1.9-3.3 1.9z"/>
					</g>
					<g id="&lt;Group&gt;">
						<path id="&lt;Path&gt;" class="s10" d="m1264.8 1298.3c-1.1 0-2.2-0.4-3-1.4l-17.2-21.1c-1-1.2-1.1-2.9-0.4-4.3l12.2-21.5-15.7-19.2c-0.9-1.2-1.1-2.9-0.3-4.3l12.1-21.5-15.6-19.3c-1-1.2-1.1-2.8-0.4-4.2l12.1-21.5-15.6-19.2c-1-1.2-1.1-2.9-0.3-4.3l12.1-21.5-15.6-19.3c-1-1.2-1.2-2.8-0.4-4.2l12.1-21.6-15.6-19.2c-1-1.2-1.1-2.8-0.4-4.2l12.2-21.6-15.7-19.2c-0.9-1.2-1.1-2.8-0.3-4.2l12.1-21.6-15.6-19.2c-1-1.2-1.1-2.8-0.4-4.2l12.2-21.6-15.7-19.2c-0.9-1.2-1.1-2.9-0.3-4.2l13.4-23.8c1-1.9 3.3-2.5 5.1-1.5 1.8 1 2.4 3.3 1.4 5.1l-12.1 21.6 15.6 19.2c1 1.2 1.1 2.9 0.4 4.3l-12.2 21.6 15.7 19.2c1 1.2 1.1 2.8 0.3 4.2l-12.1 21.6 15.6 19.2c1 1.2 1.2 2.8 0.4 4.2l-12.1 21.6 15.6 19.2c1 1.2 1.1 2.9 0.4 4.2l-12.2 21.6 15.6 19.2c1 1.2 1.2 2.9 0.4 4.2l-12.1 21.6 15.6 19.2c1 1.2 1.1 2.9 0.4 4.2l-12.2 21.6 15.7 19.2c0.9 1.2 1.1 2.9 0.3 4.2l-12.1 21.6 15.6 19.2c1 1.2 1.1 2.9 0.4 4.2l-12.1 21.6 15.6 19.2c1.3 1.6 1 4-0.6 5.3-0.7 0.6-1.5 0.8-2.3 0.8z"/>
					</g>
				</g>
			</g>
			<g id="&lt;Group&gt;">
				<path id="&lt;Mesh&gt;" class="s20" d="m1730.5 1565.3c49.4 0.8 126.7 2 213 3.3q0.2 0 0.3 0c-0.1 10.9-0.3 21.3-0.5 30.9q-0.1 0-0.3 0c-74.8-1.2-140.5-7.8-178.4-16.9-21.6-5.1-34.2-11.1-34.1-17.3zm34.6-16.4c38.1-7.9 104-12.5 178.9-11.3q0.1 0 0.3 0c-0.2 10.3-0.3 20.7-0.5 31q-0.1 0-0.3 0c-86.3-1.3-163.6-2.5-213-3.3q0 0 0-0.1c0.1-6.2 12.8-11.8 34.6-16.3zm178.7 19.7c86.2 1.3 163.4 2.5 212.8 3.2-0.2 6.2-12.9 11.8-34.7 16.3-38 7.9-103.8 12.5-178.6 11.4 0.2-9.6 0.4-20 0.5-30.9zm0.5-31c74.7 1.1 140.3 7.7 178.2 16.8 21.6 5.2 34.2 11.2 34.1 17.4q0 0 0 0c-49.4-0.7-126.6-1.9-212.8-3.2 0.2-10.3 0.3-20.7 0.5-31z"/>
				<g id="&lt;Group&gt;">
					<path id="&lt;Path&gt;" class="s14" d="m1961.8 1134.7c6.1 3.5 4.5 11.2 2.1 16.3-2.4 5.2-7.3 9.2-16.4 15.3-9.2 6.1-32.1 3.3-37.7 0.6-5.5-2.8-4.9-14.9 0-19 4.9-4.2-4.3-9.1-3.8-15 0.4-5.9 6.6-3.6 10.3-8.5 3.8-4.8-2.5-14.4 3.4-18 5.8-3.6 17.2-0.5 17.2-0.5 26-0.2 18.8 25.2 24.9 28.8z"/>
					<g id="&lt;Group&gt;">
						<path id="&lt;Path&gt;" class="s5" d="m2046.6 1472.7l-5.6 12.2c-148-24.7-109.5-161.6-118.2-167.6-2.4-1.8-20 89.7-14.1 102.4 15 31.9 21.4 99.6 15.9 131.8-0.3 2.1-15.3 4.7-16.8 1.8-31.3-59.5-46.7-152.3-44.7-230.2 0.9-31.4 30.3-78.1 34.8-89.7 4.4-11.3 8.7-22.1 12.3-31 9.5-22.8 62.6 31.2 64.1 37.5 1.2 5.2 22.4 33.5 19.6 61-0.8 8.5-19.6 103.6-13.2 106.4 38.5 16.7 65.9 65.4 65.9 65.4z"/>
					</g>
					<path id="&lt;Path&gt;" class="s11" d="m1908.7 1419.7c15 31.8 21.4 99.3 16 131.6-1.4-3.8-2.7-8.2-3.9-13.1-5.1-21.4-25.9-55.8-26.9-85.8-0.9-30.1 0.6-101.7 7.8-118.5 7.3-16.8 20.9-22.7 21.1-16.6-2.4-1.8-20 89.7-14.1 102.4z"/>
					<path id="&lt;Path&gt;" class="s11" d="m2046.6 1472.7l-4.2 9.2c-20.8-16.4-59.9-36.6-72.9-59.6-11.6-20.4-4.8-54.3 0-77.7 3.4-17 14.9-52.4 20.5-71.5 3 8.7 4.9 18.3 3.9 27.8-0.8 8.5-19.6 103.6-13.2 106.4 38.5 16.7 65.9 65.4 65.9 65.4z"/>
					<g id="&lt;Group&gt;">
						<path id="&lt;Path&gt;" class="s14" d="m1980.7 1252.2c8.6 11.6 15.5 22.5 15.1 48.3 0 2.8-2.1 24.6-4.7 39.9-11.4 2.6-36.3 8.8-69.6-1.6 0.2-9.8 3.1-20.3 1.3-21.5-0.6-0.5-1.2 10.9-3.4 21.2-22.8 1.3-49.6-3.2-59.1-16.1 3.5-31 21.8-73.6 33.8-90.3 42.2 10.5 73.1 21.6 86.6 20.1z"/>
					</g>
					<path id="&lt;Path&gt;" class="s6" d="m1947.5 1166.3c-9.2 6.1-32.1 3.3-37.7 0.6-5.5-2.8-4.9-14.9 0-19 2.6-2.2 1.2-4.6-0.5-7.2q0.7-0.7 1.4-1.3c3.8-3.3 10.3-1.4 14.1 0.9 3.9 2.2 7.6-4.4 13.1-10.5 5.5-6.1 12.4 1.7 14.7 4.7 1.3 1.7 4.8 0 7.6-1.8 0.4 0.9 0.9 1.6 1.6 2 6.1 3.5 4.5 11.2 2.1 16.3-2.4 5.2-7.3 9.2-16.4 15.3z"/>
					<path id="&lt;Path&gt;" class="s13" d="m1909.8 1147.9c1.1-1 1.5-1.9 1.4-2.9 4.3-0.6 9 7.4 12.2 8 4.6 0.7 2.2-6.5 11.7-10.1 9.5-3.6 7.6 2.9 16.7 5.9 2.6 0.9 11-5.1 14.2-5.9 0 2.8-1 5.7-2.1 8.1-2.4 5.2-7.3 9.2-16.4 15.3-9.2 6.1-32.1 3.3-37.7 0.6-5.5-2.8-4.9-14.9 0-19z"/>
					<path id="&lt;Path&gt;" class="s11" d="m1921.8 1151.2c27.3 21.7-38.1 104-94.2 98.6-42.7-4.1-62.5-81-37.6-93.2 7.2-3.4 39.2 58 51.4 57.1 22.2-1.8 66.1-73.8 80.4-62.5z"/>
					<path id="&lt;Path&gt;" class="s3" d="m1893.6 1196.7c-0.3-12.3-0.1-23.8 9.3-34.9 6.2-7.3 21.8-16.1 30.2-16.8 1.4-0.1 2.5 0 3.4 0.4 4.8 0.6 12.2 1.6 16.3 2.6 6.6 1.7 14.8 5.3 18.6 13 6.7 13.8 4.9 27.8 10.7 56.1 5.1 24.5 11.2 27.3 3.2 38.4-2.4 3.4-17.5 12.8-29.3 13.8-27 2.3-67.4-2.1-69.6-15.5-3.2-19.3 7.5-44.7 7.2-57.1z"/>
					<g id="&lt;Group&gt;">
						<path id="&lt;Path&gt;" class="s10" d="m1926.3 1538.2c-0.1 3.5-1.4 17.6-0.4 23.9-5.8 0.6-12.6 0.6-16 0.2-3.1-0.4-4.8-1.9-5.7-3.2 2.6-4-2.4-17.8-2.4-17.8z"/>
						<g id="&lt;Group&gt;">
							<path id="&lt;Path&gt;" class="s10" d="m1927 1571.6c-0.4 2.4-1.5 4.3-3.3 5-6.9 2.9-45.2-1.8-44.8-5.6 0.2-0.8 0.3-1.5 0.5-2.1 5.8 1.2 17.5 3.3 28.1 3.7 7.4 0.2 14.4-0.4 19.5-1z"/>
							<path id="&lt;Path&gt;" class="s14" d="m1879.4 1568.9c2.1-6.2 9.4-3.7 15.8-6 4.4-1.2 7.5-2.1 8.8-3.6q0.1-0.1 0.2-0.2c0.9 1.3 2.6 2.8 5.7 3.2 3.4 0.4 10.2 0.4 16-0.2q0.2 1 0.4 1.9c0.8 2.6 1 5.3 0.7 7.6-5.1 0.6-12.1 1.2-19.5 1-10.6-0.4-22.3-2.5-28.1-3.7z"/>
						</g>
					</g>
					<g id="&lt;Group&gt;">
						<path id="&lt;Path&gt;" class="s10" d="m2040.1 1462.5c2.4 2.5 10.4 13.4 15.5 17.1-3.8 4.6-8.5 9.3-11.3 11.4-2.5 1.9-4.7 2.1-6.3 1.8-0.9-4.7-15.3-11.7-15.3-11.7z"/>
						<g id="&lt;Group&gt;">
							<path id="&lt;Path&gt;" class="s10" d="m2063 1485.6c1.4 2 2 4.1 1.2 5.9-2.9 6.9-33.5 30.5-35.8 27.5-0.5-0.7-0.8-1.3-1.1-1.9 5-3.2 14.8-9.9 22.6-17.1 5.4-5 9.9-10.3 13.1-14.4z"/>
							<path id="&lt;Path&gt;" class="s14" d="m2027.3 1517.1c-2.8-5.8 4.1-9.2 7-15.3 2.2-4 3.9-6.8 3.7-8.7q0-0.2 0-0.3c1.6 0.3 3.8 0.1 6.3-1.8 2.8-2.1 7.5-6.8 11.3-11.4q0.8 0.6 1.6 1.1c2.4 1.3 4.5 3.1 5.8 4.9-3.2 4.1-7.7 9.4-13.1 14.4-7.8 7.2-17.6 13.9-22.6 17.1z"/>
						</g>
					</g>
					<g id="&lt;Group&gt;">
						<path id="&lt;Path&gt;" class="s5" d="m1945.4 1132.4l1.1 18.5c0.2 3.1-6.9 11.3-11.9 7.7-1.5-1 0.2-5.3 1.3-8.6l2.8-16.1z"/>
						<path id="&lt;Path&gt;" class="s6" d="m1938.3 1136.2l6.3-0.7c0 0-0.9 5.9-7.5 8z"/>
						<path id="&lt;Path&gt;" class="s5" d="m1944.5 1121.3l1.5 7c1.2 5.6-2.2 11.4-7.8 12.7-5.1 1.2-10.3-1.5-11.4-8.1-1-5.8 2.9-11 4.3-13.7 3.1-6.2 11.1-6 13.4 2.1z"/>
						<path id="&lt;Path&gt;" class="s5" d="m1944.7 1128.1q0.2-0.9 0.3-1.8c0.2-1.2 0.6-3 2.3-1.9 2.5 1.5 1.4 7.9-1.6 8-2.3 0.2-1.6-2.8-1-4.3z"/>
						<path id="&lt;Path&gt;" class="s5" d="m1928 1130.8c-3-0.5-3.2-6.9-0.6-8.2 1.8-0.8 2 1 2 2.2q0 0.9 0.2 1.9c0.3 1.6 0.6 4.5-1.6 4.1z"/>
						<path id="&lt;Path&gt;" class="s11" d="m1945.5 1134.6c-1.2 3.1-3.8 5.6-7.3 6.4-5.1 1.2-10.3-1.5-11.4-8.1q0-0.1 0-0.3c0.3 0.6 1.7 3.3 3.1 4.4 1.6 1.2 5.5 1.9 7.6 1.7 1.9-0.1 5.2-1.2 8-4.1z"/>
						<path id="&lt;Path&gt;" class="s21" d="m1931 1130.4c0 0 2 0.7 7.7 0.7 0 0-1.8 2.7-4.9 2.3-3.5-0.3-2.8-3-2.8-3z"/>
					</g>
					<path id="&lt;Path&gt;" class="s13" d="m1993 1333.2c0 0-1.2 11.2-2.4 11.5-1.3 0.2-20.4 7.7-44.5 2.4-24.1-5.3-25.3-7.6-25.3-7.6l1-8.6c0 0 12.9 4.5 28.4 6.5 15.4 2 42.8-4.2 42.8-4.2z"/>
					<path id="&lt;Path&gt;" class="s13" d="m1921.1 1328.7c0 0-1.3 11.4-2.6 11.3-1.3 0-21.6 5-44.2-5-6.7-2.9-10.3-5.2-12.2-6.8-1.4-1.2-2.1-2.9-2-4.7l0.3-6.7c0.1-0.9 1.1-1.3 1.7-0.8 2.3 2 7.3 5.4 17 9 14.6 5.4 42 3.7 42 3.7z"/>
					<g id="&lt;Group&gt;">
						<path id="&lt;Path&gt;" class="s22" d="m1975.2 1017.3c-8.5 43.2-51.5 64.4-83 79.9-5.7 2.8-13 6.4-19.1 9.8-7.6 4.2-13.5 11-16.5 19.1-7.8 21.3-11.2 43.5-11.2 43.8-2 13-14.1 22.1-27.2 20.1q-0.6-0.1-1.1-0.2l-36.4-7.1c2-4.2 16.2-5.1 18.8-7.4-1.5-3.9-2.1-8.1-1.5-12.5 0.3-1.5 5.7-37.7 19.8-68 8.7-18.6 29.4-28.8 53.3-40.6 24.9-12.2 53.2-26.2 57.1-46.1 3.4-17.1 0.8-30.8-7.6-40.7-10.2-12.1-28.8-18.3-52.3-17.6-32.9 1-41.9 38.7-42 39.1-2.9 12.6-15.1 18.9-27.9 18.1-12.5-0.8-37.2-7.3-37.2-7.3 0 0 15.9-2.7 20.5-5.2-2.5-4.9-3.4-10.6-2.1-16.4 0.5-1.9 4.6-18.9 16.5-36.3 17.2-25.1 41.6-38.9 70.7-39.8q4.1-0.1 8.1-0.1l-12.8-4.7 34.9 6.8q2.5 0.5 5 1l0.5 0.1c22.5 5 41.3 15.6 54.6 31.3 17.8 21 24.2 49.7 18.1 80.9z"/>
						<path id="&lt;Path&gt;" class="s22" d="m1805.9 1198.2c11.2 3.7 18.1 15.3 15.8 27.2l-2.2 11.3c-2.5 12.6-14.4 21-27 19.1q-1.3-0.2-2.5-0.2c-9.1-0.6-24.5-5.1-24.5-5.1l10.3-58.4c9.3-0.9 19 1.9 23.5 3.7q3.3 1.3 6.6 2.4z"/>
						<g id="&lt;Group&gt;">
							<g id="&lt;Group&gt;">
								<path id="&lt;Path&gt;" class="s23" d="m1780.7 1182.7c-12.5-2.5-20.9-14.3-19-27 0.2-1.5 5.6-37.7 19.7-68 8.7-18.7 29.4-28.8 53.3-40.6 25-12.3 53.3-26.2 57.2-46.1 3.3-17.1 0.8-30.9-7.7-40.8-10.2-12-28.8-18.2-52.3-17.5-32.8 1-41.9 38.7-42 39-2.9 12.7-15.3 20.6-27.9 18.1q-0.4 0-0.8-0.1c-12.9-3-20.9-15.8-17.9-28.7 0.4-1.9 4.5-18.9 16.4-36.3 17.2-25.2 41.6-39 70.7-39.9 38.4-1.1 70.5 11.1 90.3 34.4 17.8 21 24.3 49.8 18.1 81-8.4 43.2-51.5 64.4-83 79.8-5.7 2.9-13 6.4-19.1 9.8-7.6 4.3-13.5 11-16.4 19.2-7.9 21.3-11.3 43.5-11.3 43.7-2 13.1-14.1 22.1-27.2 20.2q-0.5-0.1-1.1-0.2z"/>
							</g>
							<g id="&lt;Group&gt;">
								<path id="&lt;Path&gt;" class="s23" d="m1765.5 1250.5c-12.9-2.5-21.4-15.1-18.8-28.1l2.2-11.2c2.5-13 15.1-21.5 28.1-18.9 12.9 2.5 21.4 15.1 18.9 28.1l-2.3 11.3c-2.5 12.9-15.1 21.4-28.1 18.8z"/>
							</g>
						</g>
						<path id="&lt;Path&gt;" class="s24" d="m1774 921.8c0 0 26.2-30 80.7-24.4 54.6 5.6 67 43.7 67 43.7 0 0-43-29.7-83.2-27-40.2 2.6-56.4 23.9-62.3 21.2-6-2.7-9.3-7.2-2.2-13.5z"/>
						<path id="&lt;Path&gt;" class="s25" d="m1766 996.6c-8.1 1.5-18.7-6.1-19.7-20.1-0.9-14.1 11.9-33.1 11.9-33.1 0 0 15.9 51.6 7.8 53.2z"/>
						<path id="&lt;Path&gt;" class="s26" d="m1773.5 1156.9c-1.3 3.2-6.1 2.5-6.4-1-0.2-2.4-0.2-5 0.4-7.7 2.1-9.1 14.1-60.1 22.9-69.5 18.6-19.8 90.4-52 95.3-57.8 4.9-5.8 19.8-15.8 13.4-0.8-6.4 14.9-50 42.5-60.8 48.1-10.8 5.6-29.9 6.6-46.9 46.2-6.5 15.1-13.6 32.2-17.9 42.5z"/>
						<path id="&lt;Path&gt;" class="s27" d="m1750.6 1237c-5.6-6.7-1.1-25.3 4-33.8 5.2-8.4 16.7-9.5 16.7-9.5 18.4 0.6-15.1 50-20.7 43.3z"/>
					</g>
					<path id="&lt;Path&gt;" class="s28" d="m1950.8 1169.9c1.6-7.3 0.3-16.7-0.8-22.5q1.5 0.3 2.8 0.6c6.6 1.7 14.8 5.3 18.6 13 6.7 13.8 4.9 27.8 10.7 56.1 5.1 24.5 11.2 27.3 3.2 38.4-1.9 2.7-11.8 9.2-21.7 12.3-5.7-27.1-14.9-88.5-12.8-97.9z"/>
					<path id="&lt;Path&gt;" class="s6" d="m1884.2 1326.5c15.1 3.6 36.9 2.2 36.9 2.2 0 0-1.3 11.4-2.6 11.3-1.1 0-15.9 3.6-34.3-1.4z"/>
					<path id="&lt;Path&gt;" class="s5" d="m1967.5 1159.9c18.3 19.5-44.3 103.4-95.8 96.2-29.8-4.2-43.2-31.6-49.5-56.1-4.6-17.8-8-34.8 1.2-36.6 22-4.3 36.9 52.2 55.3 54.3 15.7 1.8 38.6-27.5 53.7-39.3 19.1-14.8 28.6-25.4 35.1-18.5z"/>
					<path id="&lt;Path&gt;" class="s14" d="m1969.6 1169.9c0 0 2.3 8.5-3.6 28.5-4 13.8-28.4 44-45.5 54.5-17.1 10.5-31.5 9.1-33.3 7-1.8-2.2-3.9-5.3-3.9-5.3 0 0 27.8-20.4 44.8-32.9 17-12.4 41.5-51.8 41.5-51.8z"/>
					<path id="&lt;Path&gt;" class="s6" d="m1960.8 1337.7c14.9-0.6 32.2-4.5 32.2-4.5 0 0-1.2 11.2-2.4 11.5-1.1 0.2-14.4 5.4-32.7 4.1z"/>
					<path id="&lt;Path&gt;" class="s5" d="m1822.6 1171.8c-10.4-1.8-14.1-14.3-13.2-22.7 0.8-8.4 5.7-10.1 9.1-4.8 2.1 3.3 3.6 9.5 7.2 11 3.5 1.5 2.6-3.7 7-6.4 4.4-2.6 1.6 3.4 0.8 6-0.8 2.7-1.6 10.5-1.6 10.5 0 0 1.1 8.1-9.3 6.4z"/>
					<path id="&lt;Path&gt;" class="s11" d="m1968.1 1160.6c-2.4 4.6-12.2 23.6-20.4 36.2-9.4 14.6-29.7 29.8-41.8 38.3-12.1 8.5-27.4 12.3-35.4 12.3-8 0-23.3-13.6-27.8-20.2-4.4-6.6-13.8-17.8-15.6-25-1.1-4.6-5.7-14.5-9-21.2 0.8 5.7 2.4 12.3 4.1 19 6.3 24.5 19.7 51.9 49.5 56.1 50.9 7.1 112.7-74.9 96.4-95.5z"/>
				</g>
			</g>
			<g id="&lt;Group&gt;">
				<path id="&lt;Path&gt;" class="s11" d="m2295.7 827.9c0.9 11-39 62.6-73.8 61.4-33.6-1.3-49.4-71.2-37.6-74.5 7-2 39.6 47.7 39.6 47.7 0 0 39.4-28.8 51.7-37.4 7.4-5.1 19.5-4.3 20.1 2.8z"/>
				<path id="&lt;Path&gt;" class="s11" d="m2182.1 823.7c-9.1 0.8-19.6-5.3-18-9.1 1.9-4.4 9.4-0.8 11.6-0.9 2.1-0.1-1.6-2.3-3.1-4.3-1.5-1.9-0.1-4.6 0.7-3.2 0.9 1.5 2.6 3.5 6.5 4.6 2 0.5 5.6 2.2 6.3 3.3 3.9 6.5-1.4 9.4-4 9.6z"/>
				<path id="&lt;Path&gt;" class="s10" d="m2287.1 780.8l1.5 12.8c0 0-4.3 4.5-5-0.5-0.8-5 0.4-7.4 1.5-10.1 0.2-0.4 1-1.7 1-1.7z"/>
				<path id="&lt;Path&gt;" class="s10" d="m2288.4 795.5c0 2.1-1.4 3.7-3 3.7-1.7 0-3-1.6-3-3.7 0-2 1.3-3.6 3-3.6 1.6 0 3 1.6 3 3.6z"/>
				<path id="&lt;Path&gt;" class="s6" d="m2298.6 776c0 0-3.6-7.1 5.6-11.7 9.1-4.5 21 5.2 22.4 14.5 1.4 9.2 1.3 20.5 8.8 21.6 7.4 1.1 17.7 8.6 12.6 18.2-5.2 9.7-25.3 11.1-35-8.1-9.8-19.2-14.4-34.5-14.4-34.5z"/>
				<path id="&lt;Path&gt;" class="s6" d="m2269.2 866c-0.8-3.2-1.6-6.9-2.1-10.4-1.4-9.3 4.3-16.3 4.3-16.3l7.5 16.7c-2.9 3.4-6.2 6.7-9.7 10z"/>
				<path id="&lt;Path&gt;" class="s11" d="m2185.9 1100.9c-0.1 1.8-14 9.9-15.3 4.8-13.2-50.1-21.8-113.5-9.2-141.1 19.5-42.6 127.1-74.1 127.1-74.1 16 2.4 32.1 4.7 39.4 17.9-1.3 25.1-25.9 50.8-52.4 59.9-16.4 5.6-52.4 8.2-77.7 11.6-7.2 0.9-2.6 15.2-1.5 29.4 2.2 30.1-9.3 79.1-10.4 91.6z"/>
				<path id="&lt;Path&gt;" class="s5" d="m2268.4 1125.1c0.3 1.7-13 11.9-15.7 7.4-26.3-44.7-53.9-102.4-52.7-132.7 2.2-54.7 96.6-95.7 96.6-95.7 16-2 32.7-12.1 43.3-1.3 5.5 24.5 0.8 56.7-22.3 72.6-14.3 9.8-52.7 22.7-76.2 32.7-6.7 2.9 2.7 18.2 7.6 31.7 10.2 28.3 17 72.9 19.4 85.3z"/>
				<path id="&lt;Path&gt;" class="s11" d="m2249 1039.8c10.2 28.3 17 72.9 19.4 85.3 0.1 0.6-1.3 2.1-3.4 3.7-3.7-6.7-8.3-15-10.1-18.9-3.6-7.4-34.2-83.9-30.9-105.1 3.3-21.2 15.1-12.2 51.2-25.9 22.1-8.3 45.2-17.9 59.7-24.1-3.9 8.1-9.6 15.3-17.3 20.6-14.3 9.8-52.7 22.7-76.2 32.7-6.7 2.9 2.7 18.2 7.6 31.7z"/>
				<path id="&lt;Path&gt;" class="s14" d="m2236.4 908.8c10.8-4.2 39.4-14.8 39.4-14.8l65.2 12.1c5.4 10-0.4 37.2-2.6 46.2-2.3 9.1-15.1 21.8-21.4 25.6-6.4 3.7-36.3 15.8-41.9 18.1-5.7 2.2-29.4 13.7-29.4 13.7l-74.3-59.4c15.3-17.1 54.2-37.3 65-41.5z"/>
				<path id="&lt;Path&gt;" class="s29" d="m2275.8 886.5c3.2-30.3-11.5-31.1-6.3-43.3 1.1-2.4 3.2-6.2 4.5-9.2 2.2-5 3.1-10.2 6.6-12.2 15.7-9.2 29.1-7 40-4 28.7 8 3.8 58.7 20.1 86 6.8 11.2-69.6 26.2-64.9-17.3z"/>
				<path id="&lt;Path&gt;" class="s30" d="m2340.7 903.8c3.3 5.4-12.7 11.6-29.6 11.9-0.9-12.6 5.2-33.7 2.9-39.1-3.3-7.6-14.1-12.4-16.5-17.9-2.3-5.5 8.8-4.2 12.5-7.3 3.7-3.1 5.8-11.9 5.5-19.1-0.1-5.6-0.3-12.9-0.3-15.8q2.8 0.6 5.4 1.3c28.7 8 3.8 58.7 20.1 86z"/>
				<path id="&lt;Path&gt;" class="s6" d="m2320.5 839c0 0 7.2 6 14.9 12.5-0.2 6-0.6 12.3-0.7 18.6-9.6-6.7-14.2-31.1-14.2-31.1z"/>
				<path id="&lt;Path&gt;" class="s5" d="m2377 868.1c24.1 40.3 12.6 91.2 2.8 94.1-9.7 2.9-12-56.5-20.7-73.8-8.8-17.4-50.8-47.7-37.5-62.3 8.3-9.1 37.5 12.2 55.4 42z"/>
				<path id="&lt;Path&gt;" class="s11" d="m2379.8 962.2c-9.7 2.9-12-56.5-20.7-73.8-8.6-17-48.8-46.3-38.3-61.2 8.3 6.1 21.3 20.8 32.2 31.8 16.3 16.3 23.7 51.2 21.3 63.3-1.9 9.6 4.2 31.3 6.6 39.4q-0.5 0.3-1.1 0.5z"/>
				<path id="&lt;Path&gt;" class="s5" d="m2380.2 954.5c3.3-0.7 12.4 4.9 14.8 8.3 2.3 3.4-0.3 2.9-0.3 2.9 0 0 1 0.6 0.8 3.4-0.3 2.8-2.6-1.4-2.6-1.4 0 0 1.2 1.6 0.9 4.1-0.3 2.4-1-0.3-2.7-2.2-1.7-2-6.7-4.8-7.4-2.8-0.6 2.1 0.9 7.3-1.3 7.9-2.3 0.6-0.2-4.5-2.4-6.1-2.3-1.6-5.2-6.4-5.2-6.4 0 0 2.1-7.1 5.4-7.7z"/>
				<path id="&lt;Path&gt;" class="s6" d="m2284.7 796c0 0-2.5-5.3 1.4-14.5 3.4-8 15.8-12.2 22.7-0.1 4.6 8-0.5 26.8-5.7 26.8-5.2 0-16.3-7.8-18.4-12.2z"/>
				<path id="&lt;Path&gt;" class="s5" d="m2302.3 798.7l5.1 16.8c0.8 2.7-3.9 11.8-9.3 9.6-1.6-0.7-1-4.9-0.7-8.2l-0.9-15.4z"/>
				<path id="&lt;Path&gt;" class="s6" d="m2296.7 803.7l5.7-1.7c0 0-2 6.5-5.3 8.7z"/>
				<path id="&lt;Path&gt;" class="s5" d="m2299.2 787.9l2.9 6.2c2.2 4.9 0.4 10.9-4.4 13.3-4.5 2.2-9.8 0.8-12.2-4.9-2.2-5.1 0.2-10.8 0.9-13.6 1.5-6.3 8.9-7.8 12.8-1z"/>
				<path id="&lt;Path&gt;" class="s5" d="m2300.8 794.2q0.1-0.9-0.1-1.8c-0.1-1.1 0-2.8 1.7-2.2 2.6 0.9 3 7 0.3 7.7-2.1 0.6-2.1-2.2-1.9-3.7z"/>
				<path id="&lt;Path&gt;" class="s10" d="m2292 803.1c-1.6-0.7-2.9-3.3-2.9-3.3 3.9 0 6.5-1 6.5-1-0.6 3.1-2 5-3.6 4.3z"/>
				<path id="&lt;Path&gt;" class="s11" d="m2302.9 800c-0.4 3.1-2.2 5.9-5.2 7.4-4.5 2.2-9.8 0.8-12.2-4.9q-0.1-0.2-0.1-0.3c0.4 0.5 2.2 2.7 3.8 3.4 1.7 0.7 5.4 0.5 7.3-0.1 1.7-0.6 4.5-2.3 6.4-5.5z"/>
				<g id="&lt;Group&gt;">
					<path id="&lt;Path&gt;" class="s10" d="m2303.9 788.3l0.7 2.7-1.1 0.2-0.6-2.8z"/>
					<path id="&lt;Path&gt;" class="s10" d="m2307.2 794.2c0 2.1-1.4 3.7-3 3.7-1.7 0-3-1.6-3-3.7 0-2 1.3-3.6 3-3.6 1.6 0 3 1.6 3 3.6z"/>
					<path id="&lt;Path&gt;" class="s10" d="m2297.9 778.3c5.9 1.6 6.9 10 6.9 10l-2.6 0.5c0 0-1.1-6-5.5-7.8-2.4-1-8.2-1.1-10.5 0.8-0.5 0.3-0.9 1-1.3 1.8 0 0 1-3.3 3.5-4.7 1.8-1 5.3-1.8 9.5-0.6z"/>
				</g>
				<g id="&lt;Group&gt;">
					<path id="&lt;Path&gt;" class="s10" d="m2292.6 805.4c-0.2 0-0.4-0.2-0.5-0.4 0-0.3 0.2-0.5 0.5-0.5 0 0 4.5-0.6 6.6-2.4 2.1-1.7 3.3-5.7 3.3-5.8 0-0.2 0.3-0.4 0.6-0.3 0.2 0.1 0.4 0.3 0.3 0.6-0.1 0.2-1.2 4.3-3.6 6.3-2.3 1.9-6.9 2.5-7.1 2.5q-0.1 0-0.1 0z"/>
				</g>
				<g id="&lt;Group&gt;">
					<path id="&lt;Path&gt;" class="s10" d="m2275.2 1133.8c0.6 2.1 0.4 4.1-0.9 5.4-4.8 4.9-38.8 15-39.8 11.7-0.2-0.7-0.3-1.4-0.3-2 5.3-1.1 16-3.6 25-7.2 6.3-2.5 12-5.5 16-7.9z"/>
					<path id="&lt;Path&gt;" class="s14" d="m2234.2 1148.9c-0.5-5.9 6.5-6.5 11.1-10.8 3.2-2.6 4-4.1 4.5-5.8 0.1-0.1 1-0.6 1.8-0.9 0.7-0.2 1.5 0 2.1 0.4 0.9 0.6 1.8 0.9 3.7 0.4 3.1-0.9 7.5-3.7 10.6-9 0.4 0.6 3.6 4 3.9 4.4 1.6 1.9 2.8 4.1 3.3 6.2-4 2.4-9.7 5.4-16 7.9-9 3.6-19.7 6.1-25 7.2z"/>
				</g>
				<g id="&lt;Group&gt;">
					<path id="&lt;Path&gt;" class="s10" d="m2193.7 1107.5c0.5 2.2 0.3 4.2-0.9 5.5-4.8 4.9-38.8 15-39.8 11.7-0.2-0.8-0.3-1.4-0.4-2 5.3-1.1 16-3.6 25-7.2 6.4-2.5 12-5.6 16.1-8z"/>
					<path id="&lt;Path&gt;" class="s14" d="m2152.6 1122.7c-0.5-6 6.6-6.5 11.1-10.8 3.2-2.7 4.1-4.1 4.6-5.9 0 0 0.9-0.6 1.7-0.8 0.7-0.2 1.5-0.1 2.2 0.4 0.8 0.5 1.7 0.9 3.6 0.3 3.1-0.9 7.5-3.7 10.7-8.9 0.3 0.6 3.5 3.9 3.8 4.4 1.6 1.9 2.8 4.1 3.4 6.1-4.1 2.4-9.7 5.5-16.1 8-9 3.6-19.7 6.1-25 7.2z"/>
				</g>
			</g>
			<g id="&lt;Group&gt;">
				<path id="&lt;Mesh&gt;" class="s31" d="m2264 1607.2c39.5 0.6 101.2 1.6 170.2 2.6q0.1 0 0.3 0c-0.2 8.7-0.3 17.1-0.4 24.7q-0.2 0-0.3 0c-59.8-0.9-112.3-6.2-142.6-13.5-17.3-4.1-27.3-8.9-27.2-13.8zm27.6-13.1c30.5-6.3 83.2-10 143-9.1q0.1 0 0.2 0c-0.1 8.3-0.2 16.6-0.3 24.8q-0.2 0-0.3 0c-69-1-130.7-2-170.2-2.6q0 0 0-0.1c0-4.9 10.2-9.4 27.6-13zm142.9 15.7c68.8 1.1 130.5 2 170 2.6-0.1 5-10.3 9.4-27.7 13-30.4 6.3-83 10-142.7 9.1 0.1-7.6 0.2-16 0.4-24.7zm0.3-24.8c59.7 1 112.2 6.2 142.4 13.5 17.3 4.1 27.4 8.9 27.3 13.9q0 0 0 0c-39.5-0.6-101.2-1.5-170-2.6 0.1-8.2 0.2-16.5 0.3-24.8z"/>
				<g id="&lt;Group&gt;">
					<g id="&lt;Group&gt;">
						<path id="&lt;Path&gt;" class="s5" d="m2395.4 1573.1c0 0-0.4 15.7-2.7 19.4-2.2 3.7-16.2 6-18.2 1.9-2.1-4.2 0-21.7 0-21.7z"/>
						<g id="&lt;Group&gt;">
							<path id="&lt;Path&gt;" class="s10" d="m2374.2 1588.7c3.4-0.3 10 1.3 12.5 0.4 2.5-0.9 6.5-4.9 10.7-4 4.3 1 12.8 10.2 16 12.3 3.2 2.1 11.3 3.8 12.7 8.2 0 2.3-2.2 4.2-5 4.2h-43.1c-3.8 0-7-2.4-7.6-5.6-0.5-3.5 0.3-15.1 3.8-15.5z"/>
						</g>
					</g>
					<g id="&lt;Group&gt;">
						<path id="&lt;Path&gt;" class="s5" d="m2470.4 1573.1c0 0-0.5 15.7-2.7 19.4-2.2 3.7-16.2 6-18.3 1.9-2-4.2 0.1-21.7 0.1-21.7z"/>
						<g id="&lt;Group&gt;">
							<path id="&lt;Path&gt;" class="s10" d="m2449.2 1588.7c3.4-0.3 10 1.3 12.5 0.4 2.5-0.9 6.5-4.9 10.7-4 4.3 1 12.8 10.2 16 12.3 3.2 2.1 11.3 3.8 12.7 8.2 0 2.3-2.2 4.2-5 4.2h-43.1c-3.8 0-7-2.4-7.6-5.6-0.5-3.5 0.3-15.1 3.8-15.5z"/>
						</g>
					</g>
					<path id="&lt;Path&gt;" class="s14" d="m2442.5 1288.5c19.2 7.4-8.5 115-10.4 139.7-4 51.4-24.9 137.4-30.4 144.3-5.6 6.9-24.3 4.6-30.8 0-6.4-4.6 5.4-270.5 5.4-270.5 2.3-16.6 47-20.9 66.2-13.5z"/>
					<path id="&lt;Path&gt;" class="s14" d="m2488.2 1290.6c0 0 4.5 275.3-2.5 280.4-7.1 5.1-35.4 9.5-39.1 1.5-10.1-21.6-7.9-118.3-5.9-138.1 0 0-17.7-122.1-12.6-137.1 5.1-15.1 44.6-19.4 60.1-6.7z"/>
					<path id="&lt;Path&gt;" class="s11" d="m2460.7 1146.6c23.3-4.8 65 6.8 83.2 7.8 18.1 0.9 79.6-56.4 92.7-50.3 6.6 3-3.3 16.5-13.8 30.3-15.5 20.6-38.2 43.1-52.5 48.9-34.1 13.8-91.3 5.1-115.5-12.7-12.1-8.8-1-22.6 5.9-24z"/>
					<path id="&lt;Path&gt;" class="s14" d="m2546.4 1154.2c0.6 2.7 2.3 11.1 2.8 22.5 0.2 5.2 0.2 9.1 0.2 12q-4.4 0.7-9 1l3.9-35.3q1 0 2.1-0.2z"/>
					<g id="&lt;Group&gt;">
						<path id="&lt;Path&gt;" class="s30" d="m2460.7 1146.6c23.3-4.8 65 6.8 83.2 7.8q0.9 0 1.8-0.2c0.8 5.7 3.1 24.5-0.9 38.1-31.5 4.5-72.8-9-90-21.7-12.1-8.8-1-22.6 5.9-24z"/>
					</g>
					<path id="&lt;Path&gt;" class="s29" d="m2374.4 1240.1c0.2-40-4.6-37.5-0.8-51.1 4.9-17.4 37.4-37.9 52-40 12-1.6 31.6-5.6 42.3 1.9 17.1 12 15 114.2 31.1 148.3 5.8 12.2 13 24.4-65.1 35.6-24.1 3.5-62.2 13.1-66.9-8.3-1.7-7.8 7.4-82.6 7.4-86.4z"/>
					<path id="&lt;Path&gt;" class="s14" d="m2531.2 1152.8c-1.7 5.6-9.4 29.3-20.2 38.6-6.3-1-12.5-2.4-18.5-4.1 7.1-7.1 19.4-19.6 21.4-23.4 1.8-3.3 5.7-8.8 8.6-12.5 3 0.5 5.9 1 8.7 1.4z"/>
					<path id="&lt;Path&gt;" class="s30" d="m2476.4 1326.6c-1.8-7.9-3.6-16.4-4.6-24.1-3.1-22.1-32.8-133-38.6-154.6 11.5-1.6 26-3 34.7 3 17.1 12 15 114.2 31.1 148.3 4.4 9.3 9.6 18.6-22.6 27.4z"/>
					<path id="&lt;Path&gt;" class="s14" d="m2479.7 1185.5c1.1 6.9 2.1 14.4 3.1 22.2-13.7 4.7-48.6 14.3-89.4-4.1-24.3-11 55.4-13.4 86.3-18.1z"/>
					<path id="&lt;Path&gt;" class="s10" d="m2539.5 992.7h162c3.9 0 7 3.1 7 6.9v99.5c0 3.8-3.1 6.9-7 6.9h-162c-3.9 0-7-3.1-7-6.9v-99.5c0-3.8 3.1-6.9 7-6.9z"/>
					<g id="&lt;Group&gt;">
						<path id="&lt;Path&gt;" class="s11" d="m2423.9 1139.1c-8.3-3.4-5-19.3-7.8-21.2-2.7-1.9-3.2-6.9 0-8 3.3-1.2 6.3 3.6 9.6 3.2 3.3-0.5 10.7 1.5 10.7 1.5 6.1 6.3-4.2 27.9-12.5 24.5z"/>
						<path id="&lt;Path&gt;" class="s32" d="m2433 1140.3c-2.9 1.4-11.1-1.5-10.4-8 0.7-6.5 9.5-10.2 12.2-18.4 0.5-1.5-0.8-4.1 2.4-4.3 3.2-0.2 10.8 6.8 11.2 11.7 0.6 7.5-5.1 8.4-5.1 8.4 0 0-7.5 9.1-10.3 10.6z"/>
						<path id="&lt;Path&gt;" class="s5" d="m2430.4 1139.2l6.2 17.9c1 3.3 1.2 6.3-0.4 7.2-5.1 3.4-20.7-6.6-20.3-9.6l9-20.3z"/>
						<path id="&lt;Path&gt;" class="s6" d="m2435.7 1154.5c-2.7-0.5-5.5-1.8-7.8-4.1-4.2-4.5-4-9.8-4-9.8 0 0 4.5 1.3 7.8 2.2z"/>
						<path id="&lt;Path&gt;" class="s5" d="m2443.7 1128.7c0.6 2.9 1.4 8.5 0.5 14.3-0.8 4.5-3 7.5-6.5 7.4-4.2-0.2-6.3-0.5-9.3-1.9-3.8-1.8-5.6-6.2-4-10.1l5.9-11.3c4.3-7.1 12.1-5.2 13.4 1.6z"/>
						<path id="&lt;Path&gt;" class="s5" d="m2428.6 1137.9c-3.8 0.1-5.7-7.7-2.8-9.9 2-1.4 2.8 0.7 3 2.2 0.2 0.7 0.4 1.5 0.7 2.2 0.7 1.9 1.8 5.4-0.9 5.5z"/>
						<path id="&lt;Path&gt;" class="s10" d="m2436.6 1137.7c0 0 2.7 1.2 6.7 1.3 0 0-0.1 1.4-1.8 2-1.7 0.7-4.5 0-4.9-3.3z"/>
						<path id="&lt;Path&gt;" class="s11" d="m2442.6 1147.5c-1.1 1.9-2.8 2.9-4.9 2.9-4.2-0.2-6.3-0.5-9.3-1.9-3.8-1.8-5.6-6.2-4-10.1l0.2-0.2c0.1 1.5 0.3 4 1.4 5.3 5.9 6.5 9.8 1.2 13.5 2.6 1.1 0.4 2.4 1.4 3.1 1.4z"/>
						<g id="&lt;Group&gt;">
							<g id="&lt;Group&gt;">
								<path id="&lt;Compound Path&gt;" fill-rule="evenodd" class="s6" d="m2440.8 1131.8c0.1-1.9 1.7-3.4 3.5-3.4 3.6 0.1 5.9 1 6.7 2.8 0.7 1.6 0.6 3.3-0.3 4.6-1.1 1.7-3.3 2.6-5.8 2.4q-0.1 0-0.2 0c-4.3-0.4-4-4.6-3.9-6.4zm3.5-1.9c-1.1 0-2 0.9-2.1 2-0.2 3.4 0.5 4.7 2.8 4.9 2 0.1 3.6-0.5 4.5-1.8 0.6-0.9 0.7-2.1 0.2-3.2-0.6-1.2-2.4-1.7-4-1.8q-0.8-0.1-1.4-0.1z"/>
							</g>
							<g id="&lt;Group&gt;">
								<path id="&lt;Compound Path&gt;" fill-rule="evenodd" class="s6" d="m2435.1 1137.3c-2.4-0.3-4.4-1.6-5.2-3.5-0.6-1.5-0.4-3.2 0.6-4.6 1.2-1.6 3.6-2 7.1-1.4 1.8 0.3 3.1 2.1 2.8 3.9-0.2 1.8-0.7 6-5.1 5.6q-0.1 0-0.2 0zm3.9-5.7c0.1-1.2-0.6-2.2-1.7-2.4-1.6-0.3-4.5-0.6-5.6 0.9-0.7 1-0.9 2.1-0.4 3.2 0.6 1.3 2.1 2.3 4 2.5 2.2 0.3 3.2-0.8 3.7-4.2z"/>
							</g>
						</g>
						<g id="&lt;Group&gt;">
							<path id="&lt;Path&gt;" class="s6" d="m2439.6 1131.4l-0.3-0.8c0 0 1.9-0.7 3.1 0.4l-0.5 0.6c-0.9-0.7-2.3-0.2-2.3-0.2z"/>
						</g>
					</g>
					<g id="&lt;Group&gt;">
						<path id="&lt;Path&gt;" class="s5" d="m2388.7 1174.1c23.4-11.5 71-10.8 90.6-14.8 19.5-4.1 38.3-81.6 54.1-82.7 15.9-1.1 11.2 53.6-14.5 95.5-21.1 34.5-99.1 41.4-129.8 29.2-15.3-6-7.4-23.7-0.4-27.2z"/>
						<path id="&lt;Path&gt;" class="s11" d="m2392.6 1202.6c4.9-4.4 12-9 19.3-13.7 20.8-13.3 74.7-4.8 83.7-12.5 8.9-7.7 26.7-30.9 31.8-48.9 5.2-18 6.9-46.9 11.9-47.6 8 12.3 1.3 56.8-20.4 92.2-20.3 33.3-93.5 40.9-126.3 30.5z"/>
						<path id="&lt;Path&gt;" class="s14" d="m2474.6 1200.3c-5.8 1.7-11.9 3.1-18.1 4.1 3.8-8.2 8.6-21.5 10.2-39.5 0 0 12.5 5.3 7.9 35.4z"/>
						<g id="&lt;Group&gt;">
							<path id="&lt;Path&gt;" class="s29" d="m2388.7 1174.1c18.7-9.2 52.9-10.6 75.9-12.9 4.9 7.2 12.2 25.5 0.2 45.8-27.6 5.8-59.2 0.9-75.7-5.7-15.3-6-7.4-23.7-0.4-27.2z"/>
						</g>
						<path id="&lt;Path&gt;" class="s30" d="m2398.7 1193.2c14.5 3.9 13.2 4.3 37.9 2.3 16.2-1.3 28.2-5.7 34.7-8.5-0.5 6.1-2.3 12.9-6.5 20-27.6 5.8-59.2 0.9-75.7-5.7-9.3-3.6-10-11.6-7.6-18 4.6 4 10.6 8.2 17.2 9.9z"/>
						<path id="&lt;Path&gt;" class="s5" d="m2528.8 1078.5c0 0-0.5-11.2 2.4-12.5 3-1.2 9.6-4.9 9.8-3.5 0.1 1.4-5 3.6-5 3.6 0 0 7.3-2.2 7.9-1.5 0.6 0.6-0.4 1.5-0.4 1.5 0 0 1.1 0.5 1.3 1.3 0.2 0.9-5.4 4-5.4 4 0 0 3.7 12.2-4.3 13.2-8 1.1-6.3-6.1-6.3-6.1z"/>
					</g>
					<path id="&lt;Path&gt;" class="s11" d="m2630.8 1110.5c-0.9-1.4 0.1-5.1 0.6-6.4 0.4-1.3 1.6-5.8 2.9-5.3 1.4 0.5 0 4.3 0.1 5.3 0.1 1.1 1 1.5 1.3 0.8 0.2-0.8 4-8.3 5.6-8.4 1.6-0.1 1.9 1.9 1.9 1.9 0 0 1.3-2.1 3.1-1 1.7 1.2-0.8 8.4-0.8 8.4 0 0 1.5 0 3-0.8 1.9-1.1 4-3.1 4.8-2.3 1.3 1.2-3.1 6.7-6.6 8.8-1.7 1-11.5 5.4-15.9-1z"/>
					<g id="&lt;Group&gt;">
						<g id="&lt;Group&gt;">
							<path id="&lt;Compound Path&gt;" class="s6" d="m2594.7 1044.2c-0.2 2.9-1.5 13.3-12.1 13.3-12.1 0-12.8-13.6-12.8-24.3 0-13 3.2-23.5 13.4-23.5 10.8 0 11.3 10.5 11.4 13h-4.1c0-1.6-0.4-9.4-7.4-9.4-8.1 0-9.2 11.4-9.2 19.9 0 10.2 1.2 20.7 8.8 20.7 6.7 0 7.8-7.1 8-9.7z"/>
							<path id="&lt;Compound Path&gt;" fill-rule="evenodd" class="s6" d="m2606.1 1041l-3.8 15.9h-3.9c0 0 11.4-46.5 11.4-46.5h5.1l11.8 46.5h-4.2l-3.9-15.9zm11.7-3.6c-3-12.3-4.9-19.9-5.5-23.3h-0.1c-0.7 4-2.7 12.8-5.2 23.3z"/>
							<path id="&lt;Compound Path&gt;" class="s6" d="m2632.2 1010.4h3.9v42.9h16.9l-0.7 3.6h-20.1z"/>
							<path id="&lt;Compound Path&gt;" class="s6" d="m2658 1010.4h3.9v42.9h16.8l-0.7 3.6h-20z"/>
						</g>
						<g id="&lt;Group&gt;">
							<path id="&lt;Compound Path&gt;" fill-rule="evenodd" class="s6" d="m2580.1 1074.8c0 7.8-1.7 12.3-6.7 12.3-4.7 0-6.5-4.3-6.5-12.2 0-7.9 2.1-11.9 6.6-11.9 4.8 0 6.6 3.9 6.6 11.8zm-11.2 0c0 7.1 1.5 10.5 4.6 10.5 3.2 0 4.6-3.4 4.6-10.4 0-7.4-1.6-10.2-4.6-10.2-3 0-4.6 3.3-4.6 10.1z"/>
							<path id="&lt;Compound Path&gt;" fill-rule="evenodd" class="s6" d="m2584.1 1063.3h5.6c3.7 0 6.1 2.3 6.1 6.3 0 4.1-2.2 6.8-6.4 6.8h-3.4v10.3h-1.9zm1.9 11.4h3.2c2.9 0 4.5-1.6 4.5-5 0-2.7-1.4-4.6-4.2-4.6h-3.5z"/>
							<path id="&lt;Compound Path&gt;" class="s6" d="m2609 1075.2h-8v9.8h8.8l-0.3 1.7h-10.4v-23.4h10.3v1.8h-8.4v8.3h8z"/>
							<path id="&lt;Compound Path&gt;" fill-rule="evenodd" class="s6" d="m2614.7 1075.6v11.1h-1.9v-23.4h5.7c3.8 0 5.8 2.2 5.8 5.9 0 3.6-1.7 5.1-3.2 5.5 2.3 0.8 2.9 2.8 2.9 6.1v0.9c0 2 0.1 3.8 0.3 5h-2c-0.3-1-0.3-3.2-0.3-5.1v-0.7c0-3.5-0.7-5.3-4-5.3zm0-1.7h3.4c2.9 0 4-1.8 4-4.7 0-2.4-1.1-4.2-3.9-4.2h-3.5z"/>
							<path id="&lt;Compound Path&gt;" fill-rule="evenodd" class="s6" d="m2630.7 1078.7l-1.9 8h-2c0 0 5.8-23.4 5.8-23.4h2.5l6 23.4h-2.1l-2-8zm5.9-1.8c-1.5-6.2-2.5-10-2.7-11.7h-0.1c-0.4 2-1.4 6.4-2.6 11.7z"/>
							<path id="&lt;Compound Path&gt;" class="s6" d="m2644.9 1065.1h-5.3v-1.8h12.6v1.8h-5.3v21.6h-2z"/>
							<path id="&lt;Compound Path&gt;" fill-rule="evenodd" class="s6" d="m2666.2 1074.8c0 7.8-1.8 12.3-6.7 12.3-4.8 0-6.6-4.3-6.6-12.2 0-7.9 2.2-11.9 6.7-11.9 4.7 0 6.6 3.9 6.6 11.8zm-11.2 0c0 7.1 1.5 10.5 4.6 10.5 3.1 0 4.5-3.4 4.5-10.4 0-7.4-1.5-10.2-4.6-10.2-3 0-4.5 3.3-4.5 10.1z"/>
							<path id="&lt;Compound Path&gt;" fill-rule="evenodd" class="s6" d="m2672.1 1075.6v11.1h-2v-23.4h5.7c3.9 0 5.8 2.2 5.8 5.9 0 3.6-1.7 5.1-3.2 5.5 2.3 0.8 2.9 2.8 2.9 6.1v0.9c0 2 0.1 3.8 0.4 5h-2c-0.3-1-0.4-3.2-0.4-5.1v-0.7c0-3.5-0.6-5.3-4-5.3zm0-1.7h3.4c3 0 4.1-1.8 4.1-4.7 0-2.4-1.2-4.2-3.9-4.2h-3.6z"/>
						</g>
					</g>
				</g>
			</g>
			<g id="&lt;Group&gt;">
				<path id="&lt;Mesh&gt;" class="s33" d="m432 1602.3c75.6 1.1 193.9 3 325.9 5q0.3 0 0.5 0c-0.2 15.4-0.5 30.3-0.7 43.8q-0.2 0-0.4 0c-114.5-1.8-215.1-11.3-273.1-24.2-33.1-7.4-52.3-15.8-52.2-24.6zm52.9-23.2c58.4-11.1 159.2-17.5 273.7-15.8q0.2 0 0.4 0c-0.2 14.7-0.3 29.4-0.6 44q-0.2 0-0.5 0c-132-2-250.3-3.9-325.9-5q0-0.1 0-0.1c0.1-8.8 19.6-16.7 52.9-23.1zm273.5 28.2c131.9 2 249.9 3.8 325.5 5-0.2 8.7-19.7 16.6-52.9 23-58.3 11.1-159 17.5-273.3 15.8 0.2-13.5 0.5-28.4 0.7-43.8zm0.6-44c114.4 1.8 214.8 11.3 272.7 24.2 33.2 7.4 52.4 15.9 52.2 24.7q0 0 0 0.1c-75.6-1.2-193.6-3-325.5-5 0.3-14.6 0.4-29.3 0.6-44z"/>
				<g id="&lt;Group&gt;">
					<path id="&lt;Path&gt;" class="s34" d="m736 1603h-245.7c-12 0-22-9.7-22.5-21.6l-26.5-385.3h302.2l13.4 385.3c0.5 11.9-8.9 21.6-20.9 21.6z"/>
					<path id="&lt;Path&gt;" class="s35" d="m808.7 1603h-245.7c-12 0-23.7-9.7-26.2-21.6l-93.9-385.3h302.2l80.8 385.3c2.5 11.9-5.2 21.6-17.2 21.6z"/>
					<path id="&lt;Path&gt;" class="s10" d="m839.6 1603h-245.7c-12 0-24.4-9.7-27.8-21.6l-107.6-385.3h289.1l107.6 385.3c3.4 11.9-3.6 21.6-15.6 21.6z"/>
					<g id="&lt;Group&gt;">
						<path id="&lt;Compound Path&gt;" fill-rule="evenodd" class="s36" d="m850.8 1599.3l-0.4-1.3h-34.8l1.4 5h-0.9l-1.4-5h-34.9l1.4 5h-0.9l-1.4-5h-34.9l1.5 5h-0.9l-1.5-5h-34.8l1.4 5h-0.9l-1.4-5h-34.9l1.4 5h-0.9l-1.4-5h-34.8l1.4 5h-0.9l-1.4-5h-34.9l1.4 5h-0.9l-1.4-5h-21.6q-0.6-0.5-1.2-0.9h22.5l-9.7-34.9h-29.3l-0.3-0.9h29.4l-9.8-34.9h-29.3l-0.3-0.9h29.4l-9.8-34.8h-29.3l-0.2-0.9h29.3l-4.7-16.7-0.4-1.5-4.7-16.7h-29.3l-0.2-0.9h29.3l-9.7-34.8h-29.4l-0.2-0.9h29.3l-9.7-34.9h-29.4l-0.2-0.9h29.3l-9.7-34.9h-29.4l-0.2-0.9h29.3l-9.7-34.8h-29.3l-0.3-0.9h29.3l-9.7-34.9h-29.3l-0.3-0.9h29.3l-4.6-16.7-0.4-1.5-4.7-16.6h-29.3l-0.3-0.9h29.4l-9.8-34.9h-29.3l-0.3-0.9h29.4l-2.2-7.6h0.9l2.2 7.6h34.8l-2.1-7.6h0.9l2.1 7.6h34.9l-2.1-7.6h0.9l2.1 7.6h34.9l-2.2-7.6h0.9l2.1 7.6h34.9l-2.1-7.6h0.9l2.1 7.6h34.9l-2.2-7.6h0.9l2.2 7.6h34.8l-2.1-7.6h0.9l2.1 7.6h34.9l-2.1-7.6h0.9l2.1 7.6h8.5l0.3 0.9h-8.6l9.8 34.9h8.5l0.3 0.9h-8.6l4.7 16.6 0.4 1.5 4.7 16.7h8.5l0.3 0.9h-8.6l9.8 34.9h8.5l0.3 0.9h-8.6l9.7 34.8h8.6l0.2 0.9h-8.5l9.7 34.9h8.6l0.2 0.9h-8.5l9.7 34.9h8.6l0.2 0.9h-8.5l9.7 34.8h8.6l0.2 0.9h-8.5l4.6 16.7 0.4 1.5 4.7 16.7h8.6l0.2 0.9h-8.5l9.7 34.8h8.5l0.3 0.9h-8.6l9.8 34.9h8.5l0.3 0.9h-8.6l9.8 34.9h1.8q-0.4 0.4-0.8 0.9h-0.8l0.2 0.6q-0.3 0.3-0.7 0.7zm-224.9-37.1h-34.9l9.7 34.9h34.9zm-10-35.8h-34.8l9.7 34.9h34.9zm-10-35.8h-34.9l9.7 34.9h34.9zm-10-35.8h-34.8l4.6 16.7 0.4 1.5 4.7 16.7h34.9l-4.7-16.7-0.4-1.5zm-10-35.7h-34.9l9.8 34.8h34.8zm-10-35.7h-34.8l9.7 34.8h34.9zm-10-35.7h-34.9l9.8 34.8h34.8zm-10-35.7h-34.8l9.7 34.8h34.9zm-10-35.7h-34.9l9.8 34.8h34.8zm-10-35.7h-34.8l4.6 16.7 0.5 1.5 4.6 16.7h34.9l-4.7-16.7-0.4-1.5zm-10-35.8h-34.8l9.7 34.9h34.9zm135.6 357.6h-34.9l9.8 34.9h34.9zm-10-35.8h-34.9l9.7 34.9h34.9zm-10-35.8h-34.9l9.8 34.9h34.9zm-10-35.8h-34.9l4.7 16.7 0.4 1.5 4.6 16.7h34.9l-4.7-16.7-0.4-1.5zm-10-35.8h-34.8l9.7 34.9h34.9zm-10-35.8h-34.9l9.8 34.9h34.8zm-10-35.8h-34.8l9.7 34.9h34.9zm-10-35.7h-34.9l9.8 34.8h34.8zm-10-35.7h-34.8l9.7 34.8h34.9zm-10-35.7h-34.9l4.7 16.7 0.4 1.4 4.7 16.7h34.8l-4.6-16.7-0.5-1.4zm-9.9-35.8h-34.9l9.7 34.9h34.9zm135.7 357.6h-34.9l9.7 34.8h34.9zm-10-35.7h-34.9l9.8 34.8h34.8zm-9.9-35.7h-34.9l9.7 34.9h34.9zm-10-35.8h-34.9l4.7 16.7 0.4 1.5 4.7 16.7h34.8l-4.6-16.7-0.4-1.5zm-10-35.8h-34.9l9.7 34.9h34.9zm-10-35.8h-34.8l9.7 34.9h34.9zm-10-35.8h-34.9l9.8 34.9h34.8zm-10-35.8h-34.8l9.7 34.9h34.9zm-10-35.8h-34.9l9.8 34.9h34.8zm-10-35.7h-34.8l4.6 16.6 0.4 1.5 4.7 16.7h34.9l-4.7-16.7-0.4-1.5zm-10-35.7h-34.9l9.8 34.8h34.8zm135.7 357.7h-34.9l9.8 34.8h34.8zm-10-35.7h-34.8l9.7 34.8h34.9zm-10-35.7h-34.9l9.8 34.8h34.8zm-10-35.7h-34.8l4.6 16.7 0.5 1.5 4.6 16.6h34.9l-4.7-16.6-0.4-1.5zm-10-35.8h-34.8l9.7 34.9h34.9zm-10-35.8h-34.9l9.7 34.9h34.9zm-10-35.8h-34.8l9.7 34.9h34.9zm-10-35.8h-34.9l9.7 34.9h34.9zm-10-35.8h-34.8l9.7 34.9h34.9zm-10-35.8h-34.9l4.7 16.7 0.4 1.5 4.6 16.7h34.9l-4.7-16.7-0.4-1.5zm-10-35.7h-34.8l9.7 34.8h34.9zm135.6 357.6h-34.8l9.7 34.9h34.9zm-10-35.8h-34.9l9.8 34.9h34.8zm-10-35.7h-34.8l9.7 34.8h34.9zm-10-35.7h-34.9l4.7 16.6 0.4 1.5 4.7 16.7h34.8l-4.6-16.7-0.5-1.5zm-9.9-35.7h-34.9l9.7 34.9h34.9zm-10-35.8h-34.9l9.8 34.9h34.8zm-9.9-35.8h-34.9l9.7 34.9h34.9zm-10-35.8h-34.9l9.8 34.9h34.9zm-10-35.8h-34.9l9.7 34.9h34.9zm-10-35.8h-34.9l4.7 16.7 0.4 1.5 4.7 16.7h34.9l-4.7-16.7-0.4-1.5zm-10-35.8h-34.9l9.8 34.9h34.8zm135.7 357.6h-34.9l9.7 34.9h34.9zm-10-35.8h-34.8l9.7 34.9h34.9zm-10-35.8h-34.9l9.7 34.9h34.9zm-10-35.8h-34.8l4.6 16.7 0.4 1.5 4.7 16.7h34.9l-4.7-16.7-0.4-1.5zm-10-35.7h-34.9l9.8 34.8h34.8zm-9.9-35.7h-34.9l9.7 34.8h34.9zm-10-35.7h-34.9l9.8 34.9h34.8zm-9.9-35.8h-34.9l9.7 34.9h34.9zm-10-35.8h-34.9l9.8 34.9h34.8zm-9.9-35.8h-34.9l4.6 16.7 0.5 1.5 4.6 16.7h34.9l-4.7-16.7-0.4-1.5zm-10-35.8h-34.8l9.7 34.9h34.9zm10.6 34.9h34.9l-9.8-34.9h-34.8zm9.9 35.8h34.9l-4.6-16.7-0.5-1.5-4.6-16.7h-34.9l4.7 16.7 0.4 1.5zm10 35.7h34.8l-9.7-34.8h-34.9zm10 35.7h34.9l-9.7-34.8h-34.9zm10 35.7h34.8l-9.7-34.8h-34.9zm10 35.7h34.9l-9.7-34.9h-34.9zm10 35.8h34.8l-9.7-34.9h-34.9zm10 35.8h34.9l-4.7-16.7-0.4-1.5-4.6-16.7h-34.9l4.6 16.7 0.5 1.5zm10 35.8h34.8l-9.7-34.9h-34.9zm10 35.8h34.9l-9.8-34.9h-34.8zm44.8 35.8l-9.7-34.9h-34.9l9.7 34.9z"/>
					</g>
					<g id="&lt;Group&gt;">
						<path id="&lt;Path&gt;" class="s35" d="m508.5 1217.5c1.2 4.3-1.3 7.7-5.5 7.7-4.2 0-8.6-3.4-9.8-7.7-1.2-4.2 1.3-7.6 5.5-7.6 4.3 0 8.6 3.4 9.8 7.6z"/>
						<g id="&lt;Group&gt;">
							<path id="&lt;Path&gt;" class="s36" d="m496.2 1216.7l-0.1-0.2c-0.6-2.4 0.4-4.3 2.6-4.9 6.7-1.8 10.1-8.7 7.4-16.7-2.8-7.8-11-14.2-19-14.8-9.5-0.6-15.2 6.8-12.7 16h-10.2c-4.2-15.1 5.3-27.3 20.9-26.2 13.1 1 26.4 11.4 30.9 24.2 4.7 13.2-1 24.5-12.3 27.5-2.9 0.7-6.6-1.7-7.5-4.9z"/>
						</g>
						<g id="&lt;Group&gt;">
							<path id="&lt;Path&gt;" class="s34" d="m503.7 1221.6c-2.9 0.7-6.6-1.7-7.5-4.9l-0.1-0.2q-0.3-1.1-0.1-2c0.9 0.3 1.8 0.3 2.6 0.1 11.3-2.9 16.9-14.3 12.3-27.5q-1-2.7-2.5-5.3c3.3 3.6 6 7.8 7.6 12.3 4.7 13.2-1 24.5-12.3 27.5z"/>
						</g>
						<path id="&lt;Path&gt;" class="s34" d="m474.4 1196.1h-7.2c-1.4-3.6-0.1-14.3 7.2-18.3 12.7-6.8 25 2.4 28.4 11.3-3.8-5-9.8-8.6-15.7-9-9.5-0.6-15.2 6.8-12.7 16z"/>
					</g>
					<g id="&lt;Group&gt;">
						<path id="&lt;Path&gt;" class="s35" d="m561.9 1217.5c1.2 4.3-1.3 7.7-5.5 7.7-4.2 0-8.6-3.4-9.8-7.7-1.2-4.2 1.3-7.6 5.5-7.6 4.2 0 8.6 3.4 9.8 7.6z"/>
						<g id="&lt;Group&gt;">
							<path id="&lt;Path&gt;" class="s36" d="m549.5 1216.7v-0.2c-0.7-2.4 0.4-4.3 2.5-4.9 6.8-1.8 10.2-8.7 7.4-16.7-2.7-7.8-10.9-14.2-18.9-14.8-9.5-0.6-15.3 6.8-12.7 16h-10.2c-4.2-15.1 5.2-27.3 20.9-26.2 13.1 1 26.3 11.4 30.9 24.2 4.7 13.2-1 24.5-12.3 27.5-2.9 0.7-6.6-1.7-7.6-4.9z"/>
						</g>
						<g id="&lt;Group&gt;">
							<path id="&lt;Path&gt;" class="s34" d="m557.1 1221.6c-2.9 0.7-6.6-1.7-7.6-4.9v-0.2q-0.3-1.1-0.1-2c0.8 0.3 1.7 0.3 2.6 0.1 11.2-2.9 16.9-14.3 12.2-27.5q-1-2.7-2.4-5.3c3.3 3.6 6 7.8 7.6 12.3 4.7 13.2-1 24.5-12.3 27.5z"/>
						</g>
						<path id="&lt;Path&gt;" class="s34" d="m527.8 1196.1h-7.3c-1.4-3.6 0-14.3 7.3-18.3 12.7-6.8 25 2.4 28.4 11.3-3.9-5-9.8-8.6-15.7-9-9.5-0.6-15.3 6.8-12.7 16z"/>
					</g>
					<g id="&lt;Group&gt;">
						<path id="&lt;Path&gt;" class="s35" d="m615.3 1217.5c1.1 4.3-1.3 7.7-5.6 7.7-4.2 0-8.6-3.4-9.7-7.7-1.2-4.2 1.2-7.6 5.5-7.6 4.2 0 8.6 3.4 9.8 7.6z"/>
						<g id="&lt;Group&gt;">
							<path id="&lt;Path&gt;" class="s36" d="m602.9 1216.7v-0.2c-0.7-2.4 0.4-4.3 2.5-4.9 6.8-1.8 10.2-8.7 7.4-16.7-2.8-7.8-10.9-14.2-18.9-14.8-9.6-0.6-15.3 6.8-12.7 16h-10.2c-4.3-15.1 5.2-27.3 20.9-26.2 13.1 1 26.3 11.4 30.8 24.2 4.7 13.2-0.9 24.5-12.2 27.5-3 0.7-6.7-1.7-7.6-4.9z"/>
						</g>
						<g id="&lt;Group&gt;">
							<path id="&lt;Path&gt;" class="s34" d="m610.5 1221.6c-3 0.7-6.7-1.7-7.6-4.9v-0.2q-0.3-1.1-0.2-2c0.9 0.3 1.8 0.3 2.6 0.1 11.3-2.9 17-14.3 12.3-27.5q-1-2.7-2.5-5.3c3.4 3.6 6.1 7.8 7.6 12.3 4.7 13.2-0.9 24.5-12.2 27.5z"/>
						</g>
						<path id="&lt;Path&gt;" class="s34" d="m581.2 1196.1h-7.3c-1.4-3.6-0.1-14.3 7.3-18.3 12.6-6.8 25 2.4 28.4 11.3-3.9-5-9.8-8.6-15.7-9-9.6-0.6-15.3 6.8-12.7 16z"/>
					</g>
					<g id="&lt;Group&gt;">
						<path id="&lt;Path&gt;" class="s35" d="m668.6 1217.5c1.2 4.3-1.3 7.7-5.5 7.7-4.2 0-8.6-3.4-9.8-7.7-1.2-4.2 1.3-7.6 5.5-7.6 4.3 0 8.7 3.4 9.8 7.6z"/>
						<g id="&lt;Group&gt;">
							<path id="&lt;Path&gt;" class="s36" d="m656.3 1216.7l-0.1-0.2c-0.6-2.4 0.5-4.3 2.6-4.9 6.7-1.8 10.1-8.7 7.4-16.7-2.8-7.8-10.9-14.2-19-14.8-9.5-0.6-15.2 6.8-12.6 16h-10.3c-4.2-15.1 5.3-27.3 20.9-26.2 13.1 1 26.4 11.4 30.9 24.2 4.7 13.2-1 24.5-12.3 27.5-2.9 0.7-6.6-1.7-7.5-4.9z"/>
						</g>
						<g id="&lt;Group&gt;">
							<path id="&lt;Path&gt;" class="s34" d="m663.8 1221.6c-2.9 0.7-6.6-1.7-7.5-4.9l-0.1-0.2q-0.2-1.1-0.1-2c0.9 0.3 1.8 0.3 2.6 0.1 11.3-2.9 16.9-14.3 12.3-27.5q-1-2.7-2.5-5.3c3.4 3.6 6 7.8 7.6 12.3 4.7 13.2-1 24.5-12.3 27.5z"/>
						</g>
						<path id="&lt;Path&gt;" class="s34" d="m634.6 1196.1h-7.3c-1.4-3.6-0.1-14.3 7.3-18.3 12.6-6.8 24.9 2.4 28.3 11.3-3.8-5-9.8-8.6-15.7-9-9.5-0.6-15.2 6.8-12.6 16z"/>
					</g>
					<g id="&lt;Group&gt;">
						<path id="&lt;Path&gt;" class="s35" d="m722 1217.5c1.2 4.3-1.3 7.7-5.5 7.7-4.2 0-8.6-3.4-9.8-7.7-1.2-4.2 1.3-7.6 5.5-7.6 4.2 0 8.6 3.4 9.8 7.6z"/>
						<g id="&lt;Group&gt;">
							<path id="&lt;Path&gt;" class="s36" d="m709.7 1216.7l-0.1-0.2c-0.7-2.4 0.4-4.3 2.5-4.9 6.8-1.8 10.2-8.7 7.4-16.7-2.7-7.8-10.9-14.2-18.9-14.8-9.5-0.6-15.2 6.8-12.7 16h-10.2c-4.2-15.1 5.2-27.3 20.9-26.2 13.1 1 26.3 11.4 30.9 24.2 4.7 13.2-1 24.5-12.3 27.5-2.9 0.7-6.6-1.7-7.5-4.9z"/>
						</g>
						<g id="&lt;Group&gt;">
							<path id="&lt;Path&gt;" class="s34" d="m717.2 1221.6c-2.9 0.7-6.6-1.7-7.5-4.9l-0.1-0.2q-0.3-1.1-0.1-2c0.8 0.3 1.7 0.3 2.6 0.1 11.2-2.9 16.9-14.3 12.2-27.5q-0.9-2.7-2.4-5.3c3.3 3.6 6 7.8 7.6 12.3 4.7 13.2-1 24.5-12.3 27.5z"/>
						</g>
						<path id="&lt;Path&gt;" class="s34" d="m687.9 1196.1h-7.2c-1.5-3.6-0.1-14.3 7.2-18.3 12.7-6.8 25 2.4 28.4 11.3-3.8-5-9.8-8.6-15.7-9-9.5-0.6-15.2 6.8-12.7 16z"/>
					</g>
				</g>
				<g id="&lt;Group&gt;">
					<path id="&lt;Path&gt;" class="s37" d="m848.6 1302.1c-16.7 7.1-56.4-6.4-62.3-16.6-5.9-10.1 26.5-11.2 41.7-19.7 15.2-8.4 37.4-76.4 37.4-76.4 31.3-8.7 12.6 100.4-16.8 112.7z"/>
					<path id="&lt;Path&gt;" class="s6" d="m848.6 1302.1c-2.3 1-5.2 1.6-8.4 1.8l19.3-67.3 11.4 34.7c-5.8 15.1-13.6 27.2-22.3 30.8z"/>
					<path id="&lt;Path&gt;" class="s10" d="m903.1 1169.2c0 0 6.7-6.1 14.4-5.8 7.8 0.4 13.3 3.6 13.3 3.6 0 0-14.4 11-18 9.6-3.6-1.5-9.7-7.4-9.7-7.4z"/>
					<g id="&lt;Group&gt;">
						<path id="&lt;Path&gt;" class="s6" d="m910 1610.2c-6.3 3.3-44 2.5-43.5-1.1 0.4-2.2 8.4-6.2 14.8-9.3 4.1-1.7 7.1-2.8 8.1-4.3 2.4-3.6 1.6-8.4 1.6-8.4l13.7 0.4c0.2 3.7 0.9 8.2 3.5 12.3 2.9 4.6 5.1 8.6 1.8 10.4z"/>
						<path id="&lt;Path&gt;" class="s14" d="m925.9 1297.7c16.9 11.5-28.4 102-31.8 136.6-3.8 38.9 25.5 136.9 17.6 152.8-3.1 6.3-14.5 4.8-22.6 2.6-28.5-7.8-39.4-114.2-40.4-159.9-1.1-48.8 23.9-138.8 23.9-138.8 0 0 36.3-4.8 53.3 6.7z"/>
						<path id="&lt;Path&gt;" class="s6" d="m959.4 1610.9c-6.7 3.8-47 4.2-46.5 0.3 0.2-2.4 8.7-6.9 15.5-10.5 4.3-1.8 7.4-3.1 8.5-4.8 2.4-4 1.4-9 1.4-9h14.6c0.4 3.9 1.2 8.7 4.2 13 3.3 4.8 5.8 9 2.3 11z"/>
						<path id="&lt;Path&gt;" class="s14" d="m956.8 1292.5c0 0 13.9 17 16 27.8 10.6 56.6-8.1 107.6-13.6 156.6-2.7 24.5 8.9 102.3 1.9 108.5-11.7 10.5-18.9 6.4-26.4 5-16.9-3.2-24.7-218.1-24.7-240 0-21.9 2-53.8 2-53.8z"/>
					</g>
					<path id="&lt;Path&gt;" class="s3" d="m850.6 1344.8c-6.3-10.4 4.4-37 7.5-72.8 3-35.2-1.6-79.7 11-90.3 20.5-17.3 73.9-8.8 98.4 5.9 25.5 15.2 10.4 53.2 13.3 84.5 4.1 45.5 14.3 83-18.8 96.7-21.8 9-97.4-1.2-111.4-24z"/>
					<path id="&lt;Path&gt;" class="s37" d="m959.5 1369.7c1.4-9.4 3.3-23.9 2.8-32.1-0.7-12.9-3.7-82.1-2.5-104.8 0.9-16.2-1.7-38.9-3.2-50.6 4 1.6 7.7 3.5 10.9 5.4 25.5 15.2 10.4 53.2 13.3 84.5 4.1 45.5 14.3 83-18.8 96.7q-1.2 0.5-2.5 0.9z"/>
					<g id="&lt;Group&gt;">
						<path id="&lt;Path&gt;" class="s37" d="m958.4 1194.5c1.3-0.1 2.5 0.8 2.7 2.1 0 0.1 0.2 1.6 0.4 4.2 0.1 1.3-0.9 2.4-2.2 2.6q-0.1 0-0.2 0c-1.2 0-2.3-1-2.4-2.2-0.2-2.5-0.4-4-0.4-4-0.1-1.3 0.8-2.5 2.1-2.7z"/>
						<path id="&lt;Path&gt;" class="s37" d="m956.3 1242.1c0.2-1.3 1.4-2.2 2.7-2 1.3 0.1 2.2 1.3 2.1 2.6-0.4 2.9-0.9 5.8-1.4 8.4-0.2 1.1-1.2 1.9-2.3 1.9q-0.3 0-0.5 0c-1.3-0.3-2.1-1.6-1.9-2.8 0.5-2.6 1-5.3 1.3-8.1z"/>
						<path id="&lt;Path&gt;" class="s37" d="m962.3 1217.5c0.1 1.4-1 2.4-2.3 2.5q0 0 0 0c-1.4 0-2.4-1.1-2.4-2.4-0.1-2.7-0.2-5.5-0.3-8.2-0.1-1.3 0.9-2.5 2.3-2.5 1.3-0.1 2.4 0.9 2.5 2.2 0.1 2.8 0.2 5.7 0.2 8.4z"/>
						<path id="&lt;Path&gt;" class="s37" d="m951.2 1289.1c1.4-0.1 2.4 1 2.5 2.3 0 2.6 0.2 5.3 0.3 8.2 0.1 1.3-0.9 2.4-2.2 2.5q-0.1 0-0.2 0c-1.2 0-2.3-0.9-2.3-2.2-0.2-2.9-0.3-5.7-0.4-8.4 0-1.3 1-2.4 2.3-2.4z"/>
						<path id="&lt;Path&gt;" class="s37" d="m959.5 1236.6q-0.1 0-0.2-0.1c-1.3 0-2.3-1.2-2.2-2.5 0.2-2.6 0.4-5.4 0.4-8.2 0.1-1.3 1.2-2.4 2.5-2.3 1.3 0 2.3 1.1 2.3 2.4-0.1 2.9-0.2 5.7-0.4 8.4-0.1 1.3-1.1 2.3-2.4 2.3z"/>
						<path id="&lt;Path&gt;" class="s37" d="m952.3 1260.3q0.4-1.1 0.8-2.3c0.4-1.3 1.7-2 3-1.6 1.2 0.4 1.9 1.7 1.6 3q-0.4 1.3-0.8 2.5-0.9 2.4-1.5 5.3c-0.2 1.1-1.2 1.8-2.3 1.8q-0.3 0-0.5 0c-1.3-0.3-2.1-1.6-1.9-2.9q0.7-3.1 1.6-5.8z"/>
						<path id="&lt;Path&gt;" class="s37" d="m951.3 1285.5q0 0-0.1 0c-1.3 0-2.3-1.1-2.3-2.4 0.1-3 0.3-5.9 0.5-8.5 0.2-1.3 1.3-2.2 2.6-2.1 1.4 0.1 2.3 1.3 2.2 2.6-0.3 2.5-0.4 5.2-0.5 8.1-0.1 1.3-1.1 2.3-2.4 2.3z"/>
						<path id="&lt;Path&gt;" class="s37" d="m952.7 1333.1q-0.5-4-1-8.3c-0.2-1.3 0.7-2.5 2-2.6 1.4-0.2 2.5 0.8 2.7 2.1q0.5 4.2 1 8.2c0.2 1.3-0.7 2.5-2 2.7q-0.2 0-0.3 0c-1.2 0-2.3-0.9-2.4-2.1z"/>
						<path id="&lt;Path&gt;" class="s37" d="m957.3 1355.2c1.3 0.1 2.4 1.2 2.3 2.5-0.1 3.1-0.4 6-0.9 8.6-0.2 1.2-1.2 1.9-2.3 1.9q-0.3 0-0.5 0c-1.3-0.3-2.1-1.5-1.9-2.8 0.5-2.4 0.8-5 0.9-7.9 0-1.3 1.1-2.3 2.4-2.3z"/>
						<path id="&lt;Path&gt;" class="s37" d="m950.7 1316.6c-0.3-3-0.6-5.7-0.8-8.4-0.1-1.3 0.8-2.4 2.2-2.6 1.3-0.1 2.4 0.9 2.5 2.2 0.3 2.6 0.5 5.3 0.9 8.2 0.1 1.4-0.9 2.5-2.2 2.7q-0.1 0-0.2 0c-1.2 0-2.3-0.9-2.4-2.1z"/>
						<path id="&lt;Path&gt;" class="s37" d="m955.8 1338.7c1.3-0.2 2.5 0.7 2.7 2.1 0.4 3.4 0.6 6.1 0.8 8.3 0.2 1.3-0.8 2.5-2.1 2.6q-0.1 0-0.2 0c-1.3 0-2.3-0.9-2.4-2.2-0.2-2.2-0.5-4.8-0.9-8.2-0.2-1.3 0.8-2.5 2.1-2.6z"/>
					</g>
					<path id="&lt;Path&gt;" class="s6" d="m966.1 1244.8c0 0-9.7 35.9-42.2 65.6-22.4 20.4-56.2 24.5-75.3 25 0.1-8.1 2.6-19.5 5.2-33.4 32.3-6.6 81.9-22.1 112.3-57.2z"/>
					<g id="&lt;Group&gt;">
						<path id="&lt;Path&gt;" class="s6" d="m903.5 1144.4c0 0-7.7-7.1-1.1-13.3 9.9-9.2 22.9 4.5 24.4 9.1 2.3 6.8-0.7 18.1-0.7 18.1 0 0-20.7-5.8-22.6-13.9z"/>
						<path id="&lt;Path&gt;" class="s5" d="m923.1 1150.9l9.1 22.9c0.2 3.3-17 13.2-22.4 9.4-1.6-1.2-1.3-4.3-0.1-7.8l7.6-19z"/>
						<path id="&lt;Path&gt;" class="s6" d="m915.8 1160.2c3.6-0.8 8.4-2 8.4-2 0 0 0 5.8-4.8 10.4-2.6 2.4-5.6 3.6-8.6 4z"/>
						<path id="&lt;Path&gt;" class="s5" d="m918 1143.4l5.8 12.4c1.5 4.3-0.6 9-4.8 10.7-3.3 1.3-5.6 1.6-10.1 1.6-3.7-0.1-6-3.4-6.6-8.2-0.7-6.3 0.4-12.3 1.2-15.5 1.8-7.2 10.2-8.8 14.5-1z"/>
						<path id="&lt;Path&gt;" class="s6" d="m919 1166.5c-3.3 1.3-5.6 1.6-10.1 1.6-3.7-0.1-6-3.4-6.6-8.2-0.2-2-0.2-4-0.2-5.8 2.3-1.3 3.8-1.7 6.6-2 4.3-0.3 6.5 2.7 8 0 0.6-1 0.1-8.6-0.4-11.1 0.6 0.6 1.6 0.6 2.1 1.6l5.4 13.2c1.5 4.3-0.6 9-4.8 10.7z"/>
						<path id="&lt;Path&gt;" class="s10" d="m906.1 1158.4c-1.9-0.8-2.1-3.6-2.1-3.6 4.4 0 7.4-1.1 7.4-1.1-0.6 3.5-3.5 5.5-5.3 4.7z"/>
						<g id="&lt;Group&gt;">
							<path id="&lt;Path&gt;" class="s14" d="m907.2 1163.4c4.1-1.3 7.9 4.6 14.6-2.2 1.2-1.3 1.6-4 1.8-5.6l0.2 0.2c1.5 4.3-0.6 9-4.8 10.7-3.3 1.3-5.6 1.6-10.1 1.6-2.3-0.1-4-1.3-5.1-3.4 0.7 0.1 2.2-0.9 3.4-1.3z"/>
						</g>
						<path id="&lt;Path&gt;" class="s5" d="m918.3 1148.7c0.1-0.9 0-1.7-0.1-2.6-0.1-1.6 0-4 2.5-3.1 3.6 1.3 4.5 9.1 0.7 10.2-2.9 0.8-3.3-2.4-3.1-4.5z"/>
					</g>
					<g id="&lt;Group&gt;">
						<path id="&lt;Path&gt;" class="s10" d="m903.9 1231.2q0 0 0 0c-1.2-0.5-1.8-1.9-1.3-3.1 0-0.1 4-9.8 6.6-21.6 2.4-11.2-1.9-19.1-2-19.2-0.6-1.1-0.2-2.6 0.9-3.2 1.2-0.7 2.6-0.3 3.3 0.9 0.2 0.4 5.3 9.6 2.4 22.5-2.7 12.3-6.6 22-6.8 22.4-0.5 1.2-1.9 1.8-3.1 1.3z"/>
					</g>
					<path id="&lt;Path&gt;" class="s6" d="m910.1 1191.2l19.3-16.8c7.6 1.4 14.9 3.3 21.5 5.6-14.2 15.3-40.8 11.2-40.8 11.2z"/>
					<path id="&lt;Path&gt;" class="s10" d="m912.8 1175c0 0 12.7-3.9 15-7.6 0.4-0.7 0.6-3.3 0.6-3.3 0 0 12-0.7 14.8 6.2 3.3 8.3-17.9 29.9-39.4 18.8-6.6-3.4-7.3-12.8-0.7-19.9 1.8-1.9 7 0.4 7.5 1.7 0.3 0.7 2.2 4.1 2.2 4.1z"/>
					<g id="&lt;Group&gt;">
						<path id="&lt;Path&gt;" class="s10" d="m892.1 1227c0-0.4-0.1-10.9 1.9-23.3 2.2-13.1 10.3-19.8 10.7-20 1-0.9 2.5-0.7 3.3 0.3 0.8 1.1 0.7 2.6-0.4 3.4 0 0.1-7 5.8-8.8 17.1-2 11.9-1.9 22.3-1.9 22.4 0 1.4-1.1 2.5-2.4 2.5q0 0 0 0c-1.3 0-2.4-1.1-2.4-2.4z"/>
					</g>
					<g id="&lt;Group&gt;">
						<path id="&lt;Path&gt;" class="s38" d="m709.9 1464l10.3 4-5.7 5.4c-1.4 1.4-3.8 0.4-4-1.5z"/>
						<path id="&lt;Path&gt;" class="s6" d="m729 1385.5c-0.3-0.5-0.7-0.9-1.2-1.2-1.2-0.4-1.8-1.8-1.3-2.9l114.5-290.9c2.8-7.1 10.7-10.6 17.9-7.9l3.5 1.4 3.6 1.4c7.1 2.8 10.7 10.7 7.9 17.8l-110.4 292.4c-0.5 1.2-1.8 1.8-3 1.4-0.6-0.2-1.1-0.2-1.6 0-18.8-1.3-29.9-11.5-29.9-11.5z"/>
						<path id="&lt;Path&gt;" class="s13" d="m749.7 1422.9c0.2 4.5-0.3 12.9-5.7 21.1-7.9 12-23.8 24-23.8 24l-10.3-4c0 0-3.7-19.5-1.5-33.8 1.5-9.6 6.7-16.2 10-19.4 1.9-2 3.3-4.3 4.3-6.8l6.4-16.7c0.3-0.6 0.2-1.3-0.1-1.8 0 0 11.1 10.2 29.9 11.5-0.7 0.2-1.2 0.6-1.4 1.3l-6.4 16.6c-1 2.6-1.5 5.3-1.4 8z"/>
						<path id="&lt;Path&gt;" class="s13" d="m835.4 1214.7l-40.7-15.7 46.4-117.6c3.2-8.5 12.7-12.7 21.1-9.4l4.3 1.6 4.2 1.7c8.4 3.2 12.6 12.7 9.4 21.1z"/>
						<path id="&lt;Path&gt;" class="s39" d="m835.4 1214.7l-13.1-5.1 42.4-109.8c2.7-7 4.3-14.4 4.7-21.8l0.2-3.2 1.1 0.5c8.4 3.2 12.6 12.7 9.4 21.1z"/>
						<path id="&lt;Path&gt;" class="s6" d="m779 1188.4l33.7-80.5c2.6-6.3 7.5-11.1 13.8-13.7l21.6-8.9c2.3-0.9 4.9 0.2 5.8 2.4 0.9 2.3-0.2 4.9-2.4 5.8l-21.6 8.9c-4.1 1.6-7.3 4.8-9.1 8.9l-33.6 80.5c-1 2.2-3.6 3.3-5.8 2.4-2.3-1-3.3-3.6-2.4-5.8z"/>
						<path id="&lt;Path&gt;" class="s39" d="m749.7 1422.9c0.2 4.5-0.3 12.9-5.7 21.1-7.9 12-23.8 24-23.8 24l-10.3-4c0 0-0.2-1.2-0.5-3.1 5.5-1.2 13.9-3.9 17.1-9.1 4.9-8 16.8-32.7 20-42.8 1-3.1 3-7.9 5.4-12.9q3.3 0.6 7 0.9c-0.7 0.2-1.2 0.6-1.4 1.3l-6.4 16.6c-1 2.6-1.5 5.3-1.4 8z"/>
					</g>
					<g id="&lt;Group&gt;">
						<g id="&lt;Group&gt;">
							<path id="&lt;Path&gt;" class="s3" d="m921.4 1304.3c-38.1 26.2-103.5 22.7-123.6 4.5-4.6-4.2-8.8-13.7-7.5-18.6 3-10.6 73.8-1.5 102.8-22.1 21.5-15.3 50.2-85.4 72.1-78.2 26.2 8.7-4.1 87.1-43.8 114.4z"/>
							<path id="&lt;Path&gt;" class="s37" d="m921.4 1304.3c-38.1 26.2-103.5 22.7-123.6 4.5-2.4-2.2-4.8-5.9-6.2-9.7 2.2-0.7 5.8-0.9 11.8 0.5 14 3.4 21.4 11.9 44.1 10.6 22.8-1.4 37.6-21.8 58.9-24.2 21.2-2.5 34.8-24.1 39.7-40.5 4.8-16.4 14.5-28.2 18.8-32.8 3-3.3 4.6-13.9 5.2-19.8 16.8 16.9-11.9 86.1-48.7 111.4z"/>
						</g>
						<path id="&lt;Path&gt;" class="s5" d="m797.7 1298.2c-0.5 1-1.2 2-2.2 2.9-4.3 3.4-18.1-0.2-23.1-3.5-2.1-1.5-2.9-3.3-3.2-4.9-0.2-1.5-0.3-4.6 2.4-3.9 10.1 2.5 12.6 2.6 13.1 1.2 0.3-0.8-1.5-1.4-2.6-2.5-4.3-3.8-3.6-5.7-1.2-4.4 6.2 3.6 11.3 3.3 14.7 6.3 2.5 2.2 3.5 5.8 2.1 8.8z"/>
					</g>
				</g>
			</g>
			<g id="&lt;Group&gt;">
				<path id="&lt;Mesh&gt;" class="s40" d="m189.7 1677.6c37.1 0.5 95.3 1.4 160.2 2.4q0.1 0 0.2 0c-0.1 5.7-0.2 11.2-0.3 16.1q-0.1 0-0.2 0c-56.3-0.8-105.7-4.5-134.2-9.4-16.3-2.8-25.7-5.9-25.7-9.1zm25.9-8.5c28.7-4 78.2-6.1 134.5-5.3q0.1 0 0.2 0c-0.1 5.4-0.1 10.8-0.2 16.2q-0.1 0-0.2 0c-64.9-1-123.1-1.9-160.2-2.4q0-0.1 0-0.1c0-3.2 9.6-6.1 25.9-8.4zm134.5 10.9c64.8 1 122.8 1.9 160 2.5-0.1 3.2-9.6 6.1-26 8.3-28.6 4-78.1 6.2-134.3 5.3 0.1-4.9 0.2-10.4 0.3-16.1zm0.2-16.2c56.2 0.9 105.6 4.6 134.1 9.4 16.3 2.8 25.7 6 25.7 9.2q0 0.1 0 0.1c-37.2-0.6-95.2-1.5-160-2.5 0.1-5.4 0.1-10.8 0.2-16.2z"/>
				<g id="&lt;Group&gt;">
					<g id="&lt;Group&gt;">
						<path id="&lt;Path&gt;" class="s5" d="m406 1648.5c-3.3 3.1-17 21-21.8 21.5-2.6 0.3-4.8 0-6.2-0.3 3.1-2.4 6.4-8.2 9.5-14.4 1.1-2.2 2.4-4.9 3.1-8.2 2.2-8.9 2.2-10.1 3-16.5l17.6-0.7 0.9 14.3c0 0 0.4 0.8 0.8 2.2-1.9-0.1-4.8 0.2-6.9 2.1z"/>
						<path id="&lt;Path&gt;" class="s10" d="m365.5 1676.5c1.8-1.7 5-3.7 10.8-5.8q0.8-0.3 1.7-1c1.4 0.3 3.6 0.6 6.2 0.3 4.8-0.5 18.5-18.4 21.8-21.5 2.1-1.9 5-2.2 6.9-2.1 1.1 2.9 2.6 8.2 1.8 11.6-1.2 4.8-4.1 18.7-3.6 23h-6l-0.1-15.5c0 0-4.5 2.5-7 5.1-0.9 1-1.7 2.8-2.5 4.5-1.5 3.6-5.1 6-9 6h-19c-2.5 0-3.7-3-2-4.6z"/>
					</g>
					<g id="&lt;Group&gt;">
						<path id="&lt;Path&gt;" class="s5" d="m302.3 1648.5c-3.4 3.1-17.1 21-21.9 21.5-2.6 0.3-4.8 0-6.2-0.3 3.1-2.4 6.4-8.2 9.5-14.4 1.1-2.2 2.4-4.9 3.2-8.2 2.1-8.9 2.2-10.1 2.9-16.5l17.6-0.7 0.9 14.3c0 0 0.4 0.8 0.8 2.2-1.9-0.1-4.8 0.2-6.8 2.1z"/>
						<path id="&lt;Path&gt;" class="s10" d="m261.7 1676.5c1.8-1.7 5.1-3.7 10.8-5.8q0.8-0.3 1.7-1c1.4 0.3 3.6 0.6 6.2 0.3 4.8-0.5 18.5-18.4 21.9-21.5 2-1.9 4.9-2.2 6.8-2.1 1.1 2.9 2.6 8.2 1.8 11.6-1.2 4.8-4 18.7-3.5 23h-6.1v-15.5c0 0-4.6 2.5-7 5.1-0.9 1-1.8 2.8-2.5 4.5-1.6 3.6-5.2 6-9.1 6h-19c-2.5 0-3.7-3-2-4.6z"/>
					</g>
					<path id="&lt;Path&gt;" class="s11" d="m359.8 1238.2c0 5.7-47.4 28.7-46.4 31.1 0.8 2 46.1-12.7 46.1-12.7 0 0 29 8.4 4 30.2-16.8 14.6-80.4 27.2-86.7-2-5.1-23.9 44.4-44.1 76.7-51.5 3-0.7 6.3-0.8 6.3 4.9z"/>
					<path id="&lt;Path&gt;" class="s11" d="m353.5 1233.3c0 0 6.2-8 9.4-7 3.3 0.9-1.7 10.1-5.1 10.6-3.3 0.5-4.3-3.6-4.3-3.6z"/>
					<g id="&lt;Group&gt;">
						<path id="&lt;Path&gt;" class="s14" d="m373 1226.9l-7.9 18.7c-0.4 1-1.4 1.4-2.3 1l-7.6-1.3c-0.9-0.3-1.3-1.4-1-2.3l7.9-18.7c0.4-1 1.4-1.4 2.3-1l7.6 1.3c0.9 0.3 1.3 1.4 1 2.3z"/>
					</g>
					<path id="&lt;Path&gt;" class="s14" d="m353.4 1293c-7 3.2-15.9 6-25.1 7.7-0.3-11 21.5-33.9 21.5-33.9 0 0 2.1 14.5 3.6 26.2z"/>
					<path id="&lt;Path&gt;" class="s10" d="m334.1 1346.3c7.3-22.9 8.6-29.1 10.9-40.5 2.5-12.4-8.9-16.8-3-29 1.6-3.5 8.7-10.3 9.7-12.9 4.7-12.8 34.4-14.5 50.3-4.6 11.1 6.9-1.7 41 1.4 48.5 3.7 9 12.4 20.5 20.3 37.5-15.1 2.7-59.7 9.5-89.6 1z"/>
					<g id="&lt;Group&gt;">
						<path id="&lt;Path&gt;" class="s5" d="m375.6 1273.1c-9.9 0.5-18.9-0.3-17.4-6.2 1-3.9 6.3-9.7 9.8-13.2 7.4-1.3 16-1.1 23.9 1.3-1.6 3.9-7.9 17.6-16.3 18.1z"/>
					</g>
					<path id="&lt;Path&gt;" class="s6" d="m295.4 1491c10.1-89 38.5-144 38.7-144.7 29.9 8.5 74.5 1.7 89.6-1 2.5 5.6 5 11.6 7.2 18.4 11.9 36.7-9.5 100.6-1.8 149.5 7.2 45-14.5 118.5-18.7 124-0.8 0.6-12.4 10.8-18.2-0.2-8.9-16.5-24-122.2-28.5-216.3-10.2 36.2-24.2 174.2-50.3 216-4.3 7-21.4 5-27.6 4.6-14.5-0.9 4.5-105.7 9.6-150.3z"/>
					<path id="&lt;Path&gt;" class="s14" d="m429.1 1513.2c7.2 45-14.5 118.5-18.7 124-0.8 0.6-12.4 10.8-18.2-0.2-2.9-5.4-6.5-20.2-10.1-41 9.9-20.4 26.6-57.4 29-81.1 3.4-34.1-18.6-85.9-24.8-121.8-2.4-13.9-0.3-29.6 3.2-43.4 14.6-1.1 27.4-3.1 34.2-4.4 2.5 5.6 5 11.6 7.2 18.4 11.9 36.7-9.5 100.6-1.8 149.5z"/>
					<g id="&lt;Group&gt;">
						<path id="&lt;Path&gt;" class="s6" d="m367.1 1232.1c0 0-3.4-8.2 2.4-14.5 5.9-6.3 15.5-4.8 20.5 3.8 3.3 5.7 4.4 22.2-7.2 23.4-11.7 1.2-15.7-12.7-15.7-12.7z"/>
						<path id="&lt;Path&gt;" class="s5" d="m368.5 1235.9c-2.8-0.5-2.9-6.4-0.5-7.5 1.7-0.8 1.9 0.9 1.9 2q-0.1 0.9 0.1 1.7c0.2 1.5 0.5 4.2-1.5 3.8z"/>
						<path id="&lt;Path&gt;" class="s5" d="m384.1 1238.3l0.9 17c0.1 2.8-6.5 10.3-11.1 6.9-1.3-1 0.2-4.9 1.3-7.9l2.8-14.8z"/>
						<path id="&lt;Path&gt;" class="s6" d="m370.4 1226.1c2.2-0.2-4 22.6-4 22.6 0 0-0.8-1.3-1.3-4.8-0.8-6.7 3.1-16.7 3.1-16.7 0 0 0-0.9 2.2-1.1z"/>
						<path id="&lt;Path&gt;" class="s6" d="m377.6 1241.6l5.9-0.2c0 0-3.5 5.7-7.1 6.9z"/>
						<path id="&lt;Path&gt;" class="s5" d="m383.7 1227.3l1.3 6.5c1 5.2-2.1 10.5-7.3 11.6-4.7 1-9.4-1.6-10.3-7.6-0.9-5.3 2.8-10.1 4.1-12.6 2.9-5.6 10.2-5.2 12.2 2.1z"/>
						<path id="&lt;Path&gt;" class="s5" d="m383.8 1233.6q0.3-0.8 0.4-1.7c0.1-1.1 0.6-2.7 2.1-1.7 2.2 1.5 1.1 7.3-1.6 7.4-2.1 0.1-1.4-2.6-0.9-4z"/>
						<path id="&lt;Path&gt;" class="s10" d="m373.4 1239.9c-1.4-1-2-3.7-2-3.7 3.7 0.9 6.3 0.6 6.3 0.6-1.2 2.7-3 4.2-4.3 3.1z"/>
						<path id="&lt;Path&gt;" class="s11" d="m384.4 1239.6c-1.1 2.8-3.5 5.1-6.7 5.8-4.7 1-9.4-1.6-10.3-7.6q-0.1-0.1-0.1-0.3c0.3 0.6 1.5 3.1 2.8 4.1 1.5 1.1 5 1.8 7 1.7 1.7-0.2 4.8-1.1 7.3-3.7z"/>
						<path id="&lt;Path&gt;" class="s6" d="m385 1229.7c-1.4 3.3 0.6 17.1 0.6 17.1-4-2-3.9-10.5-3.5-13.7 0.3-3.5 1-10 1-10 0 0 3.3 3.3 1.9 6.6z"/>
						<path id="&lt;Path&gt;" class="s6" d="m383.5 1221.1c2.8 1.5 4.6 10.7-0.8 10.8-5.3 0-9.3-10.8-9.3-10.8 1.7-3.6 7.2-1.5 10.1 0z"/>
						<path id="&lt;Path&gt;" class="s6" d="m383.7 1218c0 0 6.2-9.7 15.9-9.4 9.7 0.3 4.7 27.7 10.7 32.9 6 5.2 8.6 5.2 8.6 5.2 0 0-11.2 10-20.2 5.1-9-4.8-1.1-30.9-8.7-30.4-7.5 0.5-6.3-3.4-6.3-3.4z"/>
					</g>
					<path id="&lt;Path&gt;" class="s3" d="m423.7 1345.3c-6.6 1.2-18.7 3.1-32.8 4.3-1.9-5.2-3.7-10.9-4.9-16.3-3.4-15.1-3.1-46.6 4.2-59.2 4.7-8 4-14.9 3-18.7 3.2 1 6.2 2.3 8.8 3.9 11.1 6.9-1.7 41 1.4 48.5 3.7 9 12.4 20.5 20.3 37.5z"/>
					<path id="&lt;Path&gt;" class="s6" d="m394.8 1269.6l11.4 9.6c-0.9 8.3-2.9 17.2-3.3 23.1-7.6-11.5-8.1-32.7-8.1-32.7z"/>
					<path id="&lt;Path&gt;" class="s5" d="m423.6 1403.6c1.5 3.2 0.6 9.6-3 16.8-3 6.1-9.5 5.7-9 2.9 1.1-6.2 3-9.9 1.9-12.5-1.1-2.6-3.3 0.7-7-0.1-3.7-0.9 0.9-2.7 2.7-3.7 1.7-1 6.2-4.8 6.2-4.8 0 0 4.9-5.7 8.2 1.4z"/>
					<path id="&lt;Path&gt;" class="s5" d="m459 1324c10.9 43.3-29.3 87.8-40 80-6-4.4 0.4-14 5.7-25.3 8.2-17.6 13-35.8 9.9-47.5-2.9-11-16.5-25.6-26.2-37.4-9.8-11.7-16.3-24.2-12.8-29.8 8.2-13.3 53.8 21.2 63.4 60z"/>
					<path id="&lt;Path&gt;" class="s11" d="m459 1324c10 39.7-22.9 80.4-36.7 80.9 2.9-5 9.6-13.6 15-19.6 7.5-8.3 14.2-34 14.3-48.7 0.2-14.8-3-24.9-11.7-38.2-6.7-10.4-22.2-27.1-28.7-34.6 16.9 8.1 41.1 33.1 47.8 60.2z"/>
					<path id="&lt;Path&gt;" class="s14" d="m363.7 1420.7c-10.2 36.2-24.2 174.2-50.3 216-4.3 7-21.4 5-27.6 4.6-4.3-0.2-5.6-9.5-5.3-23.5 5.4-1 15-4.1 22.2-14.5 10.5-15.1 22.2-69.9 26.3-93.8 4.2-23.8 23.3-91.2 34.7-88.8z"/>
				</g>
			</g>
		</g>
	</g>
</svg>