<svg version="1.2" xmlns="http://www.w3.org/2000/svg" viewBox="0 0 3000 2000" width="600" height="400">
	<title>AdobeStock_437071762-ai</title>
	<defs>
		<linearGradient id="g1" x1="657.4" y1="1452" x2="1137.4" y2="1602.9" gradientUnits="userSpaceOnUse">
			<stop offset="0" stop-color="#ffffff"/>
			<stop offset="1" stop-color="#6a9dbc"/>
		</linearGradient>
		<linearGradient id="g2" x1="1077.7" y1="895.8" x2="1214.7" y2="895.8" gradientUnits="userSpaceOnUse">
			<stop offset="0" stop-color="#71b9d1"/>
			<stop offset=".8" stop-color="#ffffff"/>
		</linearGradient>
		<linearGradient id="g3" x1="1106.8" y1="743" x2="1232.5" y2="743" gradientUnits="userSpaceOnUse">
			<stop offset="0" stop-color="#71b9d1"/>
			<stop offset="0" stop-color="#8c6239"/>
			<stop offset="1" stop-color="#754c24"/>
		</linearGradient>
		<linearGradient id="g4" x1="1186.6" y1="920.7" x2="1278.4" y2="920.7" gradientUnits="userSpaceOnUse">
			<stop offset="0" stop-color="#71b9d1"/>
			<stop offset=".8" stop-color="#ffffff"/>
		</linearGradient>
		<radialGradient id="g5" cx="1967.3" cy="1330.4" r="740.4" gradientUnits="userSpaceOnUse">
			<stop offset="0" stop-color="#9ec4d5"/>
			<stop offset="1" stop-color="#ffffff"/>
		</radialGradient>
		<linearGradient id="g6" x1="1919.9" y1="572.6" x2="2458.1" y2="883.4" gradientUnits="userSpaceOnUse">
			<stop offset="0" stop-color="#808080"/>
			<stop offset=".7" stop-color="#e6e6e6"/>
			<stop offset="1" stop-color="#808080"/>
		</linearGradient>
		<linearGradient id="g7" x1="1921.1" y1="574.4" x2="2475.7" y2="574.4" gradientUnits="userSpaceOnUse">
			<stop offset="0" stop-color="#6b6b6b"/>
			<stop offset=".7" stop-color="#bcbcbc"/>
			<stop offset="1" stop-color="#6b6b6b"/>
		</linearGradient>
		<linearGradient id="g8" x1="1973" y1="651.3" x2="2395.1" y2="651.3" gradientUnits="userSpaceOnUse">
			<stop offset="0" stop-color="#338dc9"/>
			<stop offset=".2" stop-color="#99c6e4"/>
			<stop offset=".7" stop-color="#338dc9"/>
			<stop offset="1" stop-color="#00558d"/>
		</linearGradient>
		<linearGradient id="g9" x1="1904.4" y1="964" x2="2439.6" y2="1273" gradientUnits="userSpaceOnUse">
			<stop offset="0" stop-color="#808080"/>
			<stop offset=".7" stop-color="#e6e6e6"/>
			<stop offset="1" stop-color="#808080"/>
		</linearGradient>
		<linearGradient id="g10" x1="1903.8" y1="971.5" x2="2430.3" y2="1275.5" gradientUnits="userSpaceOnUse">
			<stop offset="0" stop-color="#808080"/>
			<stop offset=".7" stop-color="#e6e6e6"/>
			<stop offset="1" stop-color="#808080"/>
		</linearGradient>
		<linearGradient id="g11" x1="1917.9" y1="955.3" x2="2473.7" y2="1276.2" gradientUnits="userSpaceOnUse">
			<stop offset="0" stop-color="#808080"/>
			<stop offset=".7" stop-color="#e6e6e6"/>
			<stop offset="1" stop-color="#808080"/>
		</linearGradient>
		<linearGradient id="g12" x1="2609" y1="454.1" x2="2776.1" y2="913.3" gradientUnits="userSpaceOnUse">
			<stop offset="0" stop-color="#13daf9"/>
			<stop offset="1" stop-color="#01104d"/>
		</linearGradient>
		<linearGradient id="g13" x1="2291.8" y1="587.2" x2="2545.3" y2="440.8" gradientUnits="userSpaceOnUse">
			<stop offset="0" stop-color="#13daf9"/>
			<stop offset="1" stop-color="#41798b"/>
		</linearGradient>
		<clipPath clipPathUnits="userSpaceOnUse" id="cp1">
			<path d="m2699.41 939.58l-306.19-176.78v-231.84l306.19 176.78z"/>
		</clipPath>
		<linearGradient id="g14" x1="1343.1" y1="500.8" x2="1630" y2="335.2" gradientUnits="userSpaceOnUse">
			<stop offset="0" stop-color="#13daf9"/>
			<stop offset="1" stop-color="#01104d"/>
		</linearGradient>
		<clipPath clipPathUnits="userSpaceOnUse" id="cp2">
			<path d="m1803.37 899.13l-344.46-198.87v-262.39l344.46 198.87z"/>
		</clipPath>
		<linearGradient id="g15" x1="1618.2" y1="585.8" x2="1641.9" y2="596.6" gradientUnits="userSpaceOnUse">
			<stop offset="0" stop-color="#8d6321"/>
			<stop offset="1" stop-color="#bc842c"/>
		</linearGradient>
		<linearGradient id="g16" x1="1703.3" y1="631" x2="1720.4" y2="640.9" gradientUnits="userSpaceOnUse">
			<stop offset="0" stop-color="#8d6321"/>
			<stop offset="1" stop-color="#bc842c"/>
		</linearGradient>
		<linearGradient id="g17" x1="1617.7" y1="552.1" x2="1693.9" y2="573.8" gradientUnits="userSpaceOnUse">
			<stop offset="0" stop-color="#8d6321"/>
			<stop offset="1" stop-color="#bc842c"/>
		</linearGradient>
		<linearGradient id="g18" x1="2097.5" y1="804.6" x2="2319.5" y2="804.6" gradientUnits="userSpaceOnUse">
			<stop offset="0" stop-color="#13daf9"/>
			<stop offset="1" stop-color="#41798b"/>
		</linearGradient>
		<linearGradient id="g19" x1="2013.4" y1="903.6" x2="2124.8" y2="770.9" gradientUnits="userSpaceOnUse">
			<stop offset="0" stop-color="#13daf9"/>
			<stop offset="1" stop-color="#41798b"/>
		</linearGradient>
		<clipPath clipPathUnits="userSpaceOnUse" id="cp3">
			<path d="m2319.72 1102.57l-222.02-128.19v-168.11l222.02 128.18z"/>
		</clipPath>
		<linearGradient id="g20" x1="1886.7" y1="512.8" x2="2124.4" y2="375.5" gradientUnits="userSpaceOnUse">
			<stop offset="0" stop-color="#c86fa1"/>
			<stop offset=".7" stop-color="#2d618b"/>
		</linearGradient>
		<linearGradient id="g21" x1="1980.5" y1="457.1" x2="2267.8" y2="457.1" gradientUnits="userSpaceOnUse">
			<stop offset="0" stop-color="#13daf9"/>
			<stop offset="1" stop-color="#096d9c"/>
		</linearGradient>
		<clipPath clipPathUnits="userSpaceOnUse" id="cp4">
			<path d="m2267.43 843.05l-286.98-166.38 0.39-217.53 286.98 166.38z"/>
		</clipPath>
		<linearGradient id="g22" x1="1502.2" y1="1165" x2="1502.2" y2="910" gradientUnits="userSpaceOnUse">
			<stop offset="0" stop-color="#000000"/>
			<stop offset=".6" stop-color="#083654"/>
			<stop offset="1" stop-color="#cce3f2"/>
		</linearGradient>
		<radialGradient id="g23" cx="1531.1" cy="893.4" r="29.6" gradientUnits="userSpaceOnUse">
			<stop offset="0" stop-color="#d1d0e0"/>
			<stop offset=".6" stop-color="#1a1360"/>
			<stop offset="1" stop-color="#000000"/>
		</radialGradient>
		<linearGradient id="g24" x1="2575.2" y1="1331.7" x2="2575.2" y2="1076.6" gradientUnits="userSpaceOnUse">
			<stop offset="0" stop-color="#000000"/>
			<stop offset=".6" stop-color="#083654"/>
			<stop offset="1" stop-color="#cce3f2"/>
		</linearGradient>
		<radialGradient id="g25" cx="2546.3" cy="1060.1" r="29.6" gradientUnits="userSpaceOnUse">
			<stop offset="0" stop-color="#d1d0e0"/>
			<stop offset=".6" stop-color="#1a1360"/>
			<stop offset="1" stop-color="#000000"/>
		</radialGradient>
		<radialGradient id="g26" cx="2393.4" cy="530.9" r="78.6" gradientUnits="userSpaceOnUse">
			<stop offset="0" stop-color="#d1d0e0"/>
			<stop offset=".6" stop-color="#1a1360"/>
			<stop offset="1" stop-color="#000000"/>
		</radialGradient>
		<radialGradient id="g27" cx="1458.5" cy="448.5" r="78.6" gradientUnits="userSpaceOnUse">
			<stop offset="0" stop-color="#d1d0e0"/>
			<stop offset=".6" stop-color="#1a1360"/>
			<stop offset="1" stop-color="#000000"/>
		</radialGradient>
	</defs>
	<style>
		.s0 { fill: #d4eef9 } 
		.s1 { mix-blend-mode: soft-light;fill: none;stroke: #d4eef9;stroke-width: 5 } 
		.s2 { mix-blend-mode: soft-light;fill: #d4eef9 } 
		.s3 { mix-blend-mode: soft-light;fill: none;stroke: #d4eef9;stroke-width: 6 } 
		.s4 { mix-blend-mode: multiply;fill: url(#g1) } 
		.s5 { fill: #dfb28b } 
		.s6 { fill: #1a3039 } 
		.s7 { fill: #264756 } 
		.s8 { fill: #335f72 } 
		.s9 { fill: url(#g2) } 
		.s10 { fill: url(#g3) } 
		.s11 { fill: #cf9e76 } 
		.s12 { fill: #8ec2d8 } 
		.s13 { fill: url(#g4) } 
		.s14 { mix-blend-mode: multiply;fill: url(#g5) } 
		.s15 { fill: url(#g6) } 
		.s16 { fill: #808080 } 
		.s17 { fill: url(#g7) } 
		.s18 { fill: #e6e6e6 } 
		.s19 { fill: url(#g8) } 
		.s20 { fill: url(#g9) } 
		.s21 { fill: url(#g10) } 
		.s22 { fill: #4d4d4d } 
		.s23 { fill: url(#g11) } 
		.s24 { fill: #333333 } 
		.s25 { fill: #ffffff } 
		.s26 { fill: #b3b3b3 } 
		.s27 { fill: #666666 } 
		.s28 { mix-blend-mode: soft-light;fill: #acbfbc } 
		.s29 { mix-blend-mode: soft-light;fill: #ecddff } 
		.s30 { fill: url(#g12) } 
		.s31 { fill: url(#g13) } 
		.s32 { fill: #5b4a75 } 
		.s33 { fill: #ecc19c } 
		.s34 { fill: #2b7a74 } 
		.s35 { fill: #ed1c24 } 
		.s36 { mix-blend-mode: soft-light;fill: #f2fbfa } 
		.s37 { fill: url(#g14) } 
		.s38 { fill: url(#g15) } 
		.s39 { fill: url(#g16) } 
		.s40 { fill: url(#g17) } 
		.s41 { fill: #5a7287 } 
		.s42 { fill: #cccccc } 
		.s43 { fill: #3c6c8c } 
		.s44 { fill: url(#g18) } 
		.s45 { fill: url(#g19) } 
		.s46 { fill: #7e581e } 
		.s47 { fill: url(#g20) } 
		.s48 { fill: url(#g21) } 
		.s49 { fill: #000000 } 
		.s50 { fill: #00a99d } 
		.s51 { fill: #b5441b } 
		.s52 { fill: #efc7b0 } 
		.s53 { fill: #e4b69d } 
		.s54 { mix-blend-mode: screen;fill: url(#g22) } 
		.s55 { mix-blend-mode: screen;fill: url(#g23) } 
		.s56 { mix-blend-mode: screen;fill: url(#g24) } 
		.s57 { mix-blend-mode: screen;fill: url(#g25) } 
		.s58 { mix-blend-mode: screen;fill: url(#g26) } 
		.s59 { mix-blend-mode: screen;fill: url(#g27) } 
		.s60 { fill: #e2e8fe } 
	</style>
	<g id="Layer 1">
		<g id="&lt;Group&gt;">
			<g id="&lt;Group&gt;" style="mix-blend-mode: soft-light">
				<path id="&lt;Path&gt;" class="s0" d="m2182.3 1649c10.4-6.1 27.4-6.1 37.8 0 10.5 6 10.5 15.8 0 21.8-10.4 6.1-27.4 6.1-37.8 0-10.5-6-10.5-15.8 0-21.8z"/>
				<path id="&lt;Path&gt;" class="s0" d="m2126.8 1681c10.4-6 27.4-6 37.8 0 10.4 6.1 10.4 15.8 0 21.9-10.4 6-27.4 6-37.8 0-10.5-6.1-10.5-15.8 0-21.9z"/>
				<path id="&lt;Path&gt;" class="s0" d="m2071.2 1713.1c10.5-6 27.4-6 37.9 0 10.4 6 10.4 15.8 0 21.8-10.5 6.1-27.4 6.1-37.9 0-10.4-6-10.4-15.8 0-21.8z"/>
			</g>
			<g id="&lt;Group&gt;" style="mix-blend-mode: soft-light">
				<path id="&lt;Path&gt;" class="s0" d="m551.5 1517c-10.5 6-27.4 6-37.9 0-10.4-6.1-10.4-15.9 0-21.9 10.5-6 27.4-6 37.9 0 10.4 6 10.4 15.8 0 21.9z"/>
				<path id="&lt;Path&gt;" class="s0" d="m607 1549c-10.5 6-27.4 6-37.8 0-10.5-6-10.5-15.8 0-21.8 10.4-6.1 27.3-6.1 37.8 0 10.4 6 10.4 15.8 0 21.8z"/>
				<path id="&lt;Path&gt;" class="s0" d="m662.5 1581.1c-10.4 6-27.4 6-37.8 0-10.5-6.1-10.5-15.8 0-21.9 10.4-6 27.4-6 37.8 0 10.5 6.1 10.5 15.8 0 21.9z"/>
			</g>
			<path id="&lt;Path&gt;" class="s1" d="m1333.3 1889.8l-898.7-518.9c-26-15-26-52.5 0-67.6l617.1-356.3c12.1-6.9 27-6.9 39 0l898.7 518.9c26 15 26 52.6 0 67.6l-617.1 356.3c-12.1 6.9-27 6.9-39 0z"/>
			<path id="&lt;Path&gt;" class="s2" d="m1193.3 1812.8c-11.6 6.7-30.4 6.7-42 0-11.6-6.7-11.6-17.6 0-24.3 11.6-6.7 30.4-6.7 42 0 11.6 6.7 11.6 17.6 0 24.3z"/>
			<path id="&lt;Path&gt;" class="s2" d="m1254.3 1849.8c-11.6 6.7-30.4 6.7-42 0-11.6-6.7-11.6-17.6 0-24.3 11.6-6.7 30.4-6.7 42 0 11.6 6.7 11.6 17.6 0 24.3z"/>
			<g id="&lt;Group&gt;">
				<path id="&lt;Path&gt;" class="s3" d="m531.9 1796.4l-257.7-148.8c-37.4-21.6-32.7-59.3 10.5-84.3l236.7-136.6c43.2-25 108.6-27.7 146-6.1l257.7 148.8c37.4 21.6 32.7 59.3-10.5 84.3l-236.7 136.7c-43.2 24.9-108.6 27.6-146 6z"/>
			</g>
			<g id="&lt;Group&gt;">
				<path id="&lt;Path&gt;" class="s3" d="m1910.9 1694.4l-257.7-148.8c-37.4-21.6-32.7-59.3 10.5-84.3l236.7-136.6c43.2-25 108.6-27.7 146-6.1l257.7 148.8c37.4 21.6 32.7 59.3-10.5 84.3l-236.7 136.7c-43.2 24.9-108.6 27.6-146 6z"/>
			</g>
		</g>
		<g id="&lt;Group&gt;">
			<path id="&lt;Path&gt;" class="s4" d="m733.1 1371.7v-160.4l420.3 340.7-67.7 32.5z"/>
			<g id="&lt;Group&gt;">
				<path id="&lt;Path&gt;" class="s5" d="m1221 922.9c2.7-6.6 5.5-14.3 2.2-20.6-2.3-4.4-8.9-10.1-5.2-13.4 2.1-1.9 11.3 5.1 12.4 7.7 4.5 10.8 8.8 23 4.2 33.7-0.8 1.8-1.8 3.6-2.3 5.5-0.8 3.7 0.7 7.9-1 11.3-0.7 1.5-2 2.7-3.3 3.5-7.9 5.1-20.1 0-22.3-9.1-2.1-9.1 6.1-19.1 15.4-19"/>
				<path id="&lt;Path&gt;" class="s6" d="m1268.4 1561.1c2.2 1.6 1.4 5.2 0.4 7.8-6.7 16.1-25.1 23.4-41.7 29-7 2.3-14 1.1-21.4 0.7 1.8 5.6-1.6 7.5-1.6 7.5 0 0-30.6 1.8-31.8 1.4-1-0.4-9-24.7-3.5-45.4 6-2.8 21.9-10.7 23.9-10.1 36.2 11.4 67.8 3 75.7 9.1z"/>
				<path id="&lt;Path&gt;" class="s6" d="m1175.7 1537.4c1.6 0.7 2.6 2.5 2.5 4.3-1.6 19.1-19.3 30.8-35.3 40.2-6.4 3.7-13.5 4-20.8 5.1q0 0 0.1 0.1c1.8 3.4-0.8 7.5-4.7 7.4-10.6-0.5-35.7-1.5-36.7-1.6-1.1-0.2-3.5-12.7-2.3-34.1 5.3-4 19.3-15 21.3-14.8 37.7 3.8 66.9-10.8 75.9-6.6z"/>
				<path id="&lt;Path&gt;" class="s7" d="m1090.1 1374.1c0 0-31.2-198.2 4.3-232.4 16.3-15.7 90.8-1.1 90.8-1.1l-29.5 218.9-12.6 192.3c0 0-66.3 35.8-66.3 10.6 0-53.7 13.3-188.3 13.3-188.3z"/>
				<path id="&lt;Path&gt;" class="s8" d="m1171 1374.1c0 0-6.5-40.4-23.9-80.9-21.7-50.6-64.6-83.1-42.4-145.9 9.2-26 121-6.7 121-6.7l16.4 216.7-12.8 201.1c0 0-53 39.8-62.3 21.2-12.1-24.2 4-205.5 4-205.5z"/>
				<path id="&lt;Path&gt;" class="s9" d="m1227.5 1114.5c1.2 6.3 27.9 49.7-42.3 66.7-17.8 4.4-117.5-2.3-111.9-26.2 7.1-30.2 15.1-74.8 21.1-93.6 0-86.5-18.6-59.8-5.6-120.9 6.2-29.5 35.4-45.2 46.4-42.5q0.8 0.3 1.8 0.5c4.7 1.2 11.2 3.1 18.5 5.2 8.8 2.6 18.6 3.6 28 6.4 10.2 3.1 30 12.5 30 12.5 11.9 4.3 24.1 28.5 16.4 43.4-3.7 7.2-16.3 67.4-20.7 87.1-0.3 6.3-0.9 12.1-1.4 17.8-1.4 15.3 16.3 26.1 19.7 43.6z"/>
				<path id="&lt;Path&gt;" class="s5" d="m1224.5 825.9c-1.8 6.4 2.3 8.6 2.1 15.2-0.6 12.8-9.9 27.7-8.7 40.4 0.3 3 1 6.7-1.4 8.5-1.2 0.9-2.7 1-4.2 1-4.1-0.1-10.3 0.1-14-1.5-1.4-0.6-3-1.4-4.4-0.7-0.5 0.2-0.9 0.6-1.2 1.1-0.5 0.7-0.7 1.6-0.9 2.5q-0.9 3.9-1.6 7.8-0.6 3.9-1 7.9c-19-10.1-55.5-14.7-55.4-15 2.3-6 3.9-12.4 4.7-18.8q0.2-1.6 0.1-3.2 0-0.5 0-0.9 0 0 0 0c-0.1-0.3-0.5-2.8-0.7-3.7-11.1-41.5 43.8-119 55.6-112.3 11.9 6.7 27.1 31.2 27.1 31.2l3.2 2.8c4.4 10 2.6 12.8 4.4 18.9 0.7 2.4 0.4 4.6 0.2 7.1-0.3 4.1-2.8 7.7-3.9 11.7z"/>
				<path id="&lt;Path&gt;" class="s10" d="m1132.5 862.6c-3.6-7.1-10.9-10.6-15.7-17-4.2-5.6-6.4-7.8-8.4-14.5-2.2-7.7-2.7-21.1-1.6-29 0.8-6.3 2.6-13.3 6.2-18.5 2.2-3.4 5.3-6 8.1-8.8 8.9-9.2 9.2-18.5 20.8-23.9 8.1-3.8 23.7-6.4 32.7-5.8 6.6 0.4 13.2 1 19.4 3.2 5.2 1.8 9.9 4.6 15.1 6.5 5.1 1.8 10.9 2.7 15.9 0.6 1.1 2.6 0.6 5.8-1.1 8.1 3.7 0.6 7.7-1.9 8.9-5.5 1.4 4.7 0.4 21.8-7.9 29.1-2.7 2.3-11.9 9.3-12.3 12.8-1.6 15 1.6 18.3 1.1 33.4-5.3 0.5-7.7-1.3-10.4-5.9-2.8-4.7-7-9.9-12.3-8.8-4.8 1-7 6.7-7.1 11.6-0.1 4.9 0.9 10-0.9 14.5-2.2 5.5-7.8 8.6-12.8 11.7-5 3.2-8.1 8.8-15.5 14.8-7.1 1.6-16.2 3.4-22.2-8.6z"/>
				<g id="&lt;Group&gt;">
					<path id="&lt;Path&gt;" class="s11" d="m1197.6 826.7c-0.6-0.3-1.2-0.8-1.6-1.3-0.5-0.5-0.9-1-1.3-1.5q-0.6-0.6-1.3-0.8-0.6-0.1-1.4 0.1-0.8 0.3-1.5 0.9-0.7 0.6-1.3 1.4c-0.7 1.1-1.3 2.4-1.6 3.6q-0.2 1-0.3 1.9 0 0.9 0 1.8c0.2 1.2 0.7 2.3 1.2 3.4 0.5 1.2 1.2 2.4 1.7 3.5 0.6 1.2 1.3 2.2 2.2 3.2l-0.1 0.2c-1.3-0.5-2.4-1.5-3.2-2.6q-0.7-0.8-1.2-1.7-0.6-0.8-1.1-1.7c-0.7-1.3-1.1-2.7-1.1-4.2q-0.1-1.1 0.2-2.2c0.2-0.7 0.5-1.3 0.8-1.9 0.6-1.3 1.4-2.4 2-3.6 0.4-0.5 0.6-1.2 1-1.8 0.4-0.6 1-1.2 1.7-1.6 0.7-0.3 1.6-0.5 2.5-0.2q0.6 0.2 1.1 0.6 0.4 0.4 0.8 0.9c0.4 0.6 0.7 1.2 0.9 1.8 0.3 0.6 0.6 1.1 1 1.7z"/>
				</g>
				<path id="&lt;Path&gt;" class="s12" d="m1123.4 885.3c0.3-1 0.5-2 1.3-2.7 1.2-1.2 3.8-5 5.5-4.5 15.3 4.5 25.8 7.3 43 14.2 3.3 1.3 11.8 4.9 15 6.5 3.6 1.8 6.1 3.9 9.2 6.4 5.2 4.1 8.3 9.3 10.9 15.4-14.9-7.3-31.9-8.1-48.3-10.6-10.8-1.6-21.5-3.8-32-6.5-3-0.8-11.3-1.5-10.9-5.5 0.3-1.7 3.1-4.6 3.9-6.3q1.5-3.1 2.4-6.4z"/>
				<path id="&lt;Path&gt;" class="s11" d="m1216.4 889.9c0 0-5.8 2.9-17.4-0.2-1.9-0.5-3.8-1.7-5.6-0.9-0.7 0.3-1.2 0.8-1.6 1.4-0.8-3.2 0.7-7.4 1.1-10.3q1.2-8.1 1.7-16.4c3 1 4.5 4.3 5.8 7.1 3.9 8.1 9 13.6 16 19.3z"/>
				<path id="&lt;Path&gt;" class="s5" d="m1205 1155.5c5.8-10.6 8.2-22.5 13.5-33.2 5 0.8 9.9 2.5 14.8 4 1.1 0.3 2.3 0.7 2.8 1.6 0.8 1.1 0.4 2.6 0 3.9-3.1 10.5-4 21.5-2.6 32.3 0.6 5.2 1.8 10.4 1.4 15.7-0.2 3.3-1.1 6.5-2 9.7q-3.9 13.7-9.2 26.9c-1.1 2.9-2.9 6.2-6 6.6q-2.7-24.5-5.4-48.9c-0.1-0.8-0.3-1.8-1.1-2.1-0.6-0.2-1.4 0.2-2 0.6-6.3 4.6-9.7-7.3-4.2-17.1z"/>
				<path id="&lt;Path&gt;" class="s13" d="m1277.1 1038.2c0 2.4-0.3 4.8-1 7.2l-41.4 114.9-29.7-4.2 16.6-112.5-36.9-85.2c-4.6-14.3 3.3-29.8 17.7-34.4 14.3-4.6 29.7 3.3 34.4 17.7l34.1 78.9c3.3 3.9 5.4 8.7 6 13.9l1.5 3.3z"/>
			</g>
		</g>
		<g id="&lt;Group&gt;">
			<path id="&lt;Path&gt;" class="s14" d="m2658.5 1671.8c-30.8 62.3-365.2-40-746.9-228.5-381.8-188.6-666.3-392-635.5-454.3 30.8-62.3 365.2 40 746.9 228.5 381.8 188.6 666.3 392 635.5 454.3z"/>
			<g id="&lt;Group&gt;">
				<g id="&lt;Group&gt;">
					<path id="&lt;Path&gt;" class="s15" d="m1936.6 941.7c-6.3-3.7-11.7-12-13.1-19.8l-3.8-328.3-0.1-0.4c-0.8-5.1 0.2-9.3 2.8-11.5 2.6-2.1 6.4-2 10.4 0.3l511.4 297.6c10.5 6.6 11.8 7.8 14.4 12.9 2.6 5.2-0.4 9.3-1.2 13.5l-0.1 0.4 2.3 327.1c-1.4 6.2-6.9 8.1-13.1 4.5 0 0-509.9-296.3-509.9-296.3z"/>
					<path id="&lt;Path&gt;" class="s16" d="m2460.6 908.6l2.3 327.2c-1.7 8.1-8.5 10.6-16.5 5.9l-509.8-296.3c-8-4.6-14.8-15-16.4-25l-6.1-324.6c-2.2-13.3 8.2-18.8 18.8-12.7l511.3 297.5c10.7 6.2 14.1 14.3 16.4 28z"/>
					<path id="&lt;Path&gt;" class="s17" d="m1942.7 934.6c-5.8-3.4-10.9-11.1-12.2-18.5l-3.6-329.1-0.3 0.3c-0.8-4.8-9.5-3.2-7.1-5.2 2.4-2.1 15.7-7.4 19.5-5.2 0 0 517.7 299.8 523.4 305.5 5.4 5.4 9.4 11.8 11 19.7 0.3 1.5 0.8 3 0.8 4.5l1.5 333.9c-1.3 5.7-14.9 14.9-20.7 11.5 0 0-512.3-317.4-512.3-317.4z"/>
					<g id="&lt;Group&gt;">
						<path id="&lt;Path&gt;" class="s18" d="m1933.9 953.3c-7.8-4.6-14.6-14.9-16.2-24.7l-3.8-328.4c-1-6.2 0.3-11.3 3.4-13.9 3.2-2.7 7.9-2.5 12.9 0.4l513.9 298.9c5 2.9 9.6 8.2 12.8 14.6 3.1 6.3 4.4 12.8 3.3 17.9l2.4 327.1c-1.6 8-8.5 10.4-16.3 5.9z"/>
						<path id="&lt;Compound Path&gt;" fill-rule="evenodd" class="s18" d="m2460.2 918.4l2.6 327c-1.6 8.1-8.6 10.6-16.5 5.9l-512.4-297.7c-7.9-4.7-14.8-15.1-16.4-25.1l-3.8-328.3c-2.1-13.3 5.9-20 16.5-13.8l513.9 299c2.9 1.9 5.6 4.5 7.9 7.5-2.4-2.9-5.1-5.3-7.9-7l-513.9-298.9c-4.9-2.9-9.5-3-12.7-0.4-3.1 2.6-4.3 7.6-3.4 13.7l3.9 328.4c1.5 9.6 8.2 19.8 15.9 24.3l512.4 297.8c7.7 4.5 14.4 2.1 16-5.7l-2.3-327.2q0.2-0.7 0.2-1.5 0 1 0 2zm-3.5-18.2c-1.3-2.6-2.9-5.1-4.7-7.3 5 6.6 8.2 15.3 8.2 23.5 0.6-4.7-0.7-10.5-3.5-16.2z"/>
					</g>
					<path id="&lt;Path&gt;" class="s19" d="m2395.1 1182l-422.1-240.5v-288.2l422.1 240.5z"/>
				</g>
				<g id="&lt;Group&gt;">
					<path id="&lt;Path&gt;" class="s20" d="m2122.9 1438.6l-493.4-287.9c-1.7-3.9-7.4-26.3 0-30.5l260.8-148.3c7.1-4 20.6-2.7 30.1 2.9l490.8 286.8c9.5 5.5 11.7 13.3 4.8 17.4l-256.3 158.3c-7.1 4.3-27.2 7-36.8 1.3z"/>
					<path id="&lt;Path&gt;" class="s21" d="m1628.4 1144.5c-6.5-3.8 0.6-10.6 1.1-10.9l262.4-157.8c2.6-1.3 13.3-1.5 22.5 3.8l488.3 285.3c9.2 5.4 8.7 11.7 6.5 13.2l-261.7 162.1c-0.5 0.3-0.9 0.4-1.6 0.5-3.2 0.4-10.3-0.5-16.8-4.2z"/>
					<path id="&lt;Path&gt;" class="s22" d="m2122.9 1438.6l-493.4-287.9c-1.7-2-10-24.2 1.9-32.4l258.9-146.4c7.1-4 20.6-2.7 30.1 2.9l517.5 286.6c9.4 5.5 12.5 27.5 10.3 29.4l-247.2 158.2c-38.1 22.4-57.7 0.4-78.1-10.4z"/>
					<path id="&lt;Path&gt;" class="s23" d="m1628.8 1144.1c-4.6-2.1-4.6-11.7-3.8-14.3 2-6.1 4.5-11.5 8.5-7.8l258.3-146.1 0.1-0.1c2.6-1.3 13.3-1.5 22.5 3.8l527.4 279.4c9.2 5.4 7.7 22.1 5.5 23.6l-265.5 163.7c-0.7 0.3-11.6 4-18.1 4.7-7.9 0.8-29.9-11.8-34-14.8z"/>
					<path id="&lt;Path&gt;" class="s18" d="m2146 1428.2l-507.3-295.8c-9.9-5.8-11.8-13.8-4.3-17.9l272.9-154.2c7.2-4 26.7-1.5 36.4 4.2l490.3 285.4c9.7 5.7 13.6 12.9 6.5 17.1l-263.7 163.9c-7.2 4.2-21 3-30.8-2.7z"/>
					<g id="&lt;Group&gt;">
						<g id="&lt;Group&gt;">
							<g id="&lt;Group&gt;">
								<path id="&lt;Path&gt;" class="s24" d="m1886.3 1019.6l14-7.9 33.2 19.4-14 7.9z"/>
								<path id="&lt;Compound Path&gt;" fill-rule="evenodd" class="s25" d="m1919.5 1039.2l-33.7-19.7 14.5-8 33.6 19.6zm-19.1-27.2l-13.7 7.6 32.7 19.2 13.7-7.7z"/>
							</g>
						</g>
						<g id="&lt;Group&gt;">
							<g id="&lt;Group&gt;">
								<path id="&lt;Path&gt;" class="s24" d="m1929.2 1044.7l14.1-7.9 33.1 19.4-14 7.9z"/>
								<path id="&lt;Compound Path&gt;" fill-rule="evenodd" class="s25" d="m1962.5 1064.3l-33.7-19.7 14.4-8 33.7 19.6zm-19.2-27.2l-13.7 7.6 32.7 19.1 13.7-7.6z"/>
							</g>
						</g>
						<g id="&lt;Group&gt;">
							<g id="&lt;Group&gt;">
								<path id="&lt;Path&gt;" class="s24" d="m1972.2 1069.8l14-7.9 33.1 19.3-13.9 7.9z"/>
								<path id="&lt;Compound Path&gt;" fill-rule="evenodd" class="s25" d="m2005.4 1089.4l-33.6-19.7 14.3-8.1 33.7 19.7zm-19.2-27.3l-13.7 7.7 32.7 19.1 13.7-7.7z"/>
							</g>
						</g>
						<g id="&lt;Group&gt;">
							<g id="&lt;Group&gt;">
								<path id="&lt;Path&gt;" class="s24" d="m2015.1 1094.8l14-7.9 33.1 19.4-13.9 7.9z"/>
								<path id="&lt;Compound Path&gt;" fill-rule="evenodd" class="s25" d="m2048.3 1114.5l-33.6-19.7 14.3-8.1 33.6 19.6zm-19.2-27.2l-13.6 7.7 32.7 19.1 13.6-7.8z"/>
							</g>
						</g>
						<g id="&lt;Group&gt;">
							<g id="&lt;Group&gt;">
								<path id="&lt;Path&gt;" class="s24" d="m2058 1119.9l14-7.9 33.1 19.3-13.9 8z"/>
								<path id="&lt;Compound Path&gt;" fill-rule="evenodd" class="s25" d="m2091.2 1139.5l-33.6-19.6 14.3-8.2 33.6 19.7zm-19.2-27.3l-13.6 7.7 32.7 19.1 13.6-7.7z"/>
							</g>
						</g>
						<g id="&lt;Group&gt;">
							<g id="&lt;Group&gt;">
								<path id="&lt;Path&gt;" class="s24" d="m2100.9 1145l13.9-8 33.2 19.4-13.9 7.9z"/>
								<path id="&lt;Compound Path&gt;" fill-rule="evenodd" class="s25" d="m2134.1 1164.6l-33.6-19.7 14.3-8.1 33.6 19.6zm-19.3-27.3l-13.5 7.8 32.6 19 13.6-7.7z"/>
							</g>
						</g>
						<g id="&lt;Group&gt;">
							<g id="&lt;Group&gt;">
								<path id="&lt;Path&gt;" class="s24" d="m2143.8 1170l13.9-7.9 33.1 19.3-13.9 8z"/>
								<path id="&lt;Compound Path&gt;" fill-rule="evenodd" class="s25" d="m2177 1189.6l-33.6-19.6 14.2-8.2 33.6 19.6zm-19.3-27.3l-13.5 7.8 32.7 19.1 13.5-7.8z"/>
							</g>
						</g>
						<g id="&lt;Group&gt;">
							<g id="&lt;Group&gt;">
								<path id="&lt;Path&gt;" class="s24" d="m2186.7 1195l13.8-7.9 33.1 19.3-13.8 8z"/>
								<path id="&lt;Compound Path&gt;" fill-rule="evenodd" class="s25" d="m2219.9 1214.6l-33.6-19.6 14.1-8.2 33.6 19.7zm-19.3-27.4l-13.5 7.8 32.7 19.1 13.5-7.8z"/>
							</g>
						</g>
						<g id="&lt;Group&gt;">
							<g id="&lt;Group&gt;">
								<path id="&lt;Path&gt;" class="s24" d="m2229.5 1220.1l13.8-8 33.1 19.3-13.8 8z"/>
								<path id="&lt;Compound Path&gt;" fill-rule="evenodd" class="s25" d="m2262.7 1239.7l-33.6-19.7 14.2-8.1 33.5 19.6zm-19.3-27.4l-13.5 7.8 32.7 19.1 13.4-7.8z"/>
							</g>
						</g>
						<g id="&lt;Group&gt;">
							<g id="&lt;Group&gt;">
								<path id="&lt;Path&gt;" class="s24" d="m2272.3 1245.1l13.8-8 33.1 19.3-13.8 8z"/>
								<path id="&lt;Compound Path&gt;" fill-rule="evenodd" class="s25" d="m2305.5 1264.7l-33.6-19.6 14.2-8.2 33.5 19.6zm-19.3-27.4l-13.5 7.8 32.7 19.1 13.4-7.8z"/>
							</g>
						</g>
						<g id="&lt;Group&gt;">
							<g id="&lt;Group&gt;">
								<path id="&lt;Path&gt;" class="s24" d="m2315.2 1270.1l13.7-8 33.1 19.3-13.8 8z"/>
								<path id="&lt;Compound Path&gt;" fill-rule="evenodd" class="s25" d="m2348.3 1289.7l-33.5-19.6 14-8.2 33.6 19.5zm-19.4-27.3l-13.4 7.8 32.6 19.1 13.4-7.9z"/>
							</g>
						</g>
						<g id="&lt;Group&gt;">
							<g id="&lt;Group&gt;">
								<path id="&lt;Path&gt;" class="s24" d="m1846.4 1032.3l19.3-10.8 20.6 12-19.3 10.8z"/>
								<path id="&lt;Compound Path&gt;" fill-rule="evenodd" class="s25" d="m1867 1044.5l-21-12.2 19.7-11 21 12.3zm-1.2-22.8l-19 10.5 20.1 11.8 18.9-10.6z"/>
							</g>
						</g>
						<g id="&lt;Group&gt;">
							<g id="&lt;Group&gt;">
								<path id="&lt;Path&gt;" class="s24" d="m1883.1 1053.7l19.3-10.8 32.7 19.1-19.2 10.9z"/>
								<path id="&lt;Compound Path&gt;" fill-rule="evenodd" class="s25" d="m1915.9 1073.1l-33.2-19.4 19.6-11 33.3 19.4zm-13.5-30l-19 10.6 32.3 18.9 18.9-10.6z"/>
							</g>
						</g>
						<g id="&lt;Group&gt;">
							<g id="&lt;Group&gt;">
								<path id="&lt;Path&gt;" class="s24" d="m1826.2 1051.6c-4.2-2.4-5-5.8-1.9-7.6l8-4.4c3.2-1.8 9.1-1.2 13.3 1.2l27 15.8c4.1 2.4 5 5.8 1.9 7.6l-8 4.4c-3.2 1.8-9.1 1.2-13.3-1.2z"/>
								<path id="&lt;Compound Path&gt;" fill-rule="evenodd" class="s25" d="m1874.7 1064.3l-8 4.5c-3.2 1.8-9.4 1.2-13.7-1.3l-27-15.8c-4.3-2.5-5.1-6-1.9-7.8l8-4.5c3.2-1.8 9.4-1.2 13.7 1.3l26.9 15.8c4.3 2.5 5.2 6 2 7.8zm-29.3-23.4c-4-2.3-9.8-2.9-12.8-1.2l-8 4.5c-3.1 1.7-2.2 5 1.8 7.3l27 15.8c4 2.4 9.8 2.9 12.8 1.2l8-4.5c3.1-1.7 2.2-5-1.8-7.3z"/>
							</g>
						</g>
						<g id="&lt;Group&gt;">
							<g id="&lt;Group&gt;">
								<path id="&lt;Path&gt;" class="s24" d="m1802.3 1066.6c-4.9-2.9-5.9-7-2.2-9.1l5.9-3.2c3.7-2.1 10.8-1.5 15.8 1.4l35.4 20.7c5 2.9 6 7 2.2 9.1l-5.8 3.3c-3.8 2-10.8 1.4-15.8-1.5z"/>
								<path id="&lt;Compound Path&gt;" fill-rule="evenodd" class="s25" d="m1859.7 1085.6l-5.9 3.3c-3.8 2.1-11.1 1.5-16.2-1.5l-35.4-20.7c-5.2-3-6.2-7.2-2.3-9.3l5.8-3.3c3.9-2.1 11.1-1.4 16.2 1.5l35.5 20.7c5.1 3 6.1 7.2 2.3 9.3zm-38.1-29.8c-4.8-2.8-11.7-3.4-15.4-1.4l-5.9 3.3c-3.6 2-2.6 6 2.2 8.8l35.5 20.7c4.8 2.8 11.7 3.5 15.3 1.4l5.9-3.3c3.6-2 2.6-6-2.2-8.8z"/>
							</g>
						</g>
						<g id="&lt;Group&gt;">
							<g id="&lt;Group&gt;">
								<path id="&lt;Path&gt;" class="s24" d="m1924.2 1077.7l19.2-10.8 32.8 19.1-19.3 10.8z"/>
								<path id="&lt;Compound Path&gt;" fill-rule="evenodd" class="s25" d="m1957 1097.1l-33.2-19.4 19.6-11 33.2 19.3zm-13.5-29.9l-18.9 10.6 32.3 18.9 18.8-10.7z"/>
							</g>
						</g>
						<g id="&lt;Group&gt;">
							<g id="&lt;Group&gt;">
								<path id="&lt;Path&gt;" class="s24" d="m1872.5 1078.7l19.4-10.9 32.8 19.2-19.3 10.8z"/>
								<path id="&lt;Compound Path&gt;" fill-rule="evenodd" class="s25" d="m1905.4 1098.1l-33.3-19.5 19.7-11 33.3 19.4zm-13.5-30l-19 10.7 32.3 18.9 19-10.7z"/>
							</g>
						</g>
						<g id="&lt;Group&gt;">
							<g id="&lt;Group&gt;">
								<path id="&lt;Path&gt;" class="s24" d="m1855.1 1097.4l19.4-10.9 32.8 19.2-19.3 10.9z"/>
								<path id="&lt;Compound Path&gt;" fill-rule="evenodd" class="s25" d="m1888.1 1116.8l-33.4-19.4 19.7-11.1 33.4 19.4zm-13.5-30l-19.1 10.7 32.4 18.9 19-10.7z"/>
							</g>
						</g>
						<g id="&lt;Group&gt;">
							<g id="&lt;Group&gt;">
								<path id="&lt;Path&gt;" class="s24" d="m1774 1080.4c-4-2.4-4.8-5.6-1.8-7.3l8.6-4.8c3-1.7 8.7-1.1 12.7 1.2l18.4 10.7c4 2.4 4.8 5.6 1.8 7.3l-8.5 4.8c-3 1.7-8.8 1.1-12.8-1.2z"/>
								<path id="&lt;Compound Path&gt;" fill-rule="evenodd" class="s25" d="m1813.9 1087.6l-8.5 4.8c-3.1 1.8-9 1.2-13.1-1.2l-18.5-10.7c-4.1-2.5-4.9-5.8-1.8-7.6l8.6-4.7c3.1-1.8 8.9-1.2 13.1 1.2l18.4 10.7c4.1 2.4 5 5.8 1.8 7.5zm-20.6-18c-3.8-2.3-9.4-2.8-12.3-1.2l-8.5 4.8c-2.9 1.6-2.2 4.8 1.7 7.1l18.4 10.7c3.9 2.3 9.4 2.8 12.3 1.2l8.6-4.8c2.9-1.7 2.1-4.8-1.8-7.1z"/>
							</g>
						</g>
						<g id="&lt;Group&gt;">
							<g id="&lt;Group&gt;">
								<path id="&lt;Path&gt;" class="s24" d="m1864.5 1133.2c-4-2.4-4.9-5.7-1.8-7.4l8.3-4.7c3.1-1.8 8.8-1.2 12.9 1.2l18.2 10.5c4 2.4 4.9 5.7 1.8 7.5l-8.3 4.7c-3.1 1.7-8.8 1.1-12.9-1.2z"/>
								<path id="&lt;Path&gt;" class="s24" d="m1819.9 1106.7c-4.1-2.4-5-5.7-2.1-7.5l8-4.9c3-1.8 8.7-1.3 12.7 1.1l18.2 10.6c4.1 2.3 5 5.7 2.1 7.5l-8.1 4.9c-2.9 1.8-8.6 1.3-12.7-1.1z"/>
								<path id="&lt;Compound Path&gt;" fill-rule="evenodd" class="s25" d="m1904.1 1140.4l-8.3 4.7c-3.1 1.8-9.1 1.2-13.3-1.2l-18.2-10.6c-4.2-2.5-5-5.9-1.9-7.7l8.4-4.7c3.1-1.7 9.1-1.2 13.3 1.3l18.1 10.6c4.2 2.4 5.1 5.8 1.9 7.6zm-20.4-18c-3.9-2.3-9.5-2.9-12.4-1.2l-8.4 4.7c-2.9 1.7-2.1 4.9 1.8 7.2l18.2 10.6c3.9 2.3 9.5 2.8 12.4 1.1l8.4-4.7c2.9-1.6 2.1-4.9-1.8-7.2z"/>
							</g>
						</g>
						<g id="&lt;Group&gt;">
							<g id="&lt;Group&gt;">
								<path id="&lt;Path&gt;" class="s24" d="m1908.9 1159.1c-3.6-2.1-4.4-5.1-1.6-6.7l9.4-5.3c2.7-1.6 7.9-1.1 11.6 1l193 112.7c3.6 2.1 4.4 5.1 1.7 6.7l-9.3 5.4c-2.7 1.5-7.9 1.1-11.5-1z"/>
								<path id="&lt;Compound Path&gt;" fill-rule="evenodd" class="s25" d="m2123.3 1267.6l-9.4 5.4c-2.8 1.6-8.1 1.2-11.9-1l-193.3-112.8c-3.7-2.2-4.5-5.3-1.7-6.9l9.5-5.4c2.8-1.6 8.2-1.1 11.9 1.1l193.1 112.7c3.8 2.2 4.5 5.3 1.8 6.9zm-195.2-119.4c-3.5-2-8.5-2.5-11.1-1l-9.5 5.4c-2.6 1.5-1.9 4.3 1.6 6.4l193.3 112.8c3.5 2 8.4 2.4 11 0.9l9.4-5.4c2.6-1.5 1.8-4.3-1.7-6.4z"/>
							</g>
						</g>
						<g id="&lt;Group&gt;">
							<g id="&lt;Group&gt;">
								<path id="&lt;Path&gt;" class="s24" d="m1896.3 1121.4l19.3-10.8 32.9 19.1-19.3 10.9z"/>
								<path id="&lt;Compound Path&gt;" fill-rule="evenodd" class="s25" d="m1929.2 1140.9l-33.3-19.5 19.7-11.1 33.3 19.5zm-13.5-30.1l-19 10.7 32.4 18.9 18.9-10.7z"/>
							</g>
						</g>
						<g id="&lt;Group&gt;">
							<g id="&lt;Group&gt;">
								<path id="&lt;Path&gt;" class="s24" d="m1937.5 1145.5l19.3-10.9 32.8 19.1-19.3 10.9z"/>
								<path id="&lt;Compound Path&gt;" fill-rule="evenodd" class="s25" d="m1970.4 1164.9l-33.3-19.5 19.6-11.1 33.3 19.5zm-13.6-30.1l-18.9 10.7 32.4 18.9 18.9-10.7z"/>
							</g>
						</g>
						<g id="&lt;Group&gt;">
							<g id="&lt;Group&gt;">
								<path id="&lt;Path&gt;" class="s24" d="m1978.6 1169.5l19.3-10.9 32.8 19.1-19.2 11z"/>
								<path id="&lt;Compound Path&gt;" fill-rule="evenodd" class="s25" d="m2011.5 1188.9l-33.3-19.4 19.6-11.2 33.3 19.5zm-13.6-30.1l-18.9 10.7 32.4 18.9 18.8-10.8z"/>
							</g>
						</g>
						<g id="&lt;Group&gt;">
							<g id="&lt;Group&gt;">
								<path id="&lt;Path&gt;" class="s24" d="m2019.8 1193.5l19.2-10.9 32.8 19.1-19.2 11z"/>
								<path id="&lt;Compound Path&gt;" fill-rule="evenodd" class="s25" d="m2052.7 1212.9l-33.3-19.4 19.5-11.2 33.3 19.4zm-13.6-30.1l-18.9 10.8 32.4 18.9 18.8-10.8z"/>
							</g>
						</g>
						<g id="&lt;Group&gt;">
							<g id="&lt;Group&gt;">
								<path id="&lt;Path&gt;" class="s24" d="m2060.9 1217.5l19.2-11 32.7 19.2-19.1 11z"/>
								<path id="&lt;Compound Path&gt;" fill-rule="evenodd" class="s25" d="m2093.8 1236.9l-33.3-19.4 19.5-11.2 33.3 19.4zm-13.7-30.1l-18.8 10.8 32.3 18.8 18.8-10.8z"/>
							</g>
						</g>
						<g id="&lt;Group&gt;">
							<g id="&lt;Group&gt;">
								<path id="&lt;Path&gt;" class="s24" d="m2102 1241.5l19.1-11 32.8 19.1-19.1 11.1z"/>
								<path id="&lt;Compound Path&gt;" fill-rule="evenodd" class="s25" d="m2134.9 1260.9l-33.3-19.4 19.5-11.2 33.2 19.4zm-13.7-30.2l-18.7 10.8 32.3 18.9 18.7-10.8z"/>
							</g>
						</g>
						<g id="&lt;Group&gt;">
							<g id="&lt;Group&gt;">
								<path id="&lt;Path&gt;" class="s24" d="m2143.1 1265.5l19.1-11 32.7 19.1-19 11z"/>
								<path id="&lt;Compound Path&gt;" fill-rule="evenodd" class="s25" d="m2176 1284.9l-33.3-19.4 19.4-11.3 33.2 19.4zm-13.7-30.1l-18.7 10.8 32.3 18.9 18.7-10.9z"/>
							</g>
						</g>
						<g id="&lt;Group&gt;">
							<g id="&lt;Group&gt;">
								<path id="&lt;Path&gt;" class="s24" d="m2127.7 1286.8c-3.4-2-4.1-4.9-1.6-6.3l9.9-5.8c2.5-1.4 7.4-1 10.8 1l20.4 11.9c3.4 2 4.1 4.8 1.6 6.3l-9.9 5.7c-2.5 1.5-7.4 1.1-10.8-0.9z"/>
								<path id="&lt;Compound Path&gt;" fill-rule="evenodd" class="s25" d="m2169 1294l-9.8 5.8c-2.7 1.5-7.7 1-11.3-1l-20.4-11.9c-3.5-2.1-4.3-5-1.6-6.6l9.9-5.7c2.6-1.5 7.6-1.1 11.2 1l20.4 11.9c3.5 2.1 4.3 5 1.6 6.5zm-22.3-18.2c-3.3-1.9-8-2.3-10.5-0.9l-9.9 5.7c-2.4 1.4-1.7 4.1 1.6 6.1l20.4 11.9c3.3 1.9 8 2.3 10.4 0.9l9.9-5.7c2.4-1.5 1.7-4.2-1.6-6.1z"/>
							</g>
						</g>
						<g id="&lt;Group&gt;">
							<g id="&lt;Group&gt;">
								<path id="&lt;Path&gt;" class="s24" d="m2172.4 1312.8c-4.3-2.5-5.2-6-2-7.9l7.5-4.3c3.2-1.9 9.3-1.4 13.6 1.2l17.1 10c4.3 2.5 5.3 6 2.1 7.9l-7.5 4.4c-3.2 1.8-9.3 1.3-13.6-1.2z"/>
								<path id="&lt;Compound Path&gt;" fill-rule="evenodd" class="s25" d="m2210.9 1319.8l-7.5 4.4c-3.3 1.9-9.5 1.4-14-1.2l-17.2-10.1c-4.4-2.6-5.3-6.2-2.1-8.1l7.5-4.4c3.3-1.9 9.6-1.3 14 1.3l17.2 10c4.4 2.6 5.4 6.2 2.1 8.1zm-19.6-17.9c-4.2-2.5-10.1-3-13.2-1.2l-7.5 4.4c-3.1 1.8-2.2 5.2 2 7.6l17.2 10.1c4.2 2.4 10.1 2.9 13.1 1.1l7.5-4.3c3.1-1.8 2.2-5.3-1.9-7.7z"/>
							</g>
						</g>
						<g id="&lt;Group&gt;">
							<g id="&lt;Group&gt;">
								<path id="&lt;Path&gt;" class="s24" d="m2212.9 1336.5c-2.9-1.7-3.5-4.1-1.4-5.3l11.3-6.6c2.2-1.3 6.2-0.9 9.1 0.8l22.3 13c2.9 1.7 3.5 4.1 1.4 5.3l-11.3 6.6c-2.1 1.2-6.2 0.9-9.1-0.8z"/>
								<path id="&lt;Compound Path&gt;" fill-rule="evenodd" class="s25" d="m2255.8 1343.8l-11.2 6.6c-2.2 1.3-6.5 1-9.5-0.8l-22.3-13c-3.1-1.8-3.7-4.3-1.5-5.6l11.3-6.6c2.2-1.3 6.5-0.9 9.5 0.9l22.3 13c3 1.8 3.7 4.2 1.4 5.5zm-24-18.3c-2.8-1.6-6.7-2-8.7-0.8l-11.3 6.6c-2.1 1.2-1.5 3.5 1.3 5.1l22.3 13c2.8 1.6 6.7 2 8.7 0.8l11.3-6.6c2-1.2 1.4-3.5-1.4-5.1z"/>
							</g>
						</g>
						<g id="&lt;Group&gt;">
							<g id="&lt;Group&gt;">
								<path id="&lt;Path&gt;" class="s24" d="m2192.8 1294.5c-4.7-2.8-5.7-6.7-2.2-8.7l6.2-3.7c3.6-2 10.3-1.4 15 1.4l64.8 37.8c4.8 2.8 5.8 6.7 2.3 8.7l-6.2 3.7c-3.5 2.1-10.2 1.5-15-1.3z"/>
								<path id="&lt;Compound Path&gt;" fill-rule="evenodd" class="s25" d="m2279.2 1330.2l-6.3 3.6c-3.6 2.2-10.5 1.5-15.4-1.3l-64.8-37.9c-4.9-2.8-6-6.9-2.4-9l6.3-3.6c3.6-2.1 10.5-1.5 15.4 1.4l64.8 37.8c4.9 2.9 6 6.9 2.4 9zm-67.5-46.6c-4.7-2.7-11.2-3.3-14.6-1.3l-6.3 3.6c-3.4 2-2.4 5.8 2.2 8.5l64.9 37.9c4.6 2.7 11.1 3.3 14.5 1.3l6.3-3.7c3.4-2 2.4-5.8-2.2-8.5z"/>
							</g>
						</g>
						<g id="&lt;Group&gt;">
							<g id="&lt;Group&gt;">
								<path id="&lt;Path&gt;" class="s24" d="m1914.1 1103l19.3-10.9 32.8 19.2-19.2 10.8z"/>
								<path id="&lt;Compound Path&gt;" fill-rule="evenodd" class="s25" d="m1947 1122.4l-33.3-19.5 19.7-11 33.2 19.4zm-13.5-30l-18.9 10.6 32.3 18.9 18.9-10.7z"/>
							</g>
						</g>
						<g id="&lt;Group&gt;">
							<g id="&lt;Group&gt;">
								<path id="&lt;Path&gt;" class="s24" d="m1955.8 1127.3l19.2-10.9 32.8 19.1-19.2 10.9z"/>
								<path id="&lt;Compound Path&gt;" fill-rule="evenodd" class="s25" d="m1988.6 1146.7l-33.3-19.5 19.6-11.1 33.3 19.5zm-13.6-30.1l-18.9 10.7 32.4 18.9 18.8-10.7z"/>
							</g>
						</g>
						<g id="&lt;Group&gt;">
							<g id="&lt;Group&gt;">
								<path id="&lt;Path&gt;" class="s24" d="m1997.3 1151.5l19.2-10.9 32.8 19.2-19.2 10.9z"/>
								<path id="&lt;Compound Path&gt;" fill-rule="evenodd" class="s25" d="m2030.2 1170.9l-33.3-19.4 19.6-11.1 33.2 19.4zm-13.6-30l-18.8 10.7 32.3 18.8 18.8-10.7z"/>
							</g>
						</g>
						<g id="&lt;Group&gt;">
							<g id="&lt;Group&gt;">
								<path id="&lt;Path&gt;" class="s24" d="m2038.9 1175.8l19.2-10.9 32.7 19.1-19.1 11z"/>
								<path id="&lt;Compound Path&gt;" fill-rule="evenodd" class="s25" d="m2071.8 1195.2l-33.3-19.4 19.5-11.1 33.2 19.4zm-13.6-30.1l-18.8 10.7 32.3 18.9 18.8-10.8z"/>
							</g>
						</g>
						<g id="&lt;Group&gt;">
							<g id="&lt;Group&gt;">
								<path id="&lt;Path&gt;" class="s24" d="m2080.5 1200.1l19.1-11 32.7 19.2-19.1 10.9z"/>
								<path id="&lt;Compound Path&gt;" fill-rule="evenodd" class="s25" d="m2113.3 1219.5l-33.2-19.5 19.4-11.1 33.2 19.4zm-13.6-30.1l-18.8 10.8 32.3 18.8 18.7-10.8z"/>
							</g>
						</g>
						<g id="&lt;Group&gt;">
							<g id="&lt;Group&gt;">
								<path id="&lt;Path&gt;" class="s24" d="m2122 1224.3l19.1-10.9 32.7 19.1-19 11z"/>
								<path id="&lt;Compound Path&gt;" fill-rule="evenodd" class="s25" d="m2154.8 1243.7l-33.2-19.4 19.4-11.2 33.2 19.4zm-13.7-30.1l-18.7 10.8 32.3 18.8 18.7-10.7z"/>
							</g>
						</g>
						<g id="&lt;Group&gt;">
							<g id="&lt;Group&gt;">
								<path id="&lt;Path&gt;" class="s24" d="m2163.6 1248.6l19-11 32.7 19.1-19 11z"/>
								<path id="&lt;Compound Path&gt;" fill-rule="evenodd" class="s25" d="m2196.4 1267.9l-33.3-19.4 19.4-11.1 33.2 19.3zm-13.7-30.1l-18.7 10.8 32.3 18.9 18.6-10.9z"/>
							</g>
						</g>
						<g id="&lt;Group&gt;">
							<g id="&lt;Group&gt;">
								<path id="&lt;Path&gt;" class="s24" d="m2205.1 1272.8l18.9-11 32.7 19.1-18.9 11z"/>
								<path id="&lt;Compound Path&gt;" fill-rule="evenodd" class="s25" d="m2237.9 1292.2l-33.2-19.4 19.3-11.2 33.1 19.3zm-13.7-30.1l-18.6 10.8 32.2 18.9 18.6-10.9z"/>
							</g>
						</g>
						<g id="&lt;Group&gt;">
							<g id="&lt;Group&gt;">
								<path id="&lt;Path&gt;" class="s24" d="m2255.9 1302.5c-5.1-3-6.3-7.3-2.5-9.5l5.2-3c3.8-2.2 11.1-1.5 16.2 1.5l25.7 15c5.2 3 6.3 7.2 2.5 9.4l-5.1 3.1c-3.8 2.2-11.1 1.5-16.3-1.5z"/>
								<path id="&lt;Compound Path&gt;" fill-rule="evenodd" class="s25" d="m2303.2 1316.1l-5.1 3c-3.9 2.3-11.3 1.6-16.6-1.5l-25.8-15c-5.3-3.1-6.4-7.4-2.5-9.7l5.2-3c3.9-2.3 11.3-1.6 16.6 1.5l25.7 15c5.3 3.1 6.4 7.4 2.5 9.7zm-28.5-24.5c-5.1-3-12.2-3.6-15.9-1.4l-5.1 3c-3.7 2.1-2.6 6.3 2.4 9.2l25.7 15c5 3 12.1 3.6 15.8 1.4l5.2-3c3.7-2.2 2.6-6.3-2.5-9.2z"/>
							</g>
						</g>
						<g id="&lt;Group&gt;">
							<g id="&lt;Group&gt;">
								<path id="&lt;Path&gt;" class="s24" d="m1965.2 1101.7l19.2-10.9 32.8 19.2-19.2 10.8z"/>
								<path id="&lt;Compound Path&gt;" fill-rule="evenodd" class="s25" d="m1998.1 1121.1l-33.3-19.5 19.6-11 33.2 19.4zm-13.6-30l-18.8 10.7 32.3 18.8 18.8-10.6z"/>
							</g>
						</g>
						<g id="&lt;Group&gt;">
							<g id="&lt;Group&gt;">
								<path id="&lt;Path&gt;" class="s24" d="m2006.3 1125.7l19.1-10.9 32.8 19.1-19.2 10.9z"/>
								<path id="&lt;Compound Path&gt;" fill-rule="evenodd" class="s25" d="m2039.1 1145l-33.2-19.4 19.5-11 33.2 19.3zm-13.6-29.9l-18.8 10.6 32.2 18.9 18.8-10.7z"/>
							</g>
						</g>
						<g id="&lt;Group&gt;">
							<g id="&lt;Group&gt;">
								<path id="&lt;Path&gt;" class="s24" d="m2047.3 1149.6l19.1-10.9 32.7 19.1-19.1 10.9z"/>
								<path id="&lt;Compound Path&gt;" fill-rule="evenodd" class="s25" d="m2080.1 1169l-33.2-19.4 19.5-11.1 33.1 19.4zm-13.6-30l-18.7 10.7 32.2 18.8 18.7-10.7z"/>
							</g>
						</g>
						<g id="&lt;Group&gt;">
							<g id="&lt;Group&gt;">
								<path id="&lt;Path&gt;" class="s24" d="m2088.3 1173.6l19.1-10.9 32.7 19.1-19.1 10.9z"/>
								<path id="&lt;Compound Path&gt;" fill-rule="evenodd" class="s25" d="m2121.1 1192.9l-33.2-19.4 19.4-11.1 33.2 19.4zm-13.7-30l-18.7 10.7 32.3 18.8 18.7-10.7z"/>
							</g>
						</g>
						<g id="&lt;Group&gt;">
							<g id="&lt;Group&gt;">
								<path id="&lt;Path&gt;" class="s24" d="m2129.3 1197.5l19.1-10.9 32.6 19.1-19 10.9z"/>
								<path id="&lt;Compound Path&gt;" fill-rule="evenodd" class="s25" d="m2162.1 1216.8l-33.2-19.3 19.4-11.2 33.1 19.4zm-13.6-30l-18.7 10.7 32.2 18.8 18.7-10.7z"/>
							</g>
						</g>
						<g id="&lt;Group&gt;">
							<g id="&lt;Group&gt;">
								<path id="&lt;Path&gt;" class="s24" d="m2170.3 1221.4l19-10.9 32.7 19.1-19 10.9z"/>
								<path id="&lt;Compound Path&gt;" fill-rule="evenodd" class="s25" d="m2203.1 1240.8l-33.2-19.4 19.3-11.1 33.2 19.3zm-13.8-30l-18.6 10.7 32.2 18.8 18.6-10.7z"/>
							</g>
						</g>
						<g id="&lt;Group&gt;">
							<g id="&lt;Group&gt;">
								<path id="&lt;Path&gt;" class="s24" d="m2211.3 1245.4l18.9-11 32.7 19.1-18.9 11z"/>
								<path id="&lt;Compound Path&gt;" fill-rule="evenodd" class="s25" d="m2244 1264.7l-33.1-19.4 19.3-11.1 33.1 19.3zm-13.8-30.1l-18.6 10.8 32.2 18.8 18.6-10.8z"/>
							</g>
						</g>
						<g id="&lt;Group&gt;">
							<g id="&lt;Group&gt;">
								<path id="&lt;Path&gt;" class="s24" d="m2260.9 1274.3c-4.8-2.7-5.8-6.7-2.3-8.7l6.2-3.6c3.5-2 10.2-1.4 15 1.3l47.9 28c4.8 2.8 5.8 6.8 2.3 8.8l-6.1 3.6c-3.5 2.1-10.2 1.5-15-1.3z"/>
								<path id="&lt;Compound Path&gt;" fill-rule="evenodd" class="s25" d="m2330.3 1300.3l-6.2 3.5c-3.6 2.1-10.5 1.5-15.4-1.3l-48-28.1c-4.9-2.8-5.9-6.9-2.3-9l6.1-3.5c3.6-2.1 10.5-1.5 15.5 1.3l47.9 28c4.9 2.9 6 6.9 2.4 9.1zm-50.7-36.9c-4.6-2.7-11.2-3.3-14.6-1.3l-6.2 3.6c-3.4 2-2.4 5.8 2.3 8.5l48 28.1c4.6 2.7 11.2 3.3 14.6 1.3l6.1-3.6c3.4-2 2.4-5.8-2.3-8.6z"/>
							</g>
						</g>
						<g id="&lt;Group&gt;">
							<g id="&lt;Group&gt;">
								<g id="&lt;Group&gt;">
									<path id="&lt;Path&gt;" class="s26" d="m1832.5 1202.2c-8-4.8-9.7-11.4-3.6-14.8l33.1-18.7c6-3.4 17.4-2.3 25.5 2.4l192.1 112c8 4.7 9.7 11.3 3.7 14.8l-32.6 18.9c-6 3.4-17.4 2.4-25.5-2.3z"/>
									<path id="&lt;Compound Path&gt;" fill-rule="evenodd" class="s25" d="m2083.5 1298l-32.6 18.9c-6.1 3.5-17.7 2.5-25.9-2.3l-192.6-112.3c-8.2-4.8-9.9-11.5-3.7-15l33-18.7c6.2-3.5 17.8-2.4 26 2.4l192 112c8.2 4.8 9.9 11.5 3.8 15zm-196.2-126.8c-7.9-4.7-19.2-5.7-25.1-2.3l-33.1 18.7c-5.9 3.3-4.3 9.8 3.6 14.4l192.7 112.4c7.9 4.6 19.1 5.6 25 2.2l32.7-18.9c5.8-3.3 4.2-9.8-3.7-14.5z"/>
								</g>
							</g>
							<g id="&lt;Group&gt;">
								<g id="&lt;Group&gt;">
									<path id="&lt;Path&gt;" class="s22" d="m2024.6 1311.4l-187.2-109.2c-8.2-4.8-9.9-11.5-3.7-15l28.3-15.9c6.1-3.5 17.7-2.4 25.9 2.3l186.7 109c8.2 4.8 9.9 11.5 3.8 15l-27.9 16.1c-6.1 3.5-17.7 2.5-25.9-2.3z"/>
								</g>
							</g>
						</g>
					</g>
					<path id="&lt;Path&gt;" class="s27" d="m2370.2 1232.6l-51.2-29.8 22.2-12.7-2.5-25.2 51.1 29.9 2.1 25.3z"/>
				</g>
				<path id="&lt;Path&gt;" class="s27" d="m1993 1018.7l-51.1-29.8 25.5-14.6-2-26.6 49.5 30.6-2 29z"/>
			</g>
			<g id="&lt;Group&gt;">
				<path id="&lt;Path&gt;" class="s28" d="m2726.4 930.5l-306.2-176.8v-231.8l306.2 176.8z"/>
				<path id="&lt;Path&gt;" class="s29" d="m2751.8 916l-306.2-176.8v-231.8l306.2 176.7z"/>
				<g id="&lt;Group&gt;">
					<path id="&lt;Path&gt;" class="s30" d="m2699.7 941.1l-306.2-176.7v-231.9l306.2 176.8z"/>
					<path id="&lt;Path&gt;" class="s31" d="m2699.4 939.6l-306.2-176.8v-231.8l306.2 176.7z"/>
					<g id="&lt;Clip Group&gt;" clip-path="url(#cp1)">
						<g id="&lt;Group&gt;">
							<path id="&lt;Path&gt;" class="s32" d="m2528.2 658c0 0-13.7-20-5.7-27.9 8.1-7.8 34.4 3.3 40.7 9.7 7.2 7.3 21.9 18.9 31 43.4 9.1 24.6 9.8 54.6 9.1 67.4-0.7 12.7 2.1 85.4 15.4 99.1l-126.1-73.9c0 0 15.5-6.8 13.7-54.8-1.8-47.9-6.3-59.4 4.4-84 2.6-6 5.9-6.9 10-3.8 8.2 6.4 7.5 24.8 7.5 24.8z"/>
						</g>
						<g id="&lt;Group&gt;">
							<path id="&lt;Path&gt;" class="s5" d="m2572.5 769.8c0 0-6.6 24.3 15.5 38 40.1 25 40.2 93.3 40.2 93.3l-155.8-89.9c-1.6-64.4 40.2-42.8 40.2-42.8 27.7 10.2 22.2-20.4 22.2-20.4z"/>
						</g>
						<g id="&lt;Group&gt;">
							<path id="&lt;Path&gt;" class="s11" d="m2571 774.1c-4 23.7-49.3-4.5-49.3-4.5 17.3 2.1 13.3-25.4 13.3-25.4z"/>
						</g>
						<g id="&lt;Group&gt;">
							<path id="&lt;Path&gt;" class="s33" d="m2595.3 746.9c-1 7.3-4.1 11.5-6.9 9.4-2.8-2.1-4.3-9.8-3.3-17.1 1-7.3 4.1-11.5 6.9-9.4 2.8 2.1 4.3 9.7 3.3 17.1z"/>
						</g>
						<g id="&lt;Group&gt;">
							<path id="&lt;Path&gt;" class="s33" d="m2516.2 684.9c2.8 1.1 6 8.9 7 17.4 1 8.5-0.4 14.5-3.2 13.3-2.9-1.1-6-8.9-7.1-17.4-1-8.5 0.4-14.5 3.3-13.3z"/>
						</g>
						<g id="&lt;Group&gt;">
							<path id="&lt;Path&gt;" class="s5" d="m2593.6 745.6c-0.7 4.8-2.7 7.5-4.6 6.1-1.8-1.4-2.8-6.4-2.2-11.2 0.7-4.8 2.7-7.5 4.6-6.2 1.9 1.4 2.8 6.4 2.2 11.3z"/>
						</g>
						<g id="&lt;Group&gt;">
							<path id="&lt;Path&gt;" class="s5" d="m2517.2 689.2c2.2 0.9 4.5 6.1 5.2 11.5 0.7 5.5-0.5 9.3-2.7 8.4-2.2-0.9-4.5-6-5.2-11.5-0.6-5.5 0.6-9.2 2.7-8.4z"/>
						</g>
						<g id="&lt;Group&gt;">
							<path id="&lt;Path&gt;" class="s33" d="m2589.7 738.5c0 31.6-23 43.9-37.3 35.7q-0.9-0.6-1.8-1.2c-14.3-14-30.7-46.3-30.7-73.5 0-31.6 0.6-57.1 37.3-35.7 3.5 2.1 6.7 4.2 9.6 6.5 23.3 17.7 22.9 42 22.9 68.2z"/>
						</g>
						<g id="&lt;Group&gt;">
							<path id="&lt;Path&gt;" class="s34" d="m2633.2 924.8l-174.1-94.2 8.6-28.8c5.4-55.4 30.5-39.1 40.3-36.4q-0.1 1.5-0.1 3.1c0 28.3 19.9 62.7 44.4 76.8 24.4 14.1 44.3 2.7 44.3-25.6q0-3.4-0.4-6.9c31.8 28.5 36.2 89.5 36.2 89.5z"/>
						</g>
						<g id="&lt;Group&gt;">
							<path id="&lt;Path&gt;" class="s32" d="m2582.4 671.1c14.5 17.3 10.4 49.7 10.4 49.7l-5.8 20c3-12.1-11.7-37.4-11.9-34.6-0.2 2.8 6.1 15.4 6.1 15.4-16.6-15.1-19.6-32.5-20.6-29.5-1 3.1 4.7 16 4.7 16-11.7-14.4-17.8-31.7-17.8-31.7-1.9 10.3 13.1 28.8 13.1 28.8 0 0-7.4-7.7-18.7-21.5-11.2-13.8-17-35.3-17-35.3 8.8-27.3 43 5.4 57.5 22.7z"/>
						</g>
						<g id="&lt;Group&gt;">
							<path id="&lt;Path&gt;" class="s32" d="m2532.2 649.4c0 0 2.7 17.7-13 42.7 0 0-4.7-17.4 0-25.1 4.7-7.7 13-17.6 13-17.6z"/>
						</g>
						<g id="&lt;Group&gt;">
							<g id="&lt;Group&gt;">
								<path id="&lt;Path&gt;" class="s33" d="m2510.8 799.4c0 0-24.3 56.2-34.5 54.4-10.1-1.8-18.8-14.5-18.8-14.5 0 0-4.7-3.3 4-16.2 10.2-15.1 35.2-38.8 35.2-38.8z"/>
							</g>
							<g id="&lt;Group&gt;">
								<g id="&lt;Group&gt;">
									<path id="&lt;Path&gt;" class="s33" d="m2496.7 784.3c0 0 13.8-13.5 23.5-23.2 5.9-5.9 8.1-24 8.1-24 5.2 8.4 2.8 15.3 2.8 15.3 0 0-4.1 16.8 2.9 17.2 6.5 0.4 25.8 7.8 25.8 7.8 13 7.1 1.1 8.1 1.1 8.1 0 0-21.9-7.6-19.3-5.9 2.6 1.8 4.3 5.2 4.3 5.2 4 7.4-1.4 6.7-1.4 6.7 2.8 7-1.9 5.6-1.9 5.6 1.3 3 0.9 4.3 0.1 4.9-1 0.8-2.6 0.3-4.1-1.1-17.2-16.4-27.8-1.5-27.8-1.5z"/>
								</g>
								<g id="&lt;Group&gt;">
									<path id="&lt;Path&gt;" class="s35" d="m2561.4 779.1c0.3-0.1 0.8-0.1 1.4 0.3 1.4 0.8 4 3.1 4.2 4.3 0.2 1.1-1.4 0.9-2.8 0.5-0.7-0.2-1.9-1.1-2.2-1.5z"/>
								</g>
								<g id="&lt;Group&gt;">
									<path id="&lt;Path&gt;" class="s35" d="m2526.5 744.2c-0.2-0.5 0.5-2.8 0.6-3.3 0.2-1.3 0.6-3.9 1.4-3.3 0.7 0.6 1 2.5 1 3.9 0.1 0.8-0.5 4.1-0.7 4.2z"/>
								</g>
							</g>
						</g>
					</g>
				</g>
				<g id="&lt;Group&gt;" style="mix-blend-mode: soft-light">
					<path id="&lt;Path&gt;" class="s0" d="m2411.9 803.5c0 6.7-4.8 9.5-10.6 6.1-5.9-3.4-10.6-11.6-10.6-18.3 0-6.8 4.7-9.5 10.6-6.2 5.8 3.4 10.6 11.6 10.6 18.4z"/>
					<path id="&lt;Path&gt;" class="s0" d="m2438.1 819.3c0 6.8-4.7 9.5-10.6 6.2-5.8-3.4-10.6-11.6-10.6-18.4 0-6.7 4.8-9.5 10.6-6.1 5.9 3.4 10.6 11.6 10.6 18.3z"/>
					<path id="&lt;Path&gt;" class="s0" d="m2464.4 835.2c0 6.7-4.8 9.5-10.6 6.1-5.9-3.4-10.6-11.6-10.6-18.3 0-6.8 4.7-9.5 10.6-6.2 5.8 3.4 10.6 11.6 10.6 18.4z"/>
				</g>
			</g>
			<g id="&lt;Group&gt;">
				<path id="&lt;Path&gt;" class="s28" d="m1827.6 882l-346.5-200v-262.4l346.5 200z"/>
				<path id="&lt;Path&gt;" class="s36" d="m1856.4 865.6l-346.6-200.1v-262.3l346.6 200z"/>
				<g id="&lt;Group&gt;">
					<path id="&lt;Path&gt;" class="s37" d="m1804.3 899.4l-346.5-200.1v-262.4l346.5 200.1z"/>
					<g id="&lt;Clip Group&gt;" clip-path="url(#cp2)">
						<g id="&lt;Group&gt;">
							<g id="&lt;Group&gt;">
								<g id="&lt;Group&gt;">
									<g id="&lt;Group&gt;">
										<g id="&lt;Group&gt;">
											<g id="&lt;Group&gt;">
												<g id="&lt;Group&gt;">
													<path id="&lt;Path&gt;" class="s5" d="m1733.7 852.5l-68.1 0.6-62.3-108.7 36 7c12.7 6.1 14-4.7 15.4-12.7l-2.4-30.9 38.3 22.1 2.8 21.2c2.9 16.6 1.9 28.9 6.1 37z"/>
												</g>
											</g>
										</g>
									</g>
									<path id="&lt;Path&gt;" class="s11" d="m1655.1 728.5l37.4 22.1c0 0-4.3 36.2-36.6 27.2-38.3-10.8-24.6-27.2-24.6-27.2 0 0 21 0 23.8-22.1z"/>
								</g>
								<g id="&lt;Group&gt;">
									<g id="&lt;Group&gt;">
										<g id="&lt;Group&gt;">
											<g id="&lt;Group&gt;">
												<g id="&lt;Group&gt;">
													<g id="&lt;Group&gt;">
														<path id="&lt;Path&gt;" class="s33" d="m1637.3 662.1c0 8.7-3.9 13.6-8.8 10.7-4.9-2.8-8.9-12.2-8.9-21 0-8.7 4-13.6 8.9-10.7 4.9 2.8 8.8 12.2 8.8 21z"/>
													</g>
												</g>
											</g>
										</g>
									</g>
									<g id="&lt;Group&gt;">
										<g id="&lt;Group&gt;">
											<g id="&lt;Group&gt;">
												<g id="&lt;Group&gt;">
													<g id="&lt;Group&gt;">
														<path id="&lt;Path&gt;" class="s11" d="m1632.2 659.1c0 3.6-1.7 5.7-3.7 4.5-2-1.2-3.7-5.1-3.7-8.8 0-3.6 1.7-5.7 3.7-4.5 2 1.2 3.7 5.1 3.7 8.8z"/>
													</g>
												</g>
											</g>
										</g>
									</g>
								</g>
								<g id="&lt;Group&gt;">
									<g id="&lt;Group&gt;">
										<g id="&lt;Group&gt;">
											<g id="&lt;Group&gt;">
												<g id="&lt;Group&gt;">
													<g id="&lt;Group&gt;">
														<path id="&lt;Path&gt;" class="s33" d="m1723.6 711.8c0 8.8-4.2 13.5-9.4 10.5-5.2-2.9-9.3-12.5-9.3-21.3 0-8.7 4.1-13.4 9.3-10.4 5.2 2.9 9.4 12.5 9.4 21.2z"/>
													</g>
												</g>
											</g>
										</g>
									</g>
									<g id="&lt;Group&gt;">
										<g id="&lt;Group&gt;">
											<g id="&lt;Group&gt;">
												<g id="&lt;Group&gt;">
													<g id="&lt;Group&gt;">
														<path id="&lt;Path&gt;" class="s11" d="m1718.1 708.7c0 3.7-1.7 5.6-3.9 4.4-2.1-1.3-3.9-5.2-3.9-8.9 0-3.7 1.8-5.6 3.9-4.4 2.2 1.3 3.9 5.2 3.9 8.9z"/>
													</g>
												</g>
											</g>
										</g>
									</g>
								</g>
								<g id="&lt;Group&gt;">
									<g id="&lt;Group&gt;">
										<g id="&lt;Group&gt;">
											<g id="&lt;Group&gt;">
												<g id="&lt;Group&gt;">
													<path id="&lt;Path&gt;" class="s5" d="m1714.2 706.5c0 32.6-14.7 54-35 46.5q-4.1-1.5-8.4-4.7c-25.9-18.7-43.4-54.9-43.4-91.9-0.1-53.5 19.4-55.6 43.4-41.8q1.3 0.7 2.6 1.6c22.7 15.2 40.8 54.7 40.8 90.3z"/>
												</g>
											</g>
										</g>
									</g>
								</g>
								<g id="&lt;Group&gt;">
									<g id="&lt;Group&gt;">
										<g id="&lt;Group&gt;">
											<g id="&lt;Group&gt;">
												<g id="&lt;Group&gt;">
													<path id="&lt;Path&gt;" class="s33" d="m1714.2 706.5c0 32.6-14.7 54-35 46.5q-0.4-0.3-0.7-0.6c-26-18.7-43.4-55-43.4-91.9 0-34.3 4.9-64.6 38.3-44.3 31.6 17.2 40.8 54.7 40.8 90.3z"/>
												</g>
											</g>
										</g>
									</g>
								</g>
								<g id="&lt;Group&gt;">
									<g id="&lt;Group&gt;">
										<g id="&lt;Group&gt;">
											<g id="&lt;Group&gt;">
												<g id="&lt;Group&gt;">
													<path id="&lt;Path&gt;" class="s38" d="m1646.4 606.2c8 8.3-12.3-1.8-12.7 20.8-0.3 17-3.7 31.1-7.6 20.3-5.4-15.3-6.1-22.1-6.8-40.5-1.4-36.4 19.1-8.9 27.1-0.6z"/>
												</g>
											</g>
										</g>
									</g>
								</g>
								<g id="&lt;Group&gt;">
									<g id="&lt;Group&gt;">
										<g id="&lt;Group&gt;">
											<g id="&lt;Group&gt;">
												<g id="&lt;Group&gt;">
													<path id="&lt;Path&gt;" class="s39" d="m1704.6 637.7c6.8 0.5 14.8 17.5 16.7 33.1 1.9 15.6-4.1 31-9.8 23.4-7.9-10.8-0.7-9.5-7.2-26-7.9-19.8-2.2-30.7 0.3-30.5z"/>
												</g>
											</g>
										</g>
									</g>
								</g>
								<path id="&lt;Path&gt;" class="s40" d="m1626.8 599.6c-3.3-4.7-5.1-10.8-4.4-15.2 1.5-8.9 6-22.4 20-21 23.5 2.3 31.2 20.8 41.4 22.9 7.3 1.5 13.2 11.2 10.5 12-2.4 0.6 16.9 11.6 11.1 13.3 0 0 22.6 41-5.4 34.6-26.1-6-49.4-12.8-73.2-46.6z"/>
								<g id="&lt;Group&gt;">
									<g id="&lt;Group&gt;">
										<path id="&lt;Compound Path&gt;" fill-rule="evenodd" class="s41" d="m1667 673.3c-0.1 4.6-2.5 7.6-6.7 8.3-4.1 0.8-9.5-0.7-15.2-4.2-5.7-3.5-10.7-8.3-14.6-13.9-3.6-5.4-6-11.1-6.5-16.2q-0.4-3.6 0.4-6l-0.3 0.1c0.1-2.2-3.2-4.5-3.2-4.5l0.1-4.2 9.9 4.3c3.7 0.2 8.7 2.2 15 6 7 4.3 12.5 9.3 16.2 14.9 3.3 5.1 5 10.4 4.9 15.4zm-2.8-1.7c0.2-9.3-6.5-18.8-18.4-26-7.6-4.7-13.1-6.4-16.2-5-2.4 1-3.3 3.7-2.8 8 1 9.5 8.6 20.3 18.3 26.2 10.4 6.3 18.9 4.8 19.1-3.2z"/>
										<path id="&lt;Compound Path&gt;" fill-rule="evenodd" class="s41" d="m1721.4 693.1l-0.1 4.2c0 0-3.2-1.7-3.3 0.5l-0.3-0.4q0.7 3.3 0.1 6.3c-0.7 4.3-3.2 7.1-7 7.9-4.1 0.9-9.2-0.5-14.8-3.9-5.8-3.5-11.1-8.5-15.1-14.2-4-5.7-6.1-11.5-6-16.1 0.1-5 2-8.1 5.4-9 3.9-1.1 9.4 0.6 16.5 4.9 6.3 3.8 11.2 7.9 14.8 12.2zm-8.7-2.6c-2.9-5.1-8.3-10-16-14.6-11.9-7.3-18.8-6.1-19 3.2-0.2 8.1 8 19.7 18.3 26 9.8 6 17.7 4.6 19.1-3.4 0.7-3.6-0.1-7.4-2.4-11.2z"/>
										<g id="&lt;Group&gt;">
											<path id="&lt;Path&gt;" class="s41" d="m1678.3 671.3c-8.2-11.6-14.5-9.3-14.8-9.2l-2.2-3.2c0.1-0.1 2.2-0.9 5.6 0.1 3.1 1 8 3.7 13.4 11.3z"/>
										</g>
									</g>
									<path id="&lt;Compound Path&gt;" fill-rule="evenodd" class="s42" d="m1715.1 701.6c-1.4 8-9.3 9.4-19.1 3.4-10.3-6.2-18.5-17.9-18.4-26 0.3-9.3 7.2-10.4 19.1-3.2 7.7 4.7 13.1 9.6 16 14.6 2.3 3.8 3 7.6 2.4 11.2zm-3.3-11c-2.7-4.7-7.8-9.3-15.1-13.7-5.6-3.4-10.1-4.9-13.1-4.4-3.1 0.5-4.7 3-4.8 7.3-0.1 7.4 7.6 18.3 17.2 24.1 9.2 5.6 16.6 4.3 17.9-3.1 0.6-3.4-0.1-6.8-2.1-10.2z"/>
									<path id="&lt;Compound Path&gt;" fill-rule="evenodd" class="s42" d="m1629.6 640.9c3-1.4 8.5 0.1 16.2 4.6 11.8 7 18.6 16.4 18.6 25.8-0.1 8.1-8.5 9.8-18.9 3.8-9.8-5.8-17.4-16.4-18.6-26-0.5-4.3 0.4-7.1 2.7-8.2zm-1.5 8.8c1.1 8.9 8.3 18.9 17.5 24.3 9.6 5.6 17.5 4.1 17.6-3.4 0-4.3-1.5-8.6-4.4-12.7-3-4.1-7.5-8-13.1-11.3-7.3-4.2-12.4-5.7-15.2-4.4-2.1 1-2.9 3.5-2.4 7.5z"/>
									<g id="&lt;Group&gt;">
										<path id="&lt;Path&gt;" class="s25" d="m1682.8 685q0-0.1-0.1-0.1c-1.3-0.8-2.3-2.6-2.3-4.1 0-0.4 0.3-8.7 8.2-7.1 1.2 0.3 2.6 1.8 2.9 3.5 0.4 1.7-0.2 2.8-1.5 2.5-4.5-0.9-4.8 3.5-4.8 4-0.1 1.4-1.1 2-2.4 1.3z"/>
									</g>
									<g id="&lt;Group&gt;">
										<path id="&lt;Path&gt;" class="s25" d="m1631.1 653.7q0-0.1 0-0.1c-1.3-0.8-2.4-2.6-2.3-4.1 0-0.4 0.3-8.7 8.1-7.1 1.3 0.3 2.6 1.9 3 3.5 0.4 1.7-0.3 2.8-1.6 2.6-4.6-1-4.8 3.8-4.8 3.9 0 1.4-1.1 2-2.4 1.3z"/>
									</g>
								</g>
							</g>
						</g>
						<g id="&lt;Group&gt;">
							<g id="&lt;Group&gt;">
								<g id="&lt;Group&gt;">
									<path id="&lt;Path&gt;" class="s33" d="m1588.8 801.9c0 0 7.7 56.6-2.7 73.3-6.9 11.2-16.3 2.7-16.3 2.7 0 0-14-11.2-20.6-27.9-6.6-16.7 19.9-65.4 19.9-65.4z"/>
								</g>
							</g>
						</g>
						<g id="&lt;Group&gt;">
							<g id="&lt;Group&gt;">
								<g id="&lt;Group&gt;">
									<path id="&lt;Path&gt;" class="s33" d="m1765.8 897.4c0 0 24.3 71.6 17.4 79.7-6.9 8.1-20.8 3.5-20.8 3.5 0 0-9.3-2.2-15.7-19.6-9.6-25.9-0.5-68.7-0.5-68.7z"/>
								</g>
							</g>
						</g>
						<g id="&lt;Group&gt;">
							<g id="&lt;Group&gt;">
								<path id="&lt;Path&gt;" class="s43" d="m1593.6 930.6c1.1-4.7 13.9-42.9 12.7-49q-0.2-0.8-0.2-1.6l-2.4-60.4-10 34.4-43.2-45.9 28.2-63.7c0.5-3.7 1.7-6.9 3.6-9.3 2.6-3.2 3.3-5.5 10.1-2.9l40.4 10.9c4.3 19.5 26.3 49.9 38.6 64.5l-2.9 187.5-70-40.4c-4-2.3-7.1-8.2-6.5-12.4z"/>
							</g>
						</g>
						<g id="&lt;Group&gt;">
							<g id="&lt;Group&gt;">
								<path id="&lt;Path&gt;" class="s43" d="m1739.4 941.8l-12.2-49.7-4.5 45.3c-3.8 8.8 8.9 23.2 10.4 51.2l5.2 36.3c0.8 6-2.8 9-7.7 6.2l-65.3-37.9 2.7-187.5c15.6 3.4 32.7 1.7 38-14.3l25 20.9c8.1 6.2 15.4 14.9 20.4 24.5l31 112.1z"/>
							</g>
						</g>
						<g id="&lt;Group&gt;">
							<g id="&lt;Group&gt;">
								<path id="&lt;Path&gt;" class="s33" d="m1591.5 852.6l-42.2-2.4 4.5-130.3c-6.3-9.4-17.2-33-19.2-38.8-1.9-5.9 0.5-8.7 1.8-13.5 1.2-4.8 12.1-4.8 15.3-2.9 3.2 1.9 7.8 20.4 10.1 20.2 3.1-0.2 3.1-7.1 3.1-7.1 0 0-3.4-11.6-0.2-13.1 3.1-1.6 5.1 3 5.1 3 0 0-1.6 10.4 2.9 22.8 4.4 12.4-0.7 28.1-0.7 28.1z"/>
							</g>
							<g id="&lt;Group&gt;">
								<path id="&lt;Path&gt;" class="s33" d="m1551.3 675.7c0 0-2.1-5-2.7-6.2-0.5-1.2-16.6-36.5-16.6-36.5 0.9-5.9 3.4-1.5 5.4 0 1.9 1.5 18.1 39 18.1 39z"/>
							</g>
							<g id="&lt;Group&gt;">
								<path id="&lt;Path&gt;" class="s33" d="m1544.1 673.3c0 0-2.4-5.1-3.1-6.3-0.6-1.3-19.1-37.7-19.1-37.7 0.4-6.4 3.1-1.8 5.2-0.4 2 1.4 20.7 40.1 20.7 40.1z"/>
							</g>
							<g id="&lt;Group&gt;">
								<path id="&lt;Path&gt;" class="s33" d="m1541 681.1c0 0-2.4-5-3.1-6.3-0.6-1.3-19-37.6-19-37.6 0.3-6.5 3.1-1.9 5.1-0.5 2.1 1.4 20.8 40.1 20.8 40.1z"/>
							</g>
							<g id="&lt;Group&gt;">
								<path id="&lt;Path&gt;" class="s33" d="m1537.7 686.7c0 0-2-3.9-2.5-4.8-0.5-1-15.5-28.9-15.5-28.9 0.1-5.1 2.3-1.6 3.9-0.6 1.6 1 16.9 30.7 16.9 30.7z"/>
							</g>
						</g>
					</g>
				</g>
				<g id="&lt;Group&gt;" style="mix-blend-mode: soft-light">
					<path id="&lt;Path&gt;" class="s0" d="m1474.2 745.8c0 7.6-5.4 10.7-12 6.9-6.6-3.8-12-13.1-12-20.8 0-7.6 5.4-10.7 12-6.9 6.6 3.8 12 13.1 12 20.8z"/>
					<path id="&lt;Path&gt;" class="s0" d="m1503.9 763.7c0 7.7-5.4 10.8-12 6.9-6.6-3.8-12-13.1-12-20.7 0-7.7 5.4-10.8 12-6.9 6.6 3.8 12 13.1 12 20.7z"/>
					<path id="&lt;Path&gt;" class="s0" d="m1533.6 781.7c0 7.6-5.3 10.7-12 6.9-6.6-3.8-11.9-13.1-11.9-20.8 0-7.6 5.3-10.7 11.9-6.9 6.7 3.8 12 13.1 12 20.8z"/>
				</g>
			</g>
			<g id="&lt;Group&gt;">
				<g id="&lt;Group&gt;" style="mix-blend-mode: soft-light">
					<path id="&lt;Path&gt;" class="s0" d="m2111.4 1006.5c0 4.9-3.4 6.9-7.6 4.5-4.3-2.5-7.7-8.4-7.7-13.3 0-4.9 3.4-6.9 7.7-4.5 4.2 2.5 7.6 8.4 7.6 13.3z"/>
					<path id="&lt;Path&gt;" class="s0" d="m2130.5 1018c0 4.9-3.5 6.9-7.7 4.4-4.2-2.4-7.7-8.4-7.7-13.3 0-4.9 3.5-6.8 7.7-4.4 4.2 2.5 7.7 8.4 7.7 13.3z"/>
					<path id="&lt;Path&gt;" class="s0" d="m2149.5 1029.5c0 4.9-3.4 6.9-7.7 4.4-4.2-2.4-7.6-8.4-7.6-13.3 0-4.9 3.4-6.8 7.6-4.4 4.3 2.5 7.7 8.4 7.7 13.3z"/>
				</g>
				<path id="&lt;Path&gt;" class="s28" d="m2338.6 1083.7l-222.1-128.2v-168.1l222.1 128.2z"/>
				<path id="&lt;Path&gt;" class="s36" d="m2361.6 1072.6l-222.1-128.2v-168.1l222.1 128.2z"/>
				<g id="&lt;Group&gt;">
					<path id="&lt;Path&gt;" class="s44" d="m2319.5 1102.9l-222-128.2v-168.1l222 128.2z"/>
					<path id="&lt;Path&gt;" class="s45" d="m2319.7 1102.6l-222-128.2v-168.1l222 128.2z"/>
					<g id="&lt;Clip Group&gt;" clip-path="url(#cp3)">
						<g id="&lt;Group&gt;">
							<g id="&lt;Group&gt;">
								<g id="&lt;Group&gt;">
									<g id="&lt;Group&gt;">
										<g id="&lt;Group&gt;">
											<g id="&lt;Group&gt;">
												<path id="&lt;Path&gt;" class="s5" d="m2260.5 1106.2l-58.6 0.6-53.6-93.4 31 6c10.9 5.3 12.1-4 13.2-10.9l-2-26.6 32.9 19 2.4 18.2c2.5 14.3 1.6 24.9 5.3 31.8z"/>
											</g>
										</g>
									</g>
								</g>
							</g>
							<g id="&lt;Group&gt;">
								<path id="&lt;Path&gt;" class="s11" d="m2192.9 999.7l32.1 19c0 0-11.7 15.1-32.2 8.1-33.3-11.2-20.4-8.1-20.4-8.1 0 0 18 0 20.5-19z"/>
							</g>
						</g>
						<g id="&lt;Group&gt;">
							<g id="&lt;Group&gt;">
								<g id="&lt;Group&gt;">
									<g id="&lt;Group&gt;">
										<g id="&lt;Group&gt;">
											<g id="&lt;Group&gt;">
												<g id="&lt;Group&gt;">
													<g id="&lt;Group&gt;">
														<path id="&lt;Path&gt;" class="s33" d="m2180.8 948.5c0 7.1-3.1 11-7.1 8.7-3.9-2.3-7.1-9.9-7.1-17 0-7 3.2-10.9 7.1-8.7 4 2.3 7.1 9.9 7.1 17z"/>
													</g>
												</g>
											</g>
										</g>
									</g>
								</g>
								<g id="&lt;Group&gt;">
									<g id="&lt;Group&gt;">
										<g id="&lt;Group&gt;">
											<g id="&lt;Group&gt;">
												<g id="&lt;Group&gt;">
													<g id="&lt;Group&gt;">
														<path id="&lt;Path&gt;" class="s11" d="m2176.7 946.1c0 2.9-1.3 4.6-3 3.6-1.6-0.9-3-4.1-3-7.1 0-2.9 1.4-4.5 3-3.6 1.7 1 3 4.1 3 7.1z"/>
													</g>
												</g>
											</g>
										</g>
									</g>
								</g>
							</g>
							<g id="&lt;Group&gt;">
								<g id="&lt;Group&gt;">
									<g id="&lt;Group&gt;">
										<g id="&lt;Group&gt;">
											<g id="&lt;Group&gt;">
												<g id="&lt;Group&gt;">
													<g id="&lt;Group&gt;">
														<path id="&lt;Path&gt;" class="s33" d="m2250.4 988.7c0 7-3.3 10.8-7.5 8.4-4.2-2.4-7.6-10.1-7.6-17.2 0-7 3.4-10.8 7.6-8.4 4.2 2.4 7.5 10.1 7.5 17.2z"/>
													</g>
												</g>
											</g>
										</g>
									</g>
								</g>
								<g id="&lt;Group&gt;">
									<g id="&lt;Group&gt;">
										<g id="&lt;Group&gt;">
											<g id="&lt;Group&gt;">
												<g id="&lt;Group&gt;">
													<g id="&lt;Group&gt;">
														<path id="&lt;Path&gt;" class="s11" d="m2246 986.1c0 3-1.4 4.6-3.1 3.6-1.7-1-3.2-4.3-3.2-7.2 0-3 1.5-4.6 3.2-3.5 1.7 1 3.1 4.2 3.1 7.1z"/>
													</g>
												</g>
											</g>
										</g>
									</g>
								</g>
							</g>
							<g id="&lt;Group&gt;">
								<g id="&lt;Group&gt;">
									<g id="&lt;Group&gt;">
										<g id="&lt;Group&gt;">
											<g id="&lt;Group&gt;">
												<g id="&lt;Group&gt;">
													<path id="&lt;Path&gt;" class="s33" d="m2242.9 984.4c0 29.8-21 42-35.1 33.7-12.2-7.2-35-44.4-35-74.2 0-29.8 15.7-44.9 35-33.7 19.4 11.1 35.1 44.4 35.1 74.2z"/>
												</g>
											</g>
										</g>
									</g>
								</g>
							</g>
							<g id="&lt;Group&gt;">
								<g id="&lt;Group&gt;">
									<g id="&lt;Group&gt;">
										<g id="&lt;Group&gt;">
											<g id="&lt;Group&gt;">
												<g id="&lt;Group&gt;">
													<path id="&lt;Path&gt;" class="s46" d="m2190.3 902.3c5.8 6.7-4.8 5.5-8.9 15.1-4.1 9.6-6.9 20.1-9.2 12.1-3.4-11.4-3.5-16.3-3-29.5 1-25.9 15.4-4.4 21.1 2.3z"/>
												</g>
											</g>
										</g>
									</g>
								</g>
							</g>
							<g id="&lt;Group&gt;">
								<g id="&lt;Group&gt;">
									<g id="&lt;Group&gt;">
										<g id="&lt;Group&gt;">
											<g id="&lt;Group&gt;">
												<g id="&lt;Group&gt;">
													<path id="&lt;Path&gt;" class="s46" d="m2238.3 934.1c4.9 1.9 9.9 11.9 11.2 22.4 1.3 10.5-2.8 20.8-6.6 15.7-5.3-7.3-2.5-7.6-6.9-18.7-5.2-13.3-2.6-21.2 2.3-19.4z"/>
												</g>
											</g>
										</g>
									</g>
								</g>
							</g>
							<g id="&lt;Group&gt;">
								<path id="&lt;Path&gt;" class="s46" d="m2177.3 894.4c-2-3.6-2.6-7.5-1.4-9.9 2.4-4.8 7.9-11.5 18.9-7.2 18.7 7.2 22.3 19.9 30.3 23.7 5.6 2.6 8.2-0.3 8.2-0.3 0 0 0.8 10.1-1.5 9.8-2-0.2 6.6-0.3 9.2-4.2q0.5-0.6 0.7-1.4c1.3-5.2 2.1 16.6-2.8 16.1 0 0 3.8-2 5.8-4 0 0 6.7 33.5-14.9 22.8-20.2-10-38-19.8-52.5-45.4z"/>
							</g>
						</g>
					</g>
				</g>
			</g>
			<g id="&lt;Group&gt;">
				<path id="&lt;Path&gt;" class="s28" d="m2297.2 832.6l-287-166.3 0.4-217.6 287 166.4z"/>
				<path id="&lt;Path&gt;" class="s28" d="m2326.7 819.1l-287-166.4 0.4-217.5 287 166.4z"/>
				<g id="&lt;Group&gt;">
					<path id="&lt;Path&gt;" class="s47" d="m2268.8 843.9l-287-166.4 0.4-217.6 287 166.4z"/>
					<path id="&lt;Path&gt;" class="s48" d="m2267.4 843.1l-286.9-166.4 0.3-217.6 287 166.4z"/>
					<g id="&lt;Clip Group&gt;" clip-path="url(#cp4)">
						<g id="&lt;Group&gt;">
							<g id="&lt;Group&gt;">
								<g id="&lt;Group&gt;">
									<g id="&lt;Group&gt;">
										<g id="&lt;Group&gt;">
											<g id="&lt;Group&gt;">
												<g id="&lt;Group&gt;">
													<path id="&lt;Path&gt;" class="s33" d="m2113.4 730.1c4-2.9 9.2-6.8 11.9-19.1l2.6-16.7 35.7 20.7-2.3 26.3c1.3 8.8 2.5 20.4 14.3 28.3l21.7 25.5-47.4 42-51.1-105.8z"/>
												</g>
											</g>
										</g>
									</g>
								</g>
							</g>
							<g id="&lt;Group&gt;">
								<g id="&lt;Group&gt;">
									<path id="&lt;Path&gt;" class="s49" d="m2164 868.4c-0.1 51.6 31.3 93.6-30.3 55.4-47.5-29.5-30.1-38.7-30-90.4 0-26.4 3.6-48.2 9.3-61.9 5.3 12.6 14.5 24.2 25 30.3 7.3 4.2 14 5.1 19.2 3 4.2 18.7 6.8 41 6.8 63.6z"/>
								</g>
							</g>
							<g id="&lt;Group&gt;">
								<g id="&lt;Group&gt;">
									<path id="&lt;Path&gt;" class="s50" d="m2087 859.6c0.9-4.2 0.9-9.1 0-14.4q-0.2-0.7-0.2-1.4l-1-38.9-9.3 17.4-23.5-25.4 19.8-65.8c0.4-3.2 1.3-6 2.9-8.2 2-2.9 2.6-5 8.1-3l19.4 7.3c3.5 16.8 22 39.7 31.8 51.9l-4.8 144.5-52.2-28.9z"/>
								</g>
							</g>
							<g id="&lt;Group&gt;">
								<g id="&lt;Group&gt;">
									<path id="&lt;Path&gt;" class="s50" d="m2211.9 906l-13.2-36.1-10.5 28c-3.1 8.1-3.1 18.9-0.2 30.6l10.5 36-49.9-30.2-2.5-146.2c12.4 2.1 27.8-1.8 32.1-16.6l16 12.7c6.5 5.1 12.3 12.5 16.3 20.9l25.8 106.1z"/>
								</g>
							</g>
							<g id="&lt;Group&gt;">
								<path id="&lt;Path&gt;" class="s5" d="m2124.6 707.6l36.6 27.1c0 0-21.1 18.9-47.8-4.6 0 0 14.6-14.5 11.2-22.5z"/>
							</g>
							<g id="&lt;Group&gt;">
								<g id="&lt;Group&gt;">
									<g id="&lt;Group&gt;">
										<g id="&lt;Group&gt;">
											<g id="&lt;Group&gt;">
												<g id="&lt;Group&gt;">
													<path id="&lt;Path&gt;" class="s33" d="m2188.1 710.1c-2.8 3.5-7.5 3-10.4-1.1-2.8-4.1-2.9-10.2-0.1-13.7 2.8-3.5 7.5-3.1 10.4 1 2.8 4.1 2.9 10.3 0.1 13.8z"/>
												</g>
											</g>
										</g>
									</g>
								</g>
								<g id="&lt;Group&gt;">
									<g id="&lt;Group&gt;">
										<g id="&lt;Group&gt;">
											<g id="&lt;Group&gt;">
												<g id="&lt;Group&gt;">
													<path id="&lt;Path&gt;" class="s11" d="m2185 705.8c-1.1 1.4-3.1 1.2-4.3-0.5-1.2-1.7-1.2-4.3 0-5.7 1.1-1.5 3.1-1.3 4.3 0.4 1.2 1.7 1.2 4.3 0 5.8z"/>
												</g>
											</g>
										</g>
									</g>
								</g>
							</g>
							<g id="&lt;Group&gt;">
								<g id="&lt;Group&gt;">
									<g id="&lt;Group&gt;">
										<g id="&lt;Group&gt;">
											<g id="&lt;Group&gt;">
												<path id="&lt;Path&gt;" class="s33" d="m2180.2 701.1c-0.1 29.7-22.5 41.1-38.1 31.8-14.2-8.6-35-45.1-35-74.8 0.1-29.7 14.3-39.6 35.2-27.5 21 12.2 37.9 40.7 37.9 70.5z"/>
											</g>
										</g>
									</g>
								</g>
							</g>
							<g id="&lt;Group&gt;">
								<g id="&lt;Group&gt;">
									<path id="&lt;Path&gt;" class="s51" d="m2161.7 604.4c30.1 39.8 23.2 34.5 27 61.6 3.9 27.8-7.3 36.6-7.3 36.6-3.3-28.9-26.8-50-26.8-50l20.7 30.6c-30.2-22.3-55.8-63.4-55.8-63.4l-5.6-28.7c0 0 28.9-11.6 47.8 13.3z"/>
								</g>
							</g>
							<g id="&lt;Group&gt;">
								<g id="&lt;Group&gt;">
									<g id="&lt;Group&gt;">
										<g id="&lt;Group&gt;">
											<g id="&lt;Group&gt;">
												<g id="&lt;Group&gt;">
													<path id="&lt;Path&gt;" class="s33" d="m2112.1 658.9c0 7.6-3.5 11.7-7.8 9.2-4.2-2.5-7.7-10.6-7.7-18.2 0-7.5 3.5-11.6 7.8-9.2 4.2 2.5 7.7 10.6 7.7 18.2z"/>
												</g>
											</g>
										</g>
									</g>
								</g>
								<g id="&lt;Group&gt;">
									<g id="&lt;Group&gt;">
										<g id="&lt;Group&gt;">
											<g id="&lt;Group&gt;">
												<g id="&lt;Group&gt;">
													<path id="&lt;Path&gt;" class="s11" d="m2107.6 656.3c0 3.1-1.5 4.9-3.3 3.8-1.7-1-3.2-4.4-3.2-7.5 0-3.2 1.5-4.9 3.3-3.9 1.7 1 3.2 4.4 3.2 7.6z"/>
												</g>
											</g>
										</g>
									</g>
								</g>
							</g>
							<g id="&lt;Group&gt;">
								<g id="&lt;Group&gt;">
									<g id="&lt;Group&gt;">
										<path id="&lt;Path&gt;" class="s33" d="m2196.1 817.3c0 0 29.3 55.6 36.8 85.6 5.1 20.1-1.5 20.9-1.5 20.9 0 0-8.9 2.7-19.5-8.6-10.6-11.4-29.6-97.1-29.6-97.1z"/>
									</g>
								</g>
							</g>
							<g id="&lt;Group&gt;">
								<g id="&lt;Group&gt;">
									<path id="&lt;Path&gt;" class="s51" d="m2107.2 658c0 0-15.5-36.4-12.9-55.4 4.8-35.2 30.5-13.9 30.5-13.9l0.3 41c0 0-17.4 1.4-17.9 28.3z"/>
								</g>
							</g>
							<g id="&lt;Group&gt;">
								<g id="&lt;Group&gt;">
									<path id="&lt;Path&gt;" class="s33" d="m2181.4 814.8q-0.2-0.6-0.2-1.2 0.2-1.5-0.1-3.3c-0.9-4.6-2.5-15.9 1.6-23.7 4.1-8.1 5.5-14.6 6-17.6 0.3-2.1 2.9-1.4 4.1 1.2q0 0 0 0.1c1.9 4.1 0.9 11 0.9 11 0 0-0.9 4.7 1.2 7.9 1.6 2.4 6.9-5.6 9.3-3.7 2.4 2 5 3.9 5.2 8.4 0.3 4.4 1.6 8.8-0.4 10.8-2 2-10 4.5-12.7 15-0.2 0.7-0.1 1.7 0.4 2.6l7 14.2c1.4 2.9-0.3 4.8-2.4 2.8l-16.9-15.8c-0.6-0.7-1.2-1.6-1.4-2.5z"/>
								</g>
								<g id="&lt;Group&gt;">
									<g id="&lt;Group&gt;">
										<path id="&lt;Path&gt;" class="s52" d="m2194.8 790.9c0 0 6.4-28.4 8-28.6 1.6-0.3 2.9-3.3 5.3 3.5 0 0-6.7 26.2-7 27.1-0.2 0.9-1.1 4.7-1.1 4.7z"/>
									</g>
									<g id="&lt;Group&gt;">
										<path id="&lt;Path&gt;" class="s53" d="m2207.9 765.5c0 0-5.1 19.5-5.3 20.2-0.2 0.7-0.8 3.5-0.8 3.5l0.1-3.7c-0.1-1.5 5.1-21 5.1-21-0.5-1.2-0.9-2-1.2-2.5 0.6 0.4 1.3 1.4 2.1 3.5z"/>
									</g>
								</g>
								<g id="&lt;Group&gt;">
									<g id="&lt;Group&gt;">
										<path id="&lt;Path&gt;" class="s52" d="m2206.4 798.2c0 0 12-11.1 13.4-10.3 1.4 0.8 3.2-0.1 3.7 4.8 0 0-11.8 9.7-12.3 10.1-0.4 0.3-1.9 1.8-1.9 1.8z"/>
									</g>
									<g id="&lt;Group&gt;">
										<path id="&lt;Path&gt;" class="s53" d="m2223.5 792.7c0 0-11.8 9.7-12.3 10.1-0.4 0.3-1.9 1.8-1.9 1.8l1.3-2.4c0.4-1 12.3-10.7 12.3-10.7q-0.1-1.4-0.4-2.3c0.5 0.6 0.8 1.7 1 3.5z"/>
									</g>
								</g>
								<g id="&lt;Group&gt;">
									<g id="&lt;Group&gt;">
										<path id="&lt;Path&gt;" class="s52" d="m2204.3 792.8c0 0 10-18.4 11.4-18.1 1.5 0.3 3.2-1.5 4.3 4 0 0-10 16.8-10.4 17.4-0.3 0.6-1.6 3-1.6 3z"/>
									</g>
									<g id="&lt;Group&gt;">
										<path id="&lt;Path&gt;" class="s53" d="m2220.5 779c0 0-8.5 14.2-8.8 14.7-0.3 0.5-1.4 2.6-1.4 2.6l0.7-3c0.1-1.2 8.7-15.4 8.7-15.4-0.2-1-0.5-1.8-0.8-2.4 0.6 0.5 1.1 1.5 1.6 3.5z"/>
									</g>
								</g>
								<g id="&lt;Group&gt;">
									<g id="&lt;Group&gt;">
										<path id="&lt;Path&gt;" class="s52" d="m2202.3 788.1c0 0 7.4-21.2 8.9-21.1 1.4 0 2.7-2.1 4.4 3.5 0 0-7.7 19.4-7.9 20.1-0.3 0.7-1.3 3.5-1.3 3.5z"/>
									</g>
									<g id="&lt;Group&gt;">
										<path id="&lt;Path&gt;" class="s53" d="m2215.6 770.5c0 0-6.8 16.2-7 16.7-0.3 0.6-1.1 2.9-1.1 2.9l0.4-3.2c0.1-1.2 6.9-17.4 6.9-17.4-0.4-1-0.7-1.8-1-2.4 0.5 0.5 1.1 1.5 1.8 3.4z"/>
									</g>
								</g>
							</g>
							<g id="&lt;Group&gt;">
								<g id="&lt;Group&gt;">
									<g id="&lt;Group&gt;">
										<path id="&lt;Path&gt;" class="s11" d="m2038.1 689.8c0.1-1.1 0.4-2 0.6-2.9q0.5-1.3 1-2.5 0.6-1.2 1.2-2.4l0.6-1.1q0.1-0.3 0.3-0.6c0.1-0.2 0.2-0.4 0.2-0.7 0.1 0.4 0.2 0.7 0.2 1q0 0.5 0 0.9 0 0.9-0.2 1.6-0.3 1.5-0.9 2.7-0.6 1.3-1.3 2.3c-0.5 0.6-1 1.3-1.7 1.7z"/>
									</g>
								</g>
							</g>
							<g id="&lt;Group&gt;">
								<g id="&lt;Group&gt;">
									<g id="&lt;Group&gt;">
										<g id="&lt;Group&gt;">
											<g id="&lt;Group&gt;">
												<path id="&lt;Path&gt;" class="s33" d="m2039.7 726.2c0 0-20-34.9-20.8-40.7-0.7-5.7-1.1-15.7 0.4-17.9 1.5-2.2 3.2-4.9 3.2-4.9 0 0 3-1.1 4.1 2.1 1.2 3.1-3.5 5.6-3.5 5.6 0 0 0.7 5.1-0.1 6.7 0 0 2.5-8.4 4.1-9.6 1.6-1.3 1.6-1.3 1.6-1.3 0 0 3.1 0.7 3.3 3.1 0.2 2.5-4.2 11-4.2 11l5.1-9.9c0 0 3-0.3 3.4 2.6 0.3 2.8-3.6 10.3-3.6 10.3l4.9-7.5c0 0 2.4 0.7 3.6 3.2 1.1 2.4-2.9 8.4-2.9 8.4 0 0 7.9 11.5 10.3 22.9 2.4 11.5 6 21.6 6 21.6l-13.1 0.2z"/>
											</g>
											<g id="&lt;Group&gt;">
												<path id="&lt;Compound Path&gt;" fill-rule="evenodd" class="s11" d="m2039.7 726.2q-2.5-4.2-4.8-8.5-2.4-4.2-4.8-8.5-2.3-4.2-4.6-8.6c-1.5-2.8-3-5.7-4.3-8.7-0.7-1.4-1.4-2.9-1.9-4.4q-0.2-0.6-0.4-1.2-0.1-0.2-0.1-0.5-0.1-0.2-0.1-0.3 0-0.2 0-0.3-0.1-1.1-0.2-2.1-0.4-4.2-0.5-8.2 0-2 0.2-3.9 0.1-1 0.3-1.9c0.1-0.6 0.2-1.1 0.5-1.6q0.1-0.2 0.2-0.3l0.2-0.4 0.4-0.6 0.9-1.3 1.6-2.5h0.1q0.6-0.2 1.4-0.2c0.5 0.1 1 0.2 1.6 0.6 0.3 0.2 0.6 0.5 0.9 0.8q0.3 0.6 0.5 1.1 0.2 0.6 0.2 1.1 0 0.5-0.1 0.9c-0.2 0.6-0.4 1-0.7 1.4q-0.4 0.5-0.9 1-0.9 0.8-2.1 1.4 0.2 0.9 0.2 1.8 0.1 0.9 0.1 1.8 0 0.5 0 1 0.2-0.6 0.4-1.2 0.6-1.6 1.2-3.1c0.4-1 0.8-2 1.4-2.8q0.2-0.3 0.5-0.6 0.2-0.2 0.5-0.4l1.1-0.9h0.1q0.5 0.1 1 0.4 0.5 0.2 1 0.6c0.4 0.2 0.7 0.6 1 1.1 0.3 0.4 0.4 0.9 0.4 1.3 0 0.5-0.1 0.8-0.1 1.2q-0.2 0.5-0.3 1-0.3 0.9-0.7 1.8 0 0.1 0 0.2l1.8-3.5v-0.1q0.5 0 1 0.1 0.4 0.1 0.9 0.3c0.4 0.2 0.8 0.4 1.1 0.8 0.3 0.5 0.5 1 0.6 1.5q0.1 0.3 0.1 0.6 0 0.3 0 0.6-0.1 0.5-0.2 1-0.2 1-0.5 1.9-0.4 1.2-0.8 2.3l2.3-3.7 0.1-0.1 0.1 0.1q0.4 0.1 0.9 0.3 0.4 0.3 0.8 0.6c0.6 0.4 1.2 1 1.7 1.7q0.2 0.3 0.4 0.6 0 0.1 0.1 0.3 0.1 0.1 0.1 0.3c0.2 0.5 0.2 0.8 0.2 1.2-0.1 0.6-0.2 1.2-0.4 1.7-0.3 1.1-0.8 2-1.2 2.9q-0.7 1.3-1.4 2.4 1.6 2.5 3 5 1.6 2.8 2.9 5.6c1.7 3.7 3.2 7.6 4.1 11.4q0.3 1.4 0.6 2.7 0.3 1.4 0.6 2.8 0.7 2.8 1.4 5.6 0.8 2.8 1.6 5.7 0.9 2.8 1.9 5.6l0.1 0.3h-0.2-6.6-3.3-3.2-0.1v-0.1zm-16.5-55.6q0-0.1 0-0.1v0.1q0 0 0 0zm0.3 4.5q-0.2 0.6-0.4 1.2 0.1-0.4 0.1-0.7 0.1-0.8 0-1.7 0-0.8-0.1-1.7 0-0.9-0.2-1.8v-0.1l0.1-0.1q1.1-0.6 2-1.5 0.5-0.4 0.9-1c0.3-0.4 0.5-0.8 0.6-1.3 0.1-0.4 0.2-1-0.1-1.6q-0.1-0.5-0.4-0.9-0.3-0.4-0.6-0.6c-0.5-0.4-1-0.5-1.5-0.5q-0.6 0-1.2 0.1l-3.3 5.1c-0.2 0.4-0.3 1-0.5 1.6q-0.1 0.8-0.2 1.7c-0.1 1.3-0.2 2.6-0.2 3.9q0 4 0.4 8.1 0.1 1.1 0.2 2.1 0 0.1 0.1 0.3v0.2q0.1 0.3 0.1 0.5 0.2 0.6 0.4 1.1c0.5 1.5 1.2 2.9 1.8 4.4q1 2.2 2.1 4.3 1.1 2.2 2.2 4.4 2.2 4.3 4.5 8.5 2.3 4.3 4.7 8.6 2.3 4.2 4.7 8.5l1.8 5.8 3.2-0.1 3.3-0.1 3.3-2 3.1 2.1q-1-2.8-1.9-5.6-0.9-2.9-1.6-5.7-0.8-2.8-1.5-5.6-0.3-1.4-0.7-2.8-0.3-1.4-0.6-2.8c-0.8-3.7-2.3-7.5-4-11.2q-1.3-2.7-2.8-5.4c-1-1.8-2.1-3.6-3.2-5.2l-0.2-0.3 0.1-0.2q0.8-1.2 1.5-2.6c0.5-0.8 0.9-1.8 1.2-2.8 0.2-0.5 0.3-1 0.4-1.6 0-0.3 0-0.6-0.1-0.8q0-0.1-0.1-0.2 0-0.1-0.1-0.2-0.1-0.2-0.3-0.5c-0.7-1.1-1.8-1.8-2.8-2.1l-4.8 7.3-0.4-0.5q0.8-1.6 1.5-3.2c0.5-1.1 0.9-2.2 1.3-3.4q0.3-0.9 0.6-1.8 0.1-0.5 0.1-1 0.1-0.3 0.1-0.5-0.1-0.3-0.1-0.5c-0.1-0.4-0.2-0.8-0.4-1-0.3-0.3-0.5-0.5-0.8-0.7-0.6-0.2-1.2-0.3-1.7-0.3l-5.2 9.8q0.8-1.7 1.6-3.4 0.8-1.7 1.5-3.4l-2.7 5.2q0.5-1 1-2.1 0.8-1.7 1.5-3.4 0.4-0.9 0.7-1.9 0.1-0.5 0.2-1 0.2-0.5 0.2-1c0-0.4-0.1-0.9-0.4-1.2-0.2-0.4-0.5-0.7-0.8-1-0.7-0.5-1.3-0.7-2-0.9l-1.1 0.8q-0.2 0.2-0.5 0.5-0.3 0.2-0.5 0.5c-0.5 0.8-0.9 1.8-1.4 2.8q-0.6 1.5-1.1 3.1-0.4 1.1-0.7 2.2 0-0.2 0-0.5 0.1-0.3 0.1-0.7zm-0.6 2l0.2 0.2q0.2-0.4 0.3-1-0.2 0.5-0.3 1l-0.2-0.3q0.1-0.3 0.2-0.7-0.1 0.4-0.2 0.8zm12.1 2.1l-2.5 3.9 0.4 0.5q0.8-1.6 1.6-3.2 0.2-0.6 0.5-1.2zm3.7 8.3q-0.1-0.1-0.2-0.3v0.5q0.1-0.1 0.2-0.2zm2.8 44.5l0.1 0.1zm-3.8-55.7v-0.1h-0.2q0.1 0 0.2 0.1zm-4.7-5.6v-0.1 0.1q0 0 0 0zm-4.3-4.3h-0.1q0 0 0.1 0zm-6.1-3.5v0.1q0 0 0-0.1zm5.7 16l-0.7 1.3q0.3-0.7 0.7-1.3z"/>
											</g>
										</g>
									</g>
									<g id="&lt;Group&gt;">
										<path id="&lt;Path&gt;" class="s33" d="m2022 663.5c1.1-1.5 7.6-5.7 10.1-3.1 2.4 2.6-7.3 6.9-7.3 6.9 0 0-3.9-2.4-2.8-3.8z"/>
									</g>
									<g id="&lt;Group&gt;">
										<g id="&lt;Group&gt;">
											<g id="&lt;Group&gt;">
												<path id="&lt;Path&gt;" class="s11" d="m2022.9 676.1q-0.3-1.7-0.6-3.4-0.1-0.8-0.3-1.6-0.1-0.8-0.2-1.6v-0.3l0.2-0.2q1.4-1 2.8-1.9 0.3-0.2 0.7-0.4 0.4-0.2 0.7-0.4l1.5-0.8q1.4-0.8 2.8-1.7 0.7-0.4 1.3-0.9 0.3-0.3 0.6-0.7c0.1-0.2 0.3-0.4 0.2-0.9q0.2 0.4 0.2 0.7 0 0.3-0.1 0.6-0.1 0.5-0.3 1-0.5 0.8-1 1.5c-0.8 0.9-1.7 1.7-2.6 2.4q-0.7 0.4-1.4 0.9-0.4 0.2-0.7 0.4-0.4 0.2-0.8 0.4-1.4 0.8-3 1.4l0.2-0.5q0 0.8 0 1.5 0 0.8 0 1.5 0 1.5-0.2 3z"/>
											</g>
										</g>
									</g>
									<g id="&lt;Group&gt;">
										<g id="&lt;Group&gt;">
											<g id="&lt;Group&gt;">
												<path id="&lt;Path&gt;" class="s11" d="m2027.5 680.3c0.2-1.2 0.5-2.2 0.9-3.2q0.5-1.4 1-2.8 0.6-1.4 1.3-2.7l0.6-1.3q0.1-0.2 0.1-0.3 0.1-0.2 0.2-0.4 0.1-0.2 0.1-0.3l0.1-0.2v-0.3c0.1 0.4 0.1 0.8 0.1 1.1q0.1 0.5 0 0.9-0.1 0.9-0.3 1.7-0.3 1.7-0.9 3.1-0.6 1.3-1.4 2.5c-0.5 0.8-1.1 1.6-1.8 2.2z"/>
											</g>
										</g>
									</g>
									<g id="&lt;Group&gt;">
										<g id="&lt;Group&gt;">
											<g id="&lt;Group&gt;">
												<path id="&lt;Path&gt;" class="s11" d="m2032.3 684.7c0.2-1.1 0.5-2.1 0.8-3.1q0.5-1.5 1.1-2.9 0.6-1.3 1.2-2.6l0.7-1.4q0-0.1 0.1-0.3 0.1-0.2 0.2-0.3 0-0.2 0.1-0.4v-0.2-0.2c0.2 0.4 0.2 0.7 0.2 1q0 0.5 0 1-0.1 0.9-0.3 1.7-0.4 1.6-1 3-0.6 1.4-1.3 2.6c-0.5 0.8-1.1 1.5-1.8 2.1z"/>
											</g>
										</g>
									</g>
									<g id="&lt;Group&gt;">
										<g id="&lt;Group&gt;">
											<g id="&lt;Group&gt;">
												<path id="&lt;Path&gt;" class="s33" d="m2022.5 662.7l5.1-2.7 4.7-0.4"/>
											</g>
											<g id="&lt;Group&gt;">
												<path id="&lt;Path&gt;" class="s11" d="m2022.5 662.7q0.6-0.5 1.2-0.8 0.6-0.4 1.3-0.8 0.6-0.3 1.2-0.7 0.7-0.3 1.3-0.6 1.2-0.1 2.4-0.2 0.6 0 1.2 0 0.6 0 1.2 0-0.5 0.1-1.1 0.2-0.6 0.1-1.1 0.2-1.2 0.1-2.4 0.2h0.1q-0.7 0.4-1.3 0.7-0.7 0.3-1.3 0.6-0.7 0.3-1.3 0.6-0.7 0.3-1.4 0.6z"/>
											</g>
										</g>
									</g>
									<g id="&lt;Group&gt;">
										<path id="&lt;Path&gt;" class="s35" d="m2032.3 659.6c-0.1 2.6-2.7 2.5-2.7 2.5l-1-2z"/>
									</g>
								</g>
								<g id="&lt;Group&gt;">
									<path id="&lt;Path&gt;" class="s33" d="m2076.2 835.5l-4.3 3.2c-6.4-1.2-18.7-3.3-25.9-25.5l-5.2-86.3 13.5 4.2 18.6 67.9c2.1 8.2 6.4 31.4 3.3 36.5z"/>
								</g>
							</g>
							<path id="&lt;Path&gt;" class="s51" d="m2112.7 580.6c-1.3-4.7-1.5-9.1-1.7-13.3 0-1.2 2.1-27.2 23.9-10.6 6.1 4.6 12.8 7.3 17.1 14.9 4.4 7.7 6.3 16.3 5.9 23.2-0.2 2.9-0.8 5.6-2.3 7.2-1.8 1.7-43.4-15.1-44.3-22.4"/>
						</g>
					</g>
				</g>
				<g id="&lt;Group&gt;" style="mix-blend-mode: soft-light">
					<path id="&lt;Path&gt;" class="s0" d="m2003.4 730.6c0 6.9-4.8 9.7-10.8 6.2-6-3.5-10.8-11.9-10.8-18.8 0-6.9 4.8-9.7 10.8-6.2 6 3.5 10.8 11.9 10.8 18.8z"/>
					<path id="&lt;Path&gt;" class="s0" d="m2030.2 746.8c0 6.9-4.8 9.7-10.8 6.3-6-3.5-10.8-11.9-10.8-18.8 0-6.9 4.9-9.7 10.8-6.2 6 3.4 10.8 11.8 10.8 18.7z"/>
					<path id="&lt;Path&gt;" class="s0" d="m2057.1 763.1c-0.1 6.9-4.9 9.7-10.9 6.2-6-3.5-10.8-11.9-10.8-18.8 0-6.9 4.9-9.7 10.9-6.2 5.9 3.5 10.8 11.9 10.8 18.8z"/>
				</g>
			</g>
			<g id="&lt;Group&gt;" style="mix-blend-mode: soft-light">
				<g id="&lt;Group&gt;">
					<g id="&lt;Group&gt;">
						<g id="&lt;Group&gt;">
							<path id="&lt;Path&gt;" class="s25" d="m2402 331l-24.3 14c-53.5-92.8-140.2-142.9-193.8-111.9l-24.2-42c66.9-38.7 175.3 23.9 242.3 139.9z"/>
							<path id="&lt;Path&gt;" class="s25" d="m2353.5 359l-24.2 14c-26.8-46.4-70.2-71.5-96.9-56l-24.3-42c40.2-23.2 105.2 14.4 145.4 84z"/>
							<path id="&lt;Path&gt;" class="s25" d="m2305.1 387l-24.3 13.9-24.2-41.9c13.4-7.8 35.1 4.8 48.5 28z"/>
						</g>
					</g>
				</g>
			</g>
			<g id="&lt;Group&gt;">
				<path id="&lt;Path&gt;" class="s54" d="m1541.5 928.6l-0.7 214.1-22.5 13 0.7-214.1-15.1 8.8 27-57 24.6 27.2z"/>
				<path id="&lt;Path&gt;" class="s55" d="m1565.2 889.3c2.1 17.3-11.5 33.1-30.3 35.4-18.8 2.3-35.8-9.9-37.8-27.1-2.1-17.3 11.4-33.1 30.2-35.4 18.9-2.3 35.8 9.9 37.9 27.1z"/>
			</g>
			<g id="&lt;Group&gt;">
				<path id="&lt;Path&gt;" class="s56" d="m2522 1087.2l24.5-27.2 27 57-15.1-8.7 0.8 214.1-22.5-13-0.8-214.1z"/>
				<path id="&lt;Path&gt;" class="s57" d="m2550.1 1028.9c18.8 2.2 32.4 18.1 30.3 35.3-2.1 17.3-19 29.4-37.9 27.1-18.8-2.2-32.3-18.1-30.2-35.3 2-17.3 19-29.4 37.8-27.1z"/>
			</g>
			<path id="&lt;Path&gt;" class="s58" d="m2403.4 447.9c50 6 86 48.1 80.5 93.9-5.5 45.8-50.6 78.1-100.6 72-49.9-6-86-48.1-80.4-93.9 5.5-45.8 50.5-78.1 100.5-72z"/>
			<path id="&lt;Path&gt;" class="s59" d="m1468.5 365.5c50 6.1 86 48.1 80.5 94-5.6 45.8-50.6 78-100.6 72-50-6-86-48.1-80.4-93.9 5.5-45.9 50.5-78.1 100.5-72.1z"/>
			<g id="&lt;Group&gt;" style="mix-blend-mode: soft-light">
				<path id="&lt;Compound Path&gt;" fill-rule="evenodd" class="s60" d="m1881.3 441.4l13.7 21.9-9.1 13.4-17.4-16.1c-4.6 3.5-10.2 5.7-16.5 6.2l1.8 21.7-17.7-3.6-8.9-22.9c-9.6-4.3-19-11-27.8-19.4l-11.9 8-16-20.1 5.4-16c-5.4-8.8-10.1-18.3-13.7-28.1l-17.3-8.5-5.3-23.6 15.2-0.9c-0.8-10.5 0.3-19.8 2.9-27.6l-13.1-20.9 9.1-13.4 16.8 15.6c4.8-3.5 10.5-5.6 17-6l-1.7-21.4 17.7 3.6 9 23.1c9.4 4.4 18.7 11.1 27.3 19.5l12.3-8.3 16 20.1-5.7 16.8c5.1 8.4 9.6 17.5 13 26.8l18.3 8.9 5.3 23.6-16.1 1c0.7 10.1-0.2 19-2.6 26.6zm-25.6-47.9c-5.3-25.6-25.4-50.6-45-55.8-19.5-5.2-31.1 11.4-25.8 37 5.3 25.6 25.4 50.6 44.9 55.8 19.6 5.2 31.2-11.4 25.9-37z"/>
				<path id="&lt;Compound Path&gt;" fill-rule="evenodd" class="s60" d="m1765.7 258.2l10.4 21-10.6 9-14.7-17.1c-5 1.9-10.7 2.5-16.9 1.5l-1.1 18.2-16.7-6.9-5.7-20.7c-8.7-5.6-17-13.2-24.4-22l-12.6 3.9-12.9-19.9 7.4-12c-4.2-8.4-7.4-17.1-9.6-25.9l-15.8-10.8-2-20.5 14.9 2.6c0.7-8.8 2.9-16.2 6.4-21.9l-9.9-20.1 10.6-9 14.3 16.5c5.1-1.8 10.9-2.3 17.3-1.2l1.2-17.9 16.6 6.9 5.7 20.9c8.6 5.6 16.8 13.2 24 21.9l13.1-4 12.8 19.9-7.7 12.5c3.9 8.1 7 16.4 9.1 24.8l16.6 11.4 2 20.5-15.7-2.8c-0.7 8.4-2.8 15.6-6.1 21.2zm-18.5-44.8c-1.8-22.2-18-47.1-36.4-55.6-18.3-8.6-31.7 2.5-29.9 24.6 1.7 22.2 18 47 36.3 55.6 18.3 8.6 31.7-2.5 30-24.6z"/>
			</g>
		</g>
	</g>
</svg>