<svg version="1.2" xmlns="http://www.w3.org/2000/svg" viewBox="0 0 3000 1500" width="600" height="300">
	<title>AdobeStock_341250111-ai</title>
	<defs>
		<linearGradient id="g1" x1="746.6" y1="1707" x2="640.3" y2="816.8" gradientUnits="userSpaceOnUse">
			<stop offset="0" stop-color="#ffc5b7"/>
			<stop offset="1" stop-color="#ff896b"/>
		</linearGradient>
		<linearGradient id="g2" x1="539.9" y1="1283.2" x2="787.1" y2="969" gradientUnits="userSpaceOnUse">
			<stop offset="0" stop-color="#ffc5b7"/>
			<stop offset="1" stop-color="#bf3b36"/>
		</linearGradient>
		<linearGradient id="g3" x1="618" y1="1531" x2="743.6" y2="1237.8" gradientUnits="userSpaceOnUse">
			<stop offset="0" stop-color="#ffc5b7"/>
			<stop offset="1" stop-color="#bf3b36"/>
		</linearGradient>
		<linearGradient id="g4" x1="817.8" y1="564.2" x2="1131.5" y2="546.9" gradientUnits="userSpaceOnUse">
			<stop offset="0" stop-color="#ffffff"/>
			<stop offset="1" stop-color="#3eb5f1"/>
		</linearGradient>
		<linearGradient id="g5" x1="1071.9" y1="783.7" x2="1783" y2="783.7" gradientUnits="userSpaceOnUse">
			<stop offset="0" stop-color="#ffc5b7"/>
			<stop offset="1" stop-color="#ff896b"/>
		</linearGradient>
		<linearGradient id="g6" x1="1342.4" y1="1086.9" x2="1299.5" y2="1061.8" gradientUnits="userSpaceOnUse">
			<stop offset="0" stop-color="#ffc5b7"/>
			<stop offset="1" stop-color="#bf3b36"/>
		</linearGradient>
		<linearGradient id="g7" x1="1422.2" y1="1163.2" x2="1355.1" y2="1095.6" gradientUnits="userSpaceOnUse">
			<stop offset="0" stop-color="#ffc5b7"/>
			<stop offset="1" stop-color="#bf3b36"/>
		</linearGradient>
		<linearGradient id="g8" x1="1490.4" y1="1185.9" x2="1439.8" y2="1135" gradientUnits="userSpaceOnUse">
			<stop offset="0" stop-color="#ffc5b7"/>
			<stop offset="1" stop-color="#bf3b36"/>
		</linearGradient>
		<linearGradient id="g9" x1="1369.8" y1="1558.1" x2="1370.2" y2="1449.6" gradientUnits="userSpaceOnUse">
			<stop offset="0" stop-color="#ffc5b7"/>
			<stop offset="1" stop-color="#bf6136"/>
		</linearGradient>
		<linearGradient id="g10" x1="1056.6" y1="390.6" x2="1522.7" y2="390.6" gradientUnits="userSpaceOnUse">
			<stop offset="0" stop-color="#b6cdff"/>
			<stop offset="1" stop-color="#ffffff"/>
		</linearGradient>
		<linearGradient id="g11" x1="1528" y1="877.8" x2="1961.3" y2="877.8" gradientUnits="userSpaceOnUse">
			<stop offset="0" stop-color="#b6cdff"/>
			<stop offset="1" stop-color="#ffffff"/>
		</linearGradient>
		<linearGradient id="g12" x1="468.1" y1="432.4" x2="885.3" y2="432.4" gradientUnits="userSpaceOnUse">
			<stop offset="0" stop-color="#b6cdff"/>
			<stop offset="1" stop-color="#ffffff"/>
		</linearGradient>
		<clipPath clipPathUnits="userSpaceOnUse" id="cp1">
			<path d="m676.72 549.28c0 135.97-110.23 246.2-246.2 246.2-135.97 0-246.19-110.23-246.19-246.2 0-135.97 110.22-246.19 246.19-246.19 135.97 0 246.2 110.22 246.2 246.19z"/>
		</clipPath>
		<linearGradient id="g13" x1="277.2" y1="524.4" x2="537" y2="524.4" gradientUnits="userSpaceOnUse">
			<stop offset="0" stop-color="#ffffff"/>
			<stop offset="1" stop-color="#b6cdff"/>
		</linearGradient>
		<linearGradient id="g14" x1="506.7" y1="701.9" x2="506.7" y2="767.7" gradientUnits="userSpaceOnUse">
			<stop offset="0" stop-color="#b6cdff"/>
			<stop offset="1" stop-color="#ffffff"/>
		</linearGradient>
		<linearGradient id="g15" x1="361.5" y1="646" x2="533.8" y2="646" gradientUnits="userSpaceOnUse">
			<stop offset="0" stop-color="#ffc38f"/>
			<stop offset="1" stop-color="#d46446"/>
		</linearGradient>
		<linearGradient id="g16" x1="407.6" y1="600.3" x2="479.4" y2="600.3" gradientUnits="userSpaceOnUse">
			<stop offset="0" stop-color="#ffffff"/>
			<stop offset="1" stop-color="#b6cdff"/>
		</linearGradient>
		<linearGradient id="g17" x1="318.7" y1="602" x2="350" y2="602" gradientUnits="userSpaceOnUse">
			<stop offset="0" stop-color="#b6cdff"/>
			<stop offset="1" stop-color="#ffffff"/>
		</linearGradient>
		<linearGradient id="g18" x1="501.8" y1="650.2" x2="501.8" y2="691.8" gradientUnits="userSpaceOnUse">
			<stop offset="0" stop-color="#ffc38f"/>
			<stop offset="1" stop-color="#d46446"/>
		</linearGradient>
		<linearGradient id="g19" x1="354" y1="563.1" x2="354" y2="503.4" gradientUnits="userSpaceOnUse">
			<stop offset="0" stop-color="#ffc38f"/>
			<stop offset="1" stop-color="#9e4944"/>
		</linearGradient>
		<linearGradient id="g20" x1="426.7" y1="424.9" x2="426.7" y2="524.3" gradientUnits="userSpaceOnUse">
			<stop offset="0" stop-color="#ffc38f"/>
			<stop offset="1" stop-color="#d46446"/>
		</linearGradient>
		<linearGradient id="g21" x1="340.9" y1="498.8" x2="340.9" y2="490.1" gradientUnits="userSpaceOnUse">
			<stop offset="0" stop-color="#ffc38f"/>
			<stop offset="1" stop-color="#d46446"/>
		</linearGradient>
		<linearGradient id="g22" x1="412.2" y1="466.2" x2="412.2" y2="427.9" gradientUnits="userSpaceOnUse">
			<stop offset="0" stop-color="#0d3863"/>
			<stop offset="1" stop-color="#1d0023"/>
		</linearGradient>
		<linearGradient id="g23" x1="312.1" y1="485.6" x2="312.1" y2="398.6" gradientUnits="userSpaceOnUse">
			<stop offset="0" stop-color="#0d3863"/>
			<stop offset="1" stop-color="#1d0023"/>
		</linearGradient>
		<linearGradient id="g24" x1="396.7" y1="523" x2="396.7" y2="443.3" gradientUnits="userSpaceOnUse">
			<stop offset="0" stop-color="#ffc38f"/>
			<stop offset="1" stop-color="#d46446"/>
		</linearGradient>
		<linearGradient id="g25" x1="402.1" y1="452.3" x2="414.5" y2="448.2" gradientUnits="userSpaceOnUse">
			<stop offset="0" stop-color="#0d244c"/>
			<stop offset="1" stop-color="#1d0023"/>
		</linearGradient>
		<linearGradient id="g26" x1="366.8" y1="461.2" x2="380" y2="457" gradientUnits="userSpaceOnUse">
			<stop offset="0" stop-color="#0d244c"/>
			<stop offset="1" stop-color="#1d0023"/>
		</linearGradient>
		<linearGradient id="g27" x1="362" y1="462.4" x2="362" y2="452.7" gradientUnits="userSpaceOnUse">
			<stop offset="0" stop-color="#0d3863"/>
			<stop offset="1" stop-color="#1d0023"/>
		</linearGradient>
		<linearGradient id="g28" x1="396.9" y1="451.8" x2="396.9" y2="442.1" gradientUnits="userSpaceOnUse">
			<stop offset="0" stop-color="#0d3863"/>
			<stop offset="1" stop-color="#1d0023"/>
		</linearGradient>
		<linearGradient id="g29" x1="422.6" y1="512.3" x2="422.6" y2="745.9" gradientUnits="userSpaceOnUse">
			<stop offset="0" stop-color="#ffc38f"/>
			<stop offset="1" stop-color="#d46446"/>
		</linearGradient>
		<linearGradient id="g30" x1="275.9" y1="677.4" x2="305.8" y2="647.6" gradientUnits="userSpaceOnUse">
			<stop offset="0" stop-color="#ffc38f"/>
			<stop offset="1" stop-color="#d46446"/>
		</linearGradient>
		<linearGradient id="g31" x1="386.8" y1="522" x2="386.8" y2="545.7" gradientUnits="userSpaceOnUse">
			<stop offset="0" stop-color="#ffc38f"/>
			<stop offset="1" stop-color="#d46446"/>
		</linearGradient>
		<clipPath clipPathUnits="userSpaceOnUse" id="cp2">
			<path d="m1686.82 725.94c-79.85 56.37-237.89-14.79-279.9-5.39-43.3 9.68-103.98-139.06-111.49-188.76-3.32-21.96 50.96-74.48 112.6-126.28 37.06-78.98 117.3-133.67 210.3-133.67 128.23 0 232.19 103.96 232.19 232.19 0 104.39-68.9 192.69-163.7 221.91z"/>
		</clipPath>
		<linearGradient id="g32" x1="1856.9" y1="528.8" x2="1856.9" y2="634.1" gradientUnits="userSpaceOnUse">
			<stop offset="0" stop-color="#316d88"/>
			<stop offset="1" stop-color="#292d51"/>
		</linearGradient>
		<linearGradient id="g33" x1="1391.4" y1="616.4" x2="1492.4" y2="616.4" gradientUnits="userSpaceOnUse">
			<stop offset="0" stop-color="#ffc38f"/>
			<stop offset="1" stop-color="#d46446"/>
		</linearGradient>
		<linearGradient id="g34" x1="1491.3" y1="509.4" x2="1659.7" y2="509.4" gradientUnits="userSpaceOnUse">
			<stop offset="0" stop-color="#31496b"/>
			<stop offset="1" stop-color="#292d51"/>
		</linearGradient>
		<linearGradient id="g35" x1="1662.6" y1="491.2" x2="1702.3" y2="491.2" gradientUnits="userSpaceOnUse">
			<stop offset="0" stop-color="#314980"/>
			<stop offset="1" stop-color="#292d51"/>
		</linearGradient>
		<linearGradient id="g36" x1="1707" y1="494.5" x2="1797.1" y2="494.5" gradientUnits="userSpaceOnUse">
			<stop offset="0" stop-color="#314980"/>
			<stop offset="1" stop-color="#292d51"/>
		</linearGradient>
		<linearGradient id="g37" x1="1832" y1="633.3" x2="1832" y2="766" gradientUnits="userSpaceOnUse">
			<stop offset="0" stop-color="#316d88"/>
			<stop offset="1" stop-color="#292d51"/>
		</linearGradient>
		<linearGradient id="g38" x1="1704.1" y1="503.2" x2="1704.1" y2="436" gradientUnits="userSpaceOnUse">
			<stop offset="0" stop-color="#ffc38f"/>
			<stop offset="1" stop-color="#d46446"/>
		</linearGradient>
		<linearGradient id="g39" x1="1702.8" y1="414.2" x2="1694.5" y2="414.2" gradientUnits="userSpaceOnUse">
			<stop offset="0" stop-color="#ea9264"/>
			<stop offset="1" stop-color="#ff6754"/>
		</linearGradient>
		<linearGradient id="g40" x1="1699.2" y1="419.3" x2="1699.2" y2="393.7" gradientUnits="userSpaceOnUse">
			<stop offset="0" stop-color="#ea9264"/>
			<stop offset="1" stop-color="#ea9264"/>
		</linearGradient>
		<linearGradient id="g41" x1="1699.4" y1="360.6" x2="1779.2" y2="360.6" gradientUnits="userSpaceOnUse">
			<stop offset="0" stop-color="#0d244c"/>
			<stop offset="1" stop-color="#1d0023"/>
		</linearGradient>
		<linearGradient id="g42" x1="1741.9" y1="399" x2="1754.4" y2="401.4" gradientUnits="userSpaceOnUse">
			<stop offset="0" stop-color="#0d244c"/>
			<stop offset="1" stop-color="#1d0023"/>
		</linearGradient>
		<linearGradient id="g43" x1="1705" y1="431.7" x2="1766" y2="431.7" gradientUnits="userSpaceOnUse">
			<stop offset="0" stop-color="#0d244c"/>
			<stop offset="1" stop-color="#1d0023"/>
		</linearGradient>
		<linearGradient id="g44" x1="1700" y1="403.3" x2="1713.2" y2="403.3" gradientUnits="userSpaceOnUse">
			<stop offset="0" stop-color="#ea9264"/>
			<stop offset="1" stop-color="#ea9264"/>
		</linearGradient>
		<linearGradient id="g45" x1="1766.7" y1="423.3" x2="1775" y2="423.3" gradientUnits="userSpaceOnUse">
			<stop offset="0" stop-color="#ea9264"/>
			<stop offset="1" stop-color="#ff6754"/>
		</linearGradient>
		<linearGradient id="g46" x1="1718.9" y1="440.5" x2="1734.7" y2="440.5" gradientUnits="userSpaceOnUse">
			<stop offset="0" stop-color="#ea9264"/>
			<stop offset="1" stop-color="#ff6754"/>
		</linearGradient>
		<linearGradient id="g47" x1="1705.5" y1="408.2" x2="1717.9" y2="408.2" gradientUnits="userSpaceOnUse">
			<stop offset="0" stop-color="#0d244c"/>
			<stop offset="1" stop-color="#1d0023"/>
		</linearGradient>
		<linearGradient id="g48" x1="1739" y1="411.1" x2="1751.4" y2="411.1" gradientUnits="userSpaceOnUse">
			<stop offset="0" stop-color="#0d244c"/>
			<stop offset="1" stop-color="#1d0023"/>
		</linearGradient>
		<linearGradient id="g49" x1="1715.6" y1="397.3" x2="1703" y2="399.4" gradientUnits="userSpaceOnUse">
			<stop offset="0" stop-color="#0d244c"/>
			<stop offset="1" stop-color="#1d0023"/>
		</linearGradient>
		<linearGradient id="g50" x1="1679" y1="412.9" x2="1679" y2="361.1" gradientUnits="userSpaceOnUse">
			<stop offset="0" stop-color="#0d3863"/>
			<stop offset="1" stop-color="#1d0023"/>
		</linearGradient>
		<linearGradient id="g51" x1="1677.1" y1="652" x2="1677.1" y2="781.1" gradientUnits="userSpaceOnUse">
			<stop offset="0" stop-color="#316d88"/>
			<stop offset="1" stop-color="#292d51"/>
		</linearGradient>
		<linearGradient id="g52" x1="1545.8" y1="496.4" x2="1635.1" y2="496.4" gradientUnits="userSpaceOnUse">
			<stop offset="0" stop-color="#ffc38f"/>
			<stop offset="1" stop-color="#d46446"/>
		</linearGradient>
		<linearGradient id="g53" x1="1591" y1="537.2" x2="1858" y2="537.2" gradientUnits="userSpaceOnUse">
			<stop offset="0" stop-color="#314980"/>
			<stop offset="1" stop-color="#292d51"/>
		</linearGradient>
		<linearGradient id="g54" x1="1821.2" y1="618.5" x2="1746" y2="661.9" gradientUnits="userSpaceOnUse">
			<stop offset="0" stop-color="#316d88"/>
			<stop offset="1" stop-color="#000029"/>
		</linearGradient>
		<linearGradient id="g55" x1="1719.9" y1="659.9" x2="1719.9" y2="629.3" gradientUnits="userSpaceOnUse">
			<stop offset="0" stop-color="#316d88"/>
			<stop offset="1" stop-color="#000029"/>
		</linearGradient>
		<linearGradient id="g56" x1="1690.6" y1="642.5" x2="1690.6" y2="629.3" gradientUnits="userSpaceOnUse">
			<stop offset="0" stop-color="#316d88"/>
			<stop offset="1" stop-color="#000029"/>
		</linearGradient>
		<linearGradient id="g57" x1="1581.8" y1="645.7" x2="1581.8" y2="613.7" gradientUnits="userSpaceOnUse">
			<stop offset="0" stop-color="#316d88"/>
			<stop offset="1" stop-color="#000029"/>
		</linearGradient>
		<linearGradient id="g58" x1="1561.1" y1="654.1" x2="1561.1" y2="613.2" gradientUnits="userSpaceOnUse">
			<stop offset="0" stop-color="#316d88"/>
			<stop offset="1" stop-color="#000029"/>
		</linearGradient>
		<linearGradient id="g59" x1="1462.1" y1="647.4" x2="1462.1" y2="662.4" gradientUnits="userSpaceOnUse">
			<stop offset="0" stop-color="#ffffff"/>
			<stop offset="1" stop-color="#d13300"/>
		</linearGradient>
		<clipPath clipPathUnits="userSpaceOnUse" id="cp3">
			<path d="m2241.04 1066.78c0 143.63-116.43 260.06-260.06 260.06-143.62 0-260.05-116.43-260.05-260.06 0-143.62 116.43-260.06 260.05-260.06 143.63 0 260.06 116.44 260.06 260.06z"/>
		</clipPath>
		<linearGradient id="g60" x1="2015.5" y1="1491.2" x2="1971.3" y2="1247.6" gradientUnits="userSpaceOnUse">
			<stop offset="0" stop-color="#e6ae97"/>
			<stop offset="1" stop-color="#c46359"/>
		</linearGradient>
		<linearGradient id="g61" x1="1877.4" y1="1033.4" x2="2035.7" y2="1033.4" gradientUnits="userSpaceOnUse">
			<stop offset="0" stop-color="#ffc38f"/>
			<stop offset="1" stop-color="#d46446"/>
		</linearGradient>
		<linearGradient id="g62" x1="1781.9" y1="1100.5" x2="1891.8" y2="1100.5" gradientUnits="userSpaceOnUse">
			<stop offset="0" stop-color="#ffc38f"/>
			<stop offset="1" stop-color="#d46446"/>
		</linearGradient>
		<linearGradient id="g63" x1="2000.7" y1="1254.5" x2="2000.7" y2="1033.3" gradientUnits="userSpaceOnUse">
			<stop offset="0" stop-color="#ffc38f"/>
			<stop offset="1" stop-color="#d46446"/>
		</linearGradient>
		<linearGradient id="g64" x1="2130.6" y1="1162.2" x2="2211.1" y2="1269.1" gradientUnits="userSpaceOnUse">
			<stop offset="0" stop-color="#a76fff"/>
			<stop offset="1" stop-color="#d464ff"/>
		</linearGradient>
		<linearGradient id="g65" x1="2124.4" y1="1152.6" x2="2136.2" y2="1168.2" gradientUnits="userSpaceOnUse">
			<stop offset="0" stop-color="#ffc38f"/>
			<stop offset="1" stop-color="#d46446"/>
		</linearGradient>
		<linearGradient id="g66" x1="2053.9" y1="1001.8" x2="2053.9" y2="888.8" gradientUnits="userSpaceOnUse">
			<stop offset="0" stop-color="#e6ae97"/>
			<stop offset="1" stop-color="#c44a2e"/>
		</linearGradient>
		<linearGradient id="g67" x1="2038.5" y1="1018.9" x2="2016.9" y2="895" gradientUnits="userSpaceOnUse">
			<stop offset="0" stop-color="#b2456b"/>
			<stop offset="1" stop-color="#330045"/>
		</linearGradient>
		<linearGradient id="g68" x1="2110.7" y1="882.1" x2="2106.9" y2="860.2" gradientUnits="userSpaceOnUse">
			<stop offset="0" stop-color="#b2456b"/>
			<stop offset="1" stop-color="#330045"/>
		</linearGradient>
		<linearGradient id="g69" x1="2127.9" y1="957.9" x2="2127.9" y2="933.7" gradientUnits="userSpaceOnUse">
			<stop offset="0" stop-color="#e6ae97"/>
			<stop offset="1" stop-color="#c44a2e"/>
		</linearGradient>
		<linearGradient id="g70" x1="2127.8" y1="951.9" x2="2127.8" y2="939.3" gradientUnits="userSpaceOnUse">
			<stop offset="0" stop-color="#e6ae97"/>
			<stop offset="1" stop-color="#c44a2e"/>
		</linearGradient>
		<linearGradient id="g71" x1="2061.6" y1="969.1" x2="2057.5" y2="945.4" gradientUnits="userSpaceOnUse">
			<stop offset="0" stop-color="#e6ae97"/>
			<stop offset="1" stop-color="#c44a2e"/>
		</linearGradient>
		<linearGradient id="g72" x1="2060.3" y1="963.2" x2="2058.1" y2="950.7" gradientUnits="userSpaceOnUse">
			<stop offset="0" stop-color="#e6ae97"/>
			<stop offset="1" stop-color="#c44a2e"/>
		</linearGradient>
		<linearGradient id="g73" x1="2040.6" y1="939.8" x2="2040.6" y2="890.3" gradientUnits="userSpaceOnUse">
			<stop offset="0" stop-color="#b2456b"/>
			<stop offset="1" stop-color="#330045"/>
		</linearGradient>
		<linearGradient id="g74" x1="2060.7" y1="940.6" x2="2062.1" y2="936.8" gradientUnits="userSpaceOnUse">
			<stop offset="0" stop-color="#b2456b"/>
			<stop offset="1" stop-color="#330045"/>
		</linearGradient>
		<linearGradient id="g75" x1="2103.4" y1="936.5" x2="2104.8" y2="932.7" gradientUnits="userSpaceOnUse">
			<stop offset="0" stop-color="#b2456b"/>
			<stop offset="1" stop-color="#330045"/>
		</linearGradient>
		<linearGradient id="g76" x1="2098.7" y1="945.2" x2="2098.7" y2="970.1" gradientUnits="userSpaceOnUse">
			<stop offset="0" stop-color="#e6ae97"/>
			<stop offset="1" stop-color="#c44a2e"/>
		</linearGradient>
		<linearGradient id="g77" x1="2052.1" y1="1108.3" x2="2052.1" y2="988.5" gradientUnits="userSpaceOnUse">
			<stop offset="0" stop-color="#e6ae97"/>
			<stop offset="1" stop-color="#c46359"/>
		</linearGradient>
		<linearGradient id="g78" x1="2047.3" y1="1211.5" x2="2176.2" y2="1211.5" gradientUnits="userSpaceOnUse">
			<stop offset="0" stop-color="#a76fff"/>
			<stop offset="1" stop-color="#b7a8f0"/>
		</linearGradient>
		<linearGradient id="g79" x1="2054.6" y1="1251.2" x2="2170.8" y2="1251.2" gradientUnits="userSpaceOnUse">
			<stop offset="0" stop-color="#ffc38f"/>
			<stop offset="1" stop-color="#d46446"/>
		</linearGradient>
		<linearGradient id="g80" x1="2128.5" y1="1031.6" x2="2306.1" y2="1031.6" gradientUnits="userSpaceOnUse">
			<stop offset="0" stop-color="#ffc38f"/>
			<stop offset="1" stop-color="#d46446"/>
		</linearGradient>
	</defs>
	<style>
		.s0 { fill: url(#g1) } 
		.s1 { fill: url(#g2) } 
		.s2 { fill: url(#g3) } 
		.s3 { fill: #cf99ff } 
		.s4 { fill: #a677d8 } 
		.s5 { fill: url(#g4) } 
		.s6 { fill: #7654a3 } 
		.s7 { fill: url(#g5) } 
		.s8 { fill: url(#g6) } 
		.s9 { fill: url(#g7) } 
		.s10 { fill: url(#g8) } 
		.s11 { fill: url(#g9) } 
		.s12 { fill: #945bd6 } 
		.s13 { fill: url(#g10) } 
		.s14 { fill: #ac80e0 } 
		.s15 { fill: url(#g11) } 
		.s16 { fill: url(#g12) } 
		.s17 { fill: #ffffff } 
		.s18 { fill: url(#g13) } 
		.s19 { mix-blend-mode: multiply;fill: url(#g14) } 
		.s20 { fill: url(#g15) } 
		.s21 { mix-blend-mode: multiply;fill: url(#g16) } 
		.s22 { fill: url(#g17) } 
		.s23 { mix-blend-mode: multiply;fill: url(#g18) } 
		.s24 { fill: url(#g19) } 
		.s25 { fill: url(#g20) } 
		.s26 { fill: url(#g21) } 
		.s27 { fill: url(#g22) } 
		.s28 { fill: url(#g23) } 
		.s29 { mix-blend-mode: multiply;fill: url(#g24) } 
		.s30 { fill: url(#g25) } 
		.s31 { fill: url(#g26) } 
		.s32 { fill: url(#g27) } 
		.s33 { fill: url(#g28) } 
		.s34 { mix-blend-mode: multiply;fill: #9e4944 } 
		.s35 { fill: url(#g29) } 
		.s36 { mix-blend-mode: multiply;fill: url(#g30) } 
		.s37 { mix-blend-mode: multiply;fill: url(#g31) } 
		.s38 { fill: #254868 } 
		.s39 { fill: url(#g32) } 
		.s40 { fill: url(#g33) } 
		.s41 { fill: url(#g34) } 
		.s42 { fill: #d6edff } 
		.s43 { fill: url(#g35) } 
		.s44 { fill: url(#g36) } 
		.s45 { fill: url(#g37) } 
		.s46 { fill: url(#g38) } 
		.s47 { fill: #ea9264 } 
		.s48 { fill: url(#g39) } 
		.s49 { fill: #ffc38f } 
		.s50 { fill: url(#g40) } 
		.s51 { fill: url(#g41) } 
		.s52 { fill: url(#g42) } 
		.s53 { fill: url(#g43) } 
		.s54 { fill: url(#g44) } 
		.s55 { fill: url(#g45) } 
		.s56 { fill: url(#g46) } 
		.s57 { fill: url(#g47) } 
		.s58 { fill: url(#g48) } 
		.s59 { fill: url(#g49) } 
		.s60 { fill: url(#g50) } 
		.s61 { fill: url(#g51) } 
		.s62 { fill: url(#g52) } 
		.s63 { fill: url(#g53) } 
		.s64 { fill: url(#g54) } 
		.s65 { mix-blend-mode: multiply;fill: url(#g55) } 
		.s66 { mix-blend-mode: multiply;fill: url(#g56) } 
		.s67 { fill: url(#g57) } 
		.s68 { fill: url(#g58) } 
		.s69 { fill: url(#g59) } 
		.s70 { fill: #8acbff } 
		.s71 { mix-blend-mode: multiply;fill: #8acbff } 
		.s72 { fill: url(#g60) } 
		.s73 { mix-blend-mode: multiply;fill: #f8cefa } 
		.s74 { fill: url(#g61) } 
		.s75 { fill: #9e2557 } 
		.s76 { fill: url(#g62) } 
		.s77 { fill: url(#g63) } 
		.s78 { fill: url(#g64) } 
		.s79 { mix-blend-mode: multiply;fill: url(#g65) } 
		.s80 { fill: url(#g66) } 
		.s81 { fill: url(#g67) } 
		.s82 { fill: url(#g68) } 
		.s83 { fill: url(#g69) } 
		.s84 { fill: url(#g70) } 
		.s85 { fill: url(#g71) } 
		.s86 { fill: url(#g72) } 
		.s87 { fill: url(#g73) } 
		.s88 { fill: url(#g74) } 
		.s89 { fill: url(#g75) } 
		.s90 { fill: #062033 } 
		.s91 { fill: url(#g76) } 
		.s92 { fill: #51150b } 
		.s93 { mix-blend-mode: multiply;fill: #ffdfdb } 
		.s94 { fill: url(#g77) } 
		.s95 { mix-blend-mode: multiply;fill: url(#g78) } 
		.s96 { fill: url(#g79) } 
		.s97 { fill: url(#g80) } 
		.s98 { fill: #b6cdff } 
		.s99 { fill: #b6cdff;stroke: #ffffff;stroke-width: 8 } 
		.s100 { fill: #7c9fdd } 
		.s101 { fill: #8fa5ff } 
	</style>
	<g id="321353356351 1">
		<g id="&lt;Clip Group&gt;">
			<g id="&lt;Group&gt;">
				<g id="&lt;Group&gt;">
					<path id="&lt;Path&gt;" class="s0" d="m782.5 937.5c-2.1 24.6-10 55.6-7.3 66.8 2.6 11.2 44.9-9.2 44.9-9.2l38.8 206.6c0 0 167.6-6 166.6 12.1-1.1 18-83.2 96.3-85.7 108.1-2.4 11.8 71 353.1 71 353.1l-266.9 26.8c0 0 21.5-387.9-5.4-425.6-26.9-37.8-56.2-149.4-61.9-185.9-5.6-36.4 18.7-100.8 31.4-123.4 12.6-22.7 19.6-97.1 19.6-97.1v-71.7c68.8-8.2 57.1 114.8 54.9 139.4z"/>
					<path id="&lt;Path&gt;" class="s1" d="m943.5 1365.3l-89.3 165.1-143.9-416.8c0 0 41.6-96.7 109.9-118.5l38.7 206.6 166.6 12.1c-28.5 52.6-8.1 21.7-58.8 74.5-30 31.2-18.9 24.9-24.5 25.8-11.3 1.8-3 17.4 1.3 51.2z"/>
					<path id="&lt;Path&gt;" class="s2" d="m733 1267.6c0 0 31.2 48.9 82.2 41.8 0 0 57.4 50.8 124.6 12.5l42.7 219.6-233.5 45.7c0 0 34.2-265.9-16-319.6z"/>
					<path id="&lt;Path&gt;" class="s3" d="m748.9 836.7c-6.6 25.3-21.2 25.2-21.2 25.2l-5.7-69.5c15.4 0.1 33.5 19 26.9 44.3z"/>
				</g>
				<g id="&lt;Group&gt;">
					<path id="&lt;Path&gt;" class="s4" d="m902.6 1217.8c-60 12.8-93.5-14.9-93.5-14.9l-35.9-652.4c10.2-28.6 44.7-29.6 44.7-29.6z"/>
					<path id="&lt;Path&gt;" class="s3" d="m1182.9 1183.1c0.6 10.6-6.4 19.6-15.7 20.2l-310.9 17c-9.3 0.6-17.3-7.7-17.9-18.3l-36.3-660.9c-0.6-10.6 6.5-19.7 15.8-20.2l310.9-17.1c9.2-0.5 17.2 7.7 17.8 18.4z"/>
					<path id="&lt;Path&gt;" class="s5" d="m1165.9 1165.8c0.5 9.6-5.9 17.8-14.4 18.3l-283.8 15.6c-8.5 0.5-15.8-7-16.3-16.6l-33-599.9c-0.5-9.6 5.9-17.8 14.4-18.3l283.8-15.6c8.5-0.5 15.8 7 16.3 16.6z"/>
					<g id="&lt;Group&gt;">
						<path id="&lt;Path&gt;" class="s4" d="m996.5 544.9l-76.9 4.3c-9.2 0.5-10-15.2-0.9-15.7l76.9-4.2c9.4-0.5 9.8 15.2 0.9 15.6z"/>
						<path id="&lt;Path&gt;" class="s4" d="m1029.6 536.4c0.7 12.6-16.1 13.5-16.8 1-0.7-12.6 16.1-13.5 16.8-1z"/>
					</g>
					<path id="&lt;Path&gt;" class="s6" d="m803.4 734.1c0.5 8.8-10.9 9-11.4 0.7l-7-128.3c-0.5-8.6 10.9-9.1 11.3-0.6z"/>
					<path id="&lt;Path&gt;" class="s6" d="m809.7 848.9c0.5 8.7-10.9 8.9-11.3 0.6l-4.6-82c-0.4-8.5 10.9-9 11.4-0.6z"/>
				</g>
				<g id="&lt;Group&gt;">
					<path id="&lt;Path&gt;" class="s7" d="m1783 1594.7l-50.4 77h-182.9l-66.2-113.2c0 0-69.2-88.9-111.3-108.8-42.2-20-145.9-37.9-187.6-124.3-41.7-86.4-112.7-129.8-112.7-129.8 0 0 29.3-33.8 73.6-13.8 44.2 20 81.9 91.3 92.7 92.5 10.7 1.2 13.3-172.6 12.4-188.9 0 0-20-103.9-18.5-107.4 1.5-3.4-57.4-189.1 8-192.3 56.6 148.9 18.9 61.7 77.8 244.5 0 0 46.1 4.4 51.9 13.7 5.8 9.3 14.3 22.9 14.3 22.9 0 0 43.9 11 50.3 15.7 6.4 4.7 22.7 30.4 35.5 35.1 12.8 4.8 44.2 27 50 39.9 5.8 12.8 22.8 151.6 29.7 182 6.6 29.2 113.9 126.7 233.4 255.2z"/>
					<g id="&lt;Group&gt;">
						<path id="&lt;Path&gt;" class="s8" d="m1354.5 1036.4l-11 48.7-25.6-54.9z"/>
						<path id="&lt;Path&gt;" class="s9" d="m1434.4 1082.5l19.9 22.7-30.6 56.6-39.6-95z"/>
						<path id="&lt;Path&gt;" class="s10" d="m1515.2 1159.2c0 0-9.4 14.5-10.5 16.3-1.2 1.7-18.2 7.5-18.7-10.6-0.5-18-21.7-50.4-21.7-50.4 31.6 5.7 50.9 44.7 50.9 44.7z"/>
						<path id="&lt;Path&gt;" class="s11" d="m1372.2 1449.7c0 0 62.6 16.5 94.8 0.3l82.7 96.5-66.2 12c0 0-41.8-71.3-111.3-108.8z"/>
						<path id="&lt;Path&gt;" class="s4" d="m1068.3 1193.9c21.9-14.5 54.6 5.1 63.8 26.9l-12.7 13.9z"/>
						<path id="&lt;Path&gt;" class="s3" d="m1239 782.6l21.2 55.9c0 0-17.9 13.2-24.5 8.8-6.5-4.4-19-67 3.3-64.7z"/>
					</g>
				</g>
			</g>
			<path id="&lt;Path&gt;" class="s12" d="m1850.9 504c0 131.1-106.2 237.4-237.3 237.4-131.1 0-237.3-106.3-237.3-237.4 0-131 106.2-237.3 237.3-237.3 131.1 0 237.3 106.3 237.3 237.3z"/>
			<path id="&lt;Path&gt;" class="s13" d="m1522.7 580.2c0 12.7-9.5 22.9-21.2 22.9h-423.7c-11.7 0-21.2-10.2-21.2-22.9v-164.8c0-12.6 9.5-22.8 21.2-22.8h423.7c11.7 0 21.2 10.2 21.2 22.8z"/>
			<path id="&lt;Path&gt;" class="s14" d="m2241 1066.8c0 143.6-116.4 260-260 260-143.6 0-260.1-116.4-260.1-260 0-143.6 116.5-260.1 260.1-260.1 143.6 0 260 116.5 260 260.1z"/>
			<path id="&lt;Path&gt;" class="s15" d="m1961.3 1040.4c0 14.6-11.8 26.4-26.4 26.4h-380.5c-14.6 0-26.4-11.8-26.4-26.4v-134.2c0-14.6 11.8-26.4 26.4-26.4h380.5c14.6 0 26.4 11.8 26.4 26.4z"/>
			<path id="&lt;Path&gt;" class="s14" d="m676.7 549.3c0 136-110.2 246.2-246.2 246.2-135.9 0-246.2-110.2-246.2-246.2 0-136 110.3-246.2 246.2-246.2 136 0 246.2 110.2 246.2 246.2z"/>
			<path id="&lt;Path&gt;" class="s16" d="m885.3 605.4c0 8.9-7.2 16.1-16.1 16.1h-384.9c-9 0-16.2-7.2-16.2-16.1v-154.9c0-8.9 7.2-16.1 16.2-16.1h384.9c8.9 0 16.1 7.2 16.1 16.1z"/>
			<g id="&lt;Group&gt;">
				<path id="&lt;Compound Path&gt;" fill-rule="evenodd" class="s17" d="m2236.7 1117.3c-46.7-0.6-214-5.6-404.9-46.9-85.2-18.4-163.3-41.5-232.2-68.6-79.7-31.3-147.6-68.4-201.8-110.1-30.4-23.3-50-49.6-58.4-78.3-7.8-26.5-6-55.1 5.2-85q0.8-2 1.6-4.1c-28.8-16.1-53.2-33.7-71.5-51.9-55.1-54.6-163.3-143.7-287-215.2-99.5-57.5-242-121.9-355.6-101.9-111 19.5-230.7 104.6-311.5 172.5-95.2 80-159.9 155.6-166.4 172.1-1.7 4.1-0.5 6.3 0.5 7.6 3.5 4.3 17 11.1 68 7.4 29.6-2.1 57.5-6.8 57.8-6.9l1 6c-0.3 0-28.5 4.7-58.4 6.9-41.5 3-65.4-0.2-73.1-9.6-2.1-2.7-4-7.1-1.4-13.7 7.9-19.8 79-99.5 168.1-174.4 81.4-68.4 202-154.1 314.4-173.8 49.2-8.7 107.8-2.6 174.1 18.2 56.9 17.7 119.3 46.2 185.5 84.4 124.2 71.8 232.9 161.3 288.2 216.2 17.7 17.5 41.5 34.8 69.6 50.6 14.7-33.6 40.8-68.2 77.7-103 36.3-34.2 82.6-67.7 133.7-96.8 102.6-58.5 210.2-92 280.8-87.6 58.9 3.7 99.6 23 121 57.4 19.3 30.9 18.9 68.2 15.1 94.1-4 27.9-12.4 48.3-12.7 49.2l-0.2 0.4c-31.5 49.8-72.2 89.1-121.2 117-43.8 25-94.2 40.9-149.7 47.2-97.6 11-187.1-9.3-244.9-28.3-35.1-11.5-67.9-25.5-96.6-41.2q-0.7 1.7-1.3 3.3c-22.6 60.4-5.4 113 51.2 156.5 223.6 171.7 630.3 221.8 835.3 224.3zm-882.8-395.6c88.9 48.5 218.8 82.6 338.5 69 115.8-13.1 207.9-68.8 266.3-161.2 1.9-4.7 32.1-82.8-2-137.6-20.3-32.6-59.5-50.9-116.3-54.5-69.5-4.4-175.8 28.9-277.5 86.8-104.6 59.6-180.1 131.1-209 197.5z"/>
			</g>
			<g id="&lt;Clip Group&gt;" clip-path="url(#cp1)">
				<g id="&lt;Group&gt;">
					<path id="&lt;Compound Path&gt;" fill-rule="evenodd" class="s18" d="m498.6 685.6c0 0 8.8 60.2 5.3 103.1 0 0-193.2 26.8-213.4-26.2 0 0 1.8-78.3 5.4-93.6-7.9 3.8-17 9.1-25.9 16.5 0 0-20.6-83.7 12.5-121 33.1-37.3 251.5-92.1 254.5 83.5l-60.9 7.8 3.2 13.5c8.9 4 15.7 9.4 19.3 16.4zm-199-18.5c37.1-6 39.8-3 19.1-6.6 0 0-7.9 1.7-19.1 6.6z"/>
					<path id="&lt;Path&gt;" class="s19" d="m364.9 701.9l136.1 28.8c4.2 9.1 3.7 27.7 3.7 27.7-1.8 2-66.5 4-85.1-1.7-18.5-5.7-39.9 9.7-64.2 14.2-24.2 4.6-64.6-19.9-64.6-19.9l0.8-22.7z"/>
					<path id="&lt;Path&gt;" class="s20" d="m370.2 681c0 0 92.8-2.9 109.2 2.1l-3.6-30.1c53.4-6.9 67.1-4.9 61.2-5.1 0 0 4.4 74.2-16.1 90-20.6 15.8-134.5-7.6-159.4-25.7z"/>
					<path id="&lt;Path&gt;" class="s21" d="m479.4 683.1c-4.4-3.1-71.8-2.8-71.8-2.8l51.4-78c15.5 27.3 19 68.8 20.4 80.8z"/>
					<path id="&lt;Path&gt;" class="s22" d="m318.7 660.5c0 0 0.2-28.2 9.3-56.5l22 9.4z"/>
					<path id="&lt;Path&gt;" class="s23" d="m475.8 653l24-2.8-2.4 41.6c-6.3-5.9-18-8.7-18-8.7z"/>
					<path id="&lt;Path&gt;" class="s24" d="m418.6 506.7l-1.2 57c-15.6 9.2-47.5 0-47.5 0-1.9-24.3-13.9-60.3-13.9-60.3z"/>
					<g id="&lt;Group&gt;">
						<g id="&lt;Group&gt;">
							<path id="&lt;Path&gt;" class="s25" d="m376.6 423.7c11.6-8.1 29.8 0 29.8 0 9.9 5.2 18.4 37.7 18.4 37.7-0.2 20.3 3.9 64-24.1 63.4-28.1-0.5-42.9-20.3-42.9-20.3-12.8 3.6-24.2-17.6-18-24.4 6.2-6.8 14.6 5.5 14.6 5.5-18.4-70.6-2.9-44.5 22.2-61.9z"/>
							<path id="&lt;Path&gt;" class="s26" d="m356 498.8l-2.7-10.4c-17.8-12-11.9 9.7 2.7 10.4z"/>
							<path id="&lt;Path&gt;" class="s27" d="m424.8 427.9c4 12.5 0 38.3 0 38.3 0-5.4-10.9-31.1-10.9-31.1z"/>
						</g>
						<path id="&lt;Path&gt;" class="s28" d="m447.1 396.8c-1.4 29.2-22.6 35.1-32 38-9.4 3-20.4-13.5-28.9-5.5-8.5 7.9-33.5 6.2-37 10-3.5 3.8 5.2 46.3 5.2 46.3-8.3-10.8-16.2-2.3-16.2-2.3-15.1-18.7-13.4-24.9-16.3-41-3-16.6 10.3-23.9 9.9-24.5-1.5-0.4-10.8-2.7-17.7 2.3 0 0 6.6-8.8 17.6-2.4-6.2-8.3-12.1-7.1-12.1-7.1 7.3-3.4 10.9 2.9 12.1 6.2-1.1-27.9 59.9-26 73.2-16.8 13.2 9 42.2-3.2 42.2-3.2z"/>
						<path id="&lt;Path&gt;" class="s29" d="m410 523c2.4-20.8-9.4-36.7-9.4-36.7 15.7-0.8 6.2-20.4-2.4-33.4 0.3-8.1 19-9.6 19-9.6 15.7 27.7 5.8 78.5-7.2 79.7z"/>
						<g id="&lt;Group&gt;">
							<path id="&lt;Path&gt;" class="s17" d="m405 456.8c0 0 4.5-8.4 11.5-2.4 0 0-4.2 9.8-11.5 2.4z"/>
							<path id="&lt;Path&gt;" class="s30" d="m417.4 453.5c-6.7-4.5-10.1-2.4-13.3 3.3-0.4 0.7 0.7 1.3 1.1 0.5 1.1-1.9 2.6-4.5 5-4.9 0.4 0-2.5 1-1.5 4.2 1.9 5.9 9.7 0.3 4.9-3.7 1.2 0.4 2.3 1.1 3.2 1.8 0.6 0.3 1.5-0.6 0.6-1.2z"/>
							<path id="&lt;Path&gt;" class="s17" d="m410.7 455.4c0.5 1.6-1.8 2.4-2.4 0.8-0.5-1.6 1.9-2.3 2.4-0.8z"/>
						</g>
						<g id="&lt;Group&gt;">
							<path id="&lt;Path&gt;" class="s17" d="m369.9 466c0 0 4.7-8.9 12.1-2.6 0 0-4.5 10.4-12.1 2.6z"/>
							<path id="&lt;Path&gt;" class="s31" d="m382.9 462.5c-7.1-4.8-10.7-2.6-14 3.4-0.4 0.8 0.8 1.4 1.2 0.6 1.2-2.1 2.7-4.8 5.3-5.2 0.3 0-2.7 1.1-1.6 4.4 2 6.3 10.2 0.3 5.1-3.9 1.2 0.5 2.4 1.2 3.4 1.9 0.6 0.4 1.5-0.6 0.6-1.2z"/>
							<path id="&lt;Path&gt;" class="s17" d="m375.9 464.5c0.5 1.7-2 2.5-2.5 0.8-0.6-1.6 1.9-2.5 2.5-0.8z"/>
						</g>
						<path id="&lt;Path&gt;" class="s32" d="m380.6 452.2c0.7 1.5 0 3.7 0 3.7-8.4-2-16.6 6.5-16.6 6.5 3.1-9.9 15.8-11.6 16.6-10.2z"/>
						<path id="&lt;Path&gt;" class="s33" d="m415.5 441.6c0.7 1.5 0 3.7 0 3.7-8.4-2-16.7 6.5-16.7 6.5 3.2-9.9 15.9-11.6 16.7-10.2z"/>
						<path id="&lt;Path&gt;" class="s34" d="m399.8 499.9c0 0 9.1-0.3 16-11.4 0 0-3.2 17.3-16 11.4z"/>
					</g>
					<g id="&lt;Group&gt;">
						<path id="&lt;Path&gt;" class="s35" d="m359.6 595.8c0 0 2.4-38.3 4.5-41.9 2.1-3.6 9.3-13.3 9.5-19.8 0.2-6.4 0.2-15 1.9-18.4 1.7-3.4 7.6 2.5 7.8 6 0.2 3.5 2.1 10.5 1.6 12.1 0 0 26.2-23.8 31-24.2 16-3.3-12.3 22-15.8 27.8 0 0 2.8-0.2 4.9 1.9 2.1 2.1 0.6 3.6 1.2 5.1 0.5 1.5 5.1 0.2 6.1 2.3 0.9 2.1 0.3 5.5 2.4 7.4 2.1 1.9 7.1 4.6 4.4 9.3-2.7 4.8-28.2 31-29.9 39.2-1.7 8.2-2.6 121.2-63.7 144.6 0 0-39.8 1.3-53.5-64.1 0 0 23.3-21.5 46.7-22.6 0 0 39.1-56.2 40.9-64.7z"/>
						<path id="&lt;Path&gt;" class="s36" d="m277.8 678.3c0 0 21.6-17 40.9-17.8 0 0-12.3 16.5-19.2 40.5z"/>
						<path id="&lt;Path&gt;" class="s37" d="m373.9 535c-1.8-31.3 10.7-23.6 11-1.2 0 0-16 12.6-15.8 12.2 0.6-1 4.8-11 4.8-11z"/>
					</g>
				</g>
			</g>
			<g id="&lt;Clip Group&gt;" clip-path="url(#cp2)">
				<g id="&lt;Group&gt;">
					<path id="&lt;Path&gt;" class="s38" d="m1654.6 697.6l137.8 14.2 16.8 63.5c-99.6 45.5-175 5.8-175 5.8z"/>
					<path id="&lt;Path&gt;" class="s39" d="m1631.1 634.1l18.8-121.3c0 0 122.5-64.3 205 47 0.1 22.7-0.5 19.5-3.8 22.4-22.1 19-41.8 24.6-70.4 29.4-58.4 9.7-84.3 18.9-111.8 18.7-12.8 0-25.8-0.7-37.8 3.8z"/>
					<path id="&lt;Path&gt;" class="s40" d="m1490.7 665.3c-67.6 7.8-55 5.2-84.6 0.8-6.7-1 0.5-4.5-11.9-6.7-12.4-2.3-6.8-8.2-6.8-8.2 2-1.8 29.6-2.3 29.6-2.3-1.7 0-11.6 2-24.1-2.7-12.4-4.7 0-7.9 0-7.9 5 2.7 32.3 2 32.3 2 5.4-1.8 25.1-2 25.1-2 2-3.2-4.5-8-4.5-8-19.6-4.2-21.6-10.1-20.3-11.6 1.2-1.5 34.7 1.5 36.9 3 8.1 5.3 6.1 11.6 29.8 16.6 1.4 29 2.4 24.6-1.5 27z"/>
					<path id="&lt;Path&gt;" class="s17" d="m1496.3 678.6l-7.2-1.6c-2.8-3.3-2.8-42.4-2.8-42.4l5.7-1.3z"/>
					<path id="&lt;Path&gt;" class="s41" d="m1583.3 615.1c2.3-6.3 34.4-75.4 47.6-91.6 13.3-16.2 28.8-11.6 28.8-11.6-16.2 14.5-21.9 144.1-21.9 144.1-25.3 44.1-141.5 29.6-141.5 29.6-2.4-3.3-5-57.8-5-57.8 8.9-10.2 92-12.7 92-12.7z"/>
					<path id="&lt;Path&gt;" class="s42" d="m1689.2 498.2c0 0 53.9-14.8 82 3.2 0 0-26.8 23.6-37.7 35-8.7 9-23.6 133.7-29.4 185.3q-8.8-0.7-17.7-0.9c17.7-201.3 20.2-166.4 2.8-222.6z"/>
					<path id="&lt;Path&gt;" class="s43" d="m1702.1 536.8c6.3 30.7-13.6 138.6-13.6 138.6l-25.9-113.5 28.2-31.9c0 0-18.8-24.2-14.3-27.9 4.5-3.6 28.7-8.9 28.7-8.9 0 0-9.4 13-3.1 43.6z"/>
					<path id="&lt;Path&gt;" class="s44" d="m1707 675.4c0 0 19.1-140.7 26.1-144l35.4-34.9c0 0 26.2 6.9 28.6 12.8l-42.5 27.1 19.6 31.3z"/>
					<path id="&lt;Path&gt;" class="s45" d="m1821.5 633.3c-6.2 27.5-5.3 57.7-5.3 57.7 1.3 8.4 13.8 64.4 13.8 64.4 0 1.3-2.7 5.3-2.7 5.3-36.4 41.3-90.1 12.4-90.1 12.4-4-11.5-9.4-78.9-9.4-78.9z"/>
					<path id="&lt;Path&gt;" class="s17" d="m1727.8 692.3l2.9 33.8c-45.8 7.4-67.3-11.7-68.1-20.4l12.5-31.9z"/>
					<g id="&lt;Group&gt;">
						<path id="&lt;Path&gt;" class="s46" d="m1768.2 436l-11.8 68.7c-11.6 13.6-50.3-1.6-50.3-1.6 6.3-9.2 3.1-37.3 3.1-37.3 32.6 15.9 59-29.8 59-29.8z"/>
						<g id="&lt;Group&gt;">
							<g id="&lt;Group&gt;">
								<path id="&lt;Path&gt;" class="s47" d="m1702.9 442.8c-6.1 0.5-9-7.6-12.8-16.7-5.5-13.3 6.7-18.6 12.8-10 1 7.2 4.6 27 0 26.7z"/>
								<path id="&lt;Path&gt;" class="s48" d="m1700.4 431.2c-3.4-2.8-9.3-12.6-6.7-14.9 2.6-2.2 9.2 1.9 9.2 1.9 1.2 6.4 3.8 18.1-2.5 13z"/>
							</g>
							<path id="&lt;Path&gt;" class="s49" d="m1771.3 428.5c0 26.4-16 47.8-35.8 47.8-25 0-41.9-32.9-33.9-63.5 0 0-0.1 0.4 3.9-16.2 0 0 0.8 0.7 2.3 1.6 21.2-34.3 63.5-14.6 63.5 30.3z"/>
							<path id="&lt;Path&gt;" class="s50" d="m1705.5 395.5c0 0 16.4-10.5 49.4-1.9 0 0 13.9 5.2 8.7 26.4-5.2 21.1-62.6-5.8-62.6-5.8z"/>
							<path id="&lt;Path&gt;" class="s51" d="m1775.8 425.9c-4.2-6.1-11.9 1.5-11.9 1.5 5-15.6-2.6-27.4-2.6-27.4-10.7-13.6-36.3-7.4-42.4-7.3-6.1 0-13.4 3.9-13.4 3.9-16.6-7.1-11.8-21.3-3.6-26.6 19.4-15.1 64.7-7.1 78.9 19.7 3.6 10.6-5 36.2-5 36.2z"/>
							<path id="&lt;Path&gt;" class="s52" d="m1753.7 403.8c2.5 0.4 0.2 4 0.2 4-6.4 2.5-20.2-6.4-14.4-6.8 3.7 0.2 14.2 2.8 14.2 2.8z"/>
							<path id="&lt;Path&gt;" class="s53" d="m1699.6 433.5c3.7 8.3 12.6 4 23 0.9 0 0 3.3 5.2 10.5-0.3 0 0 11.2 5 20.4 13.9 0 0 7-2.9 7.1-12.2l4.4 1.1c0 0-1.9 14.6 1.6 15 0 0 0.7 19.4-18.6 33.7-19.2 14.3-57.2-0.3-48.4-52.1z"/>
							<path id="&lt;Path&gt;" class="s49" d="m1732.5 439.2c3.8-0.2 9.3 8 9.3 8-0.8 10.5-24.2 16.1-31.9-1.8 1.3-2 12.7-6.2 12.7-6.2 7.7 3.4 9.9 0 9.9 0z"/>
							<path id="&lt;Path&gt;" class="s47" d="m1766.6 425.3c6.1-8.6 18.3-3.4 12.8 9.9-3.8 9.2-6.7 17.3-12.8 16.7-4.7 0.3-1-19.4 0-26.6z"/>
							<path id="&lt;Path&gt;" class="s54" d="m1722.6 434.4c0 0-17.9 5.4-23-0.9 0 0-0.9-17.9 3.6-26.6 39-10.8 7.5 23 19.4 27.5z"/>
							<path id="&lt;Path&gt;" class="s55" d="m1766.6 427.4c0 0 6.5-4.2 9.1-1.9 2.6 2.3-3.2 12-6.6 14.8-6.3 5.1-3.7-6.5-2.5-12.9z"/>
							<path id="&lt;Path&gt;" class="s56" d="m1718.9 441.4c6.2 15.4 15.8 1.8 15.8 1.8-10.3 7.9-15.6-0.9-15.6-0.9"/>
							<g id="&lt;Group&gt;">
								<path id="&lt;Path&gt;" class="s17" d="m1706.1 413.1c0 0 6.5-6.2 11 1.2 0 0-6.7 7.5-11-1.2z"/>
								<path id="&lt;Path&gt;" class="s57" d="m1718.1 413.7c-4.7-6-8.4-5.1-12.8-0.9-0.6 0.5 0.3 1.4 0.8 0.8 1.6-1.4 3.6-3.3 5.9-2.9 0.4 0-2.5 0.2-2.5 3.3 0 5.8 8.5 3 5.4-1.9 0.9 0.7 1.7 1.6 2.3 2.5 0.4 0.5 1.5-0.1 0.9-0.9z"/>
								<path id="&lt;Path&gt;" class="s17" d="m1711.6 413.5c0 1.6-2.4 1.6-2.4 0 0-1.5 2.4-1.5 2.4 0z"/>
							</g>
							<g id="&lt;Group&gt;">
								<path id="&lt;Path&gt;" class="s17" d="m1739.6 416c0 0 6.5-6.2 11 1.2 0 0-6.7 7.5-11-1.2z"/>
								<path id="&lt;Path&gt;" class="s58" d="m1751.6 416.6c-4.7-6-8.4-5-12.8-0.9-0.6 0.5 0.3 1.4 0.8 0.8 1.6-1.4 3.6-3.3 5.9-2.9 0.3 0-2.5 0.2-2.5 3.3 0 5.8 8.5 3 5.4-1.9 0.9 0.7 1.7 1.6 2.3 2.5 0.4 0.5 1.5-0.1 0.9-0.9z"/>
								<path id="&lt;Path&gt;" class="s17" d="m1745.1 416.4c0 1.6-2.4 1.6-2.4 0 0-1.5 2.4-1.5 2.4 0z"/>
							</g>
							<path id="&lt;Path&gt;" class="s59" d="m1718 399.3c5.8 0.5-8.3 9-14.6 6.4 0 0-2.2-3.7 0.3-4 0 0 10.5-2.3 14.3-2.4z"/>
							<path id="&lt;Path&gt;" class="s60" d="m1680.9 366.4c13.8 11.9 24-10.8 53.8-7.9 21.5-4.1 35.4 17.8 35.4 17.8 4.3-4 20.6-2.7 8.9 38.4-4.1 6.2-14.2-2.2-18.5-27-44.1 4.8-66.1-3.7-66.1-3.7-10.9-2.8-13.5-17.6-13.5-17.6z"/>
						</g>
					</g>
					<path id="&lt;Path&gt;" class="s61" d="m1675.1 673.8c0 0-32.9 97.1-40.9 107.3l13.7-129.1z"/>
					<g id="&lt;Group&gt;">
						<path id="&lt;Path&gt;" class="s62" d="m1635.1 562l-25.1 17.5c0 0-23.3-9-32.3-20.2-22.2 0-34.4-10-31.4-11.7 2.5-1.4 17.1 3 25.1 1.8-31-13.8-32.8-23.2-25.7-21.5 5.6 1.4 18.4 9.3 22.4 11.2 0 0-20.9-14.3-23-22.1-1.9-16.9 32.7 19 41.4 11.1 0 0-3.3-5.7-7.6-9.9-39.3-37.9 4.2-12.9 15.8-1.9 21.4 11.2-8.8-5.3 40.4 45.7z"/>
						<path id="&lt;Path&gt;" class="s17" d="m1643 568.4l-37.7 29.9c-1.2-2.7-4.7-12.6-4.7-12.6 7.7-7.4 34.5-26.2 34.5-26.2z"/>
						<path id="&lt;Path&gt;" class="s63" d="m1722.6 630.1c15.4-21.4 91.2-88.1 91.2-88.1 33-12.6 44.2 19.3 44.2 19.3 0 99.7-141.4 139-141.4 139-35-11.9-125.6-98.6-125.6-98.6 3.9-5.6 55.1-40.4 55.1-40.4z"/>
					</g>
					<path id="&lt;Path&gt;" class="s64" d="m1778.9 575.1l25.6 23.2c0 0-62.1 72.1-61.6 59.3 0.6-12.7-20.3-27.5-20.3-27.5 2.2-6.3 56.3-55 56.3-55z"/>
					<path id="&lt;Path&gt;" class="s65" d="m1737.3 659.2c-1.2 13.4-11.5 2-11.5 2 7.7-13.9-4-31.9-4-31.9 6 1.6 16.8 16.5 15.5 29.9z"/>
					<path id="&lt;Path&gt;" class="s66" d="m1721.8 629.3c0 0-33.7 5.7-29 15.3 4.6 9.5 26.5-7.2 29-15.3z"/>
					<path id="&lt;Path&gt;" class="s67" d="m1583.4 615.2c-1.9 0.1 10.7 42.4 23 35.1 11-6.4-20.8-33.3-23-35.1z"/>
					<path id="&lt;Path&gt;" class="s68" d="m1581.4 615.2c0 0-9.1 38.9-16.5 39.3-7.3 0.5 4-35.8 16.5-39.3z"/>
					<path id="&lt;Path&gt;" class="s69" d="m1387.4 651.2c1-1.7 72.8-3.8 72.8-3.8l-13.3 8.6c-26.6 1.8-42.8 0.9-45.9 5.6-17.9-3.3-14.6-8.8-13.6-10.4z"/>
					<path id="&lt;Path&gt;" class="s70" d="m1726.8 551.9l-6.3 34-18.9-1.6 1.7-33.8z"/>
					<path id="&lt;Path&gt;" class="s71" d="m1750.6 702.3c0 0 39.7-0.6 53.9-6.8 0 0 23.1 42.9-13.6 49.2-36.7 6.2-40.6-20.8-40.3-42.4z"/>
				</g>
			</g>
			<g id="&lt;Clip Group&gt;" clip-path="url(#cp3)">
				<g id="&lt;Group&gt;">
					<g id="&lt;Group&gt;">
						<path id="&lt;Path&gt;" class="s72" d="m2027.6 1239.2c0 0 62-0.4 109.6-22.3 0 0 101.4 91.1 51 255.8 0 0-149.7 82.7-197.3 18.1 0 0-34.2-202.4 36.7-251.6z"/>
						<path id="&lt;Path&gt;" class="s73" d="m2045.2 1286c1.5 0.4 17.1 30.2 23.6 38.6 6.6 8.4-10.1 147.3 5.1 189 0 0-37.5 6.9-55.3-2.8 0 0 3.7-161.5 2.7-166.9-1-5.4 7.4-12.5 17.8-10.3 10.5 2.1-20.8-53.8 6.1-47.6z"/>
					</g>
					<path id="&lt;Path&gt;" class="s74" d="m1882.3 1162.8c0 0 49.4 1.5 72.6 6.8 0 0 8.6-109.8 41.1-122.5 0 0 15.9-13.4 39.7-11.7-34.4 65.6-37.1 121.4-28.5 142.4 7.3 17.7 17.3 45.9 17.3 49 0 3.1-53 42.7-147.1 0z"/>
					<path id="&lt;Path&gt;" class="s75" d="m1889.8 1168.2c0 0 12.9 28.8 0 44.7l-12.4 13.9c0 0-18.9-11.4 0-58.6 0 0 8.4-12.2 12.4 0z"/>
					<path id="&lt;Path&gt;" class="s76" d="m1889.8 1212.5c-11-4.7-33.4-13.8-48.7-16-20.9-3-29.8-25.8-36.8-30.8-7-5-15.4-4.5-23-8-7.7-3.4 0-6.9 0-6.9l23 2c-11-9-22.9-14.9-23-19.4-0.2-4.5 8.1 2 4.1-2-4-4-6-11.4-2-11.4 4 0 20.6 7.9 20.6 7.9l25.2 19.9c0 0-0.5-16.4-11-24.3-10.4-8-15.4-18.9-13.9-20.9 1.4-2 30.8 20.9 30.8 20.9 0 0 12.9 37.2 17.4 41.7 4.7 4.7 39.6 9.2 39.7 9.6-1.1 2.3-1.2 1.6 0.2 2.7 1.4 14 4.4 19.5-2.6 35z"/>
					<path id="&lt;Path&gt;" class="s77" d="m2163.6 1035.2c27.2 22 21.9 93.3 16.6 100.6-5.3 7.3-34.5 123.3-34.5 123.3-53.6 11.3-126.6-12.6-126.6-12.6 6-22.6-14.4-77-14.4-77-12.2-63.5 31-134.1 31-134.1 4.2-7.4 100.8-22.2 127.9-0.2z"/>
					<g id="&lt;Group&gt;">
						<path id="&lt;Path&gt;" class="s78" d="m2118.5 1157.1c14.8 7 2.3-12.2 66.3 121.1l-84.9 71c-76.2-118.9-65.2-98.9-69.4-115.4z"/>
						<path id="&lt;Path&gt;" class="s79" d="m2118.5 1157.1l10.6 5-95.6 83.4-3-11.7z"/>
					</g>
					<g id="&lt;Group&gt;">
						<g id="&lt;Group&gt;">
							<path id="&lt;Path&gt;" class="s80" d="m2137.4 945.3c0 31.2-18.3 56.5-40.8 56.5-22.5 0-40.7-25.3-40.7-56.5 0-31.2 18.2-56.5 40.7-56.5 22.5 0 40.8 25.3 40.8 56.5z"/>
							<g id="&lt;Group&gt;">
								<path id="&lt;Path&gt;" class="s81" d="m2159.5 1008c-28.6 13.7-40.5-15.1-40.5-15.1 0 0 19.5-16.1 5.7-88.5 0 0-3.7 9.4-16.4 17.2 1.4-17.8-1.1 5.1-15.6 12.9 0 0 3.5-7.2 2.7-12.9 0 0-25.5 16.1-39.5 20.7 0 0-2.1 43.9 30 57.6 0 0-24.4 24.8-43.8 5.1-19.3-19.6-0.8-57.3 0-62.4 0.8-5.1-11.8-12.9-4-26.6 7.8-13.8 34.7-66.8 71-40.1 3.6 6.5 3.2 5.9 3.4 5.9 1.3-3.7 6.5-15.5 18.6-14.8 0 0-6.6-0.3-18.1 14.7 4-0.6 26.6-3.6 30 8.4 3.8 13.2 0.6 33.9 3.8 38.8 3.2 4.8 41.2 65.4 12.7 79.1z"/>
								<path id="&lt;Path&gt;" class="s82" d="m2109.1 859.7c0 0 7.8 7 3.3 22.1 0 0 7.8-16.2-3.3-22.1z"/>
							</g>
							<path id="&lt;Path&gt;" class="s83" d="m2129 934.7c9.7-15.5 23.6-6.3 0 23.2z"/>
							<path id="&lt;Path&gt;" class="s84" d="m2129 938.3c7.2-12.8 12.3 4 0 13.6z"/>
							<path id="&lt;Path&gt;" class="s85" d="m2056 946.5c-12.2-13.6-24.4-2.1 4 22.9z"/>
							<path id="&lt;Path&gt;" class="s86" d="m2056.6 950c-9.4-11.3-11.4 6.1 2.3 13.4z"/>
							<path id="&lt;Path&gt;" class="s87" d="m2112.4 881.8c0 0 4.3 11.3-12.1 18.5-16.5 7.3-21 3.8-26.7 11.9-5.6 8.1-27.1 8.3-31.1 27.6 0 0 7.4-81.6 70.4-59.9z"/>
							<path id="&lt;Path&gt;" class="s88" d="m2062 941.2c0 0 9.5-7.4 16.4-2.1 0 0-9.4 3.2-16.4 2.1z"/>
							<path id="&lt;Path&gt;" class="s89" d="m2104.6 937.1c0 0 9.6-7.5 16.5-2.1 0 0-9.4 3.2-16.5 2.1z"/>
							<g id="&lt;Group&gt;">
								<path id="&lt;Path&gt;" class="s17" d="m2064.5 950.4c0 0 6.4-13.2 16.1-2.2 0 0-7.2 12.1-16.1 2.2z"/>
								<path id="&lt;Path&gt;" class="s90" d="m2080.8 948.3c-1.8-2.2-4.1-3.7-6.8-3.8 1.1 0.7 1.9 2.1 2.2 3.8 0.7 3.9-2.6 5.5 1.5 3 0.7-0.4 1.3 0.7 0.6 1.1-5.8 3.5-7.4 2.1-10.6 1.5-0.8-0.1-0.5-1.3 0.3-1.2 5.7 1 1.6 1.5 0.8-3.1-0.3-1.6 0-3 0.6-4.1-2.1 1.1-3.8 2.9-4.7 5.1-0.3 0.6-1.7 0.7-1-0.7-6 0.3-4.7-1.6-4-1.5 3.1 0.3 4.3 0.7 5-0.4-5.5-0.2-4-3.4-2.9-2.3 1.3 1.4 3.4 1 3.9 1.1 1.4-1.6-0.1-0.2-2.5-2.1-0.6-0.5 0.3-1.4 0.9-0.9 0.9 0.8 2.4 1 3.6 1.2 4.1-2.8 10-2.5 14 2.4 0.5 0.6-0.4 1.5-0.9 0.9z"/>
								<path id="&lt;Path&gt;" class="s17" d="m2070.6 949.8c0 2.3-3.7 2.3-3.7 0 0-2.4 3.7-2.4 3.7 0z"/>
							</g>
							<g id="&lt;Group&gt;">
								<path id="&lt;Path&gt;" class="s17" d="m2121.4 942.4c0 0-10.8-9.9-15.9 3.9 0 0 11.2 8.6 15.9-3.9z"/>
								<path id="&lt;Path&gt;" class="s90" d="m2104.3 945.9c1.9-6 7.2-8.5 12.2-7.3 0.9-0.7 2.2-1.4 2.8-2.5 0.4-0.7 1.6-0.2 1.2 0.5-1.5 2.7-3.5 1.9-1.6 2.9 0.5-0.3 2.5-0.7 3.3-2.5 0.6-1.3 3.1 1.1-1.9 3.3 1.1 0.7 2 0 4.8-1.5 0.6-0.4 2.5 1-3.1 2.9 1 1-0.3 1.5-0.8 1-1.6-1.8-3.9-2.8-6.2-3.1 0.9 0.8 1.7 2.1 2 3.6 1 4.7-3 5.6 1.9 2.7 0.7-0.5 1.4 0.5 0.7 1-2.8 1.7-3.7 3.6-10.4 2.4-0.8-0.1-0.6-1.3 0.2-1.2 4.7 0.8 1.1 0.6 0.3-3.4-0.3-1.7-0.1-3.2 0.6-4.3-2.4 1.1-4.1 3.3-4.9 6-0.2 0.7-1.4 0.2-1.1-0.5z"/>
								<path id="&lt;Path&gt;" class="s17" d="m2115.4 944.1c0.8 2.1 4.3 0.7 3.5-1.4-0.8-2.2-4.4-0.8-3.5 1.4z"/>
							</g>
							<path id="&lt;Path&gt;" class="s91" d="m2091.2 945.2c-6.5 24.3-0.5 30 5.4 26.3 3.7-2.3-5.4-26.3-5.4-26.3z"/>
							<path id="&lt;Path&gt;" class="s92" d="m2085.1 977.8c0 0 12.5 10.2 23.1-3.2 0 0-9.5 21.1-23.1 3.2z"/>
							<path id="&lt;Path&gt;" class="s93" d="m2081.7 962.2c1 5.3-16 8.6-17.1 3.2-1-5.2 16-8.7 17.1-3.2z"/>
							<path id="&lt;Path&gt;" class="s93" d="m2122 956.3c1 5.3-16 8.6-17.1 3.3-1-5.4 16-8.7 17.1-3.3z"/>
						</g>
						<path id="&lt;Path&gt;" class="s94" d="m2137.4 1026.9l-43 81.4-40.3-79.9c0 0 7.7-2 20.8-3.4l0.5-31.1c24.6 20.7 47.6-5.4 47.6-5.4l-3.8 36.1c5.8 0.5 11.9 1.3 18.2 2.3z"/>
					</g>
					<path id="&lt;Path&gt;" class="s95" d="m2047 1266.6c-0.4 0 4.7-17.5 12.4-16.8 5.1 0.5 46.4 4.9 51.9-3.3 5.5-8.2 42.4-33 42.4-33l22.5 71.9c-14.9 13.2-85.5 49.5-85.5 49.5z"/>
					<path id="&lt;Path&gt;" class="s75" d="m2128.5 1253.1c0 0 44.4-1.3 47.4 33.8 0 0-44.7 16.6-47.4-33.8z"/>
					<path id="&lt;Path&gt;" class="s96" d="m2083.1 1317.3c-1.5-2.3-5.8-4.7-11.5-7.5-5.7-2.7-4.8-6.1-6.6-10.1-1.9-4-9.4-3.1-12.7-8.2-3.3-5.1 10.5-13 10.5-13 41.5 1.4 12.8 3.2-1.6-9.4-9.4-8.3-2.1-15.6 4.5-11.2 6 4 51 5.5 53.4 4.2 3-1.7 11.8-6.8 13.4-9 0 0 33.2 2.6 38.3 18.2-26.5 31.9-85.4 49.6-87.7 46z"/>
					<path id="&lt;Path&gt;" class="s97" d="m2306.1 1186.2c-33.8 82.8-130.2 100.7-130.2 100.7-1.7-23.8-47.4-33.8-47.4-33.8 21.4-26.7 46-42.3 94.8-75.3l-9.3-15c-7.3-8.9-33.8-27-33.8-27 13.9-48.4-16.6-100.6-16.6-100.6 92.8-21.1 142.5 151 142.5 151z"/>
				</g>
			</g>
			<path id="&lt;Compound Path&gt;" fill-rule="evenodd" class="s98" d="m2027.3 650.9c-17.5-3.6-27-20.9-16.4-35.6 19.2-26.7 58.3-0.9 41.5 22.2-10.6 14.7-26.7 6-21.9-2.2-0.4-0.2-5.3 2.8-10.5-0.9-10.2-7.4 6.7-26.2 21.5-15.4 2.5 1.7 4.9 4.4 5.7 6.2-9.7 9.7-14 12.9-11.3 15 2.4 1.8 7.6 0.9 12.3-5.5 13.4-18.6-17-38.6-32.7-16.8-10.7 14.7 2.2 27.5 13.1 29.1zm11.8-26.8c-4-4.7-10.6-2.9-14 1.7-3.9 5.5 3.4 9.1 9.3 3.1z"/>
			<path id="&lt;Compound Path&gt;" fill-rule="evenodd" class="s98" d="m645.6 319.1c-12.7 12.6-32.4 11-38.8-6-11.6-30.7 31.3-49.1 41.4-22.4 6.4 17-9.7 25.6-13.9 17.1-0.4 0.2-0.6 5.9-6.6 8.2-11.8 4.4-18.1-20-0.9-26.4 2.8-1.1 6.3-1.6 8.3-1.3 2.7 13.4 3 18.8 6.3 17.7 2.8-1 4.9-5.9 2.1-13.3-8.1-21.5-41.5-7.1-32 18 6.4 17 24.1 13.3 31.5 5.1zm-15.8-24.6c-6.2 0.8-8.3 7.2-6.3 12.6 2.4 6.3 9.4 2.1 7.7-6.1z"/>
			<g id="&lt;Group&gt;">
				<path id="&lt;Compound Path&gt;" fill-rule="evenodd" class="s17" d="m942.2 1026.3h-384.7c-13.2 0-23.9-10.7-23.9-23.9v-229.2c0-13.2 10.7-23.9 23.9-23.9h384.7c13.2 0 23.9 10.7 23.9 23.9v229.2c0 13.2-10.7 23.9-23.9 23.9zm-384.7-271.4c-10.1 0-18.3 8.2-18.3 18.3v229.2c0 10.1 8.2 18.3 18.3 18.3h384.7c10.1 0 18.3-8.2 18.3-18.3v-229.2c0-10.1-8.2-18.3-18.3-18.3z"/>
				<g id="&lt;Group&gt;">
					<path id="&lt;Path&gt;" class="s98" d="m1111.7 852.4l-203.4 143.2-87.7-124.6 203.3-143.2z"/>
					<path id="&lt;Path&gt;" class="s99" d="m908.3 995.6l42-156.4 161.4 13.2c-5.8 4-197.6 139.2-203.4 143.2z"/>
					<path id="&lt;Path&gt;" class="s99" d="m1023.9 727.8l-42 156.4-161.3-13.2c5.7-4 197.6-139.2 203.3-143.2z"/>
				</g>
				<g id="&lt;Group&gt;">
					<path id="&lt;Path&gt;" class="s100" d="m694.8 741.9c0 39.8-32.2 72-71.9 72-39.8 0-72-32.2-72-72 0-39.7 32.2-71.9 72-71.9 39.7 0 71.9 32.2 71.9 71.9z"/>
					<g id="&lt;Group&gt;">
						<path id="&lt;Path&gt;" class="s17" d="m659.2 753.2c2.3 5 0 8.2-0.1 8.2-1.8 1.2-1.5 3.1-1.5 4.8-0.1 10-12.6 7.5-39.1 5.9-7.1-0.4-10.1-4.9-10.3-9.5-0.9-23.8-1.5-27.8 4.9-32.4 2-1.4 3.8-3.3 3.7-3.3 9.8-21 10.2-28.7 10.4-28.7 1.6-4.4 8-3.7 9.6 0.2 6 14.6 1.9 16.1-3.2 28.9 9.4-1.1 27.3-2.5 27.3 6.8 0.1 2.4-0.3 4.7-1.4 6.9-1.1 2 4 5.1-0.2 10.7-0.2 0.4-0.3 1.1-0.1 1.5z"/>
						<path id="&lt;Path&gt;" class="s17" d="m606.4 763.4c0 4.8-3.9 8.7-8.7 8.7-15.8 0-12.9-5.8-12.9-31.3 0-4.8 3.9-8.7 8.7-8.7 15.7 0 12.9 5.4 12.9 31.3z"/>
					</g>
				</g>
				<path id="&lt;Path&gt;" class="s17" d="m657.1 951.7c0 18.9-15.3 34.2-34.2 34.2-18.9 0-34.3-15.3-34.3-34.2 0-18.9 15.4-34.3 34.3-34.3 18.9 0 34.2 15.4 34.2 34.3z"/>
			</g>
			<path id="&lt;Path&gt;" class="s17" d="m1132.1 1041.4c0 30.6-24.8 55.4-55.4 55.4-30.7 0-55.5-24.8-55.5-55.4 0-30.7 24.8-55.5 55.5-55.5 30.6 0 55.4 24.8 55.4 55.5z"/>
			<path id="&lt;Path&gt;" class="s14" d="m1057.8 1057.4c11.1 5.8 26.1 5.6 26.1-4.5 0-9.6-12.1-9-18.7-9v-10.5h5.7c15-0.3 14.5-13.8 2-13.8-16.7 0-11 11.6-16.2-6.9 12.4-7.9 40.3-6.9 40.3 10.9 0 11.9-11.5 14.2-11.5 14.8 20 3.6 19.7 34.5-12 34.5-8.2 0-15-2.1-18.7-4.4z"/>
			<path id="&lt;Path&gt;" class="s17" d="m837.9 544c0 15.1-12.3 27.5-27.5 27.5h-249.3c-15.2 0-27.5-12.4-27.5-27.5v-33c0-15.2 12.3-27.5 27.5-27.5h249.3c15.2 0 27.5 12.3 27.5 27.5z"/>
			<path id="&lt;Path&gt;" class="s14" d="m622.9 552.3c0 6.4-7.2 5.8-5.7 5.8-7.6 0-5.8-8.4-5.8-24.9 0-3.2 2.6-5.7 5.8-5.7 7.6 0 5.7 8.4 5.7 24.8z"/>
			<path id="&lt;Path&gt;" class="s14" d="m716.8 552.3c0 6.4-7.2 5.8-5.7 5.8-7.6 0-5.7-8.4-5.7-24.9 0-3.2 2.5-5.7 5.7-5.7 7.6 0 5.7 8.4 5.7 24.8z"/>
			<path id="&lt;Path&gt;" class="s14" d="m732.2 552.3c0 6.4-7.3 5.8-5.7 5.8-7.6 0-5.8-8.4-5.8-24.9 0-3.2 2.6-5.7 5.8-5.7 7.6 0 5.7 8.3 5.7 24.8z"/>
			<path id="&lt;Path&gt;" class="s14" d="m638.7 547.9c0 11.5-7.5 10.2-5.7 10.2-7.7 0-5.8-15.1-5.8-44.1 0-4.1 1.8-10.2 5.8-10.2 7.6 0 5.7 15 5.7 44.1z"/>
			<path id="&lt;Path&gt;" class="s14" d="m655.4 547.9c0 11.5-7.5 10.2-5.7 10.2-7.6 0-5.7-15.1-5.7-44.1 0-4.1 1.8-10.2 5.7-10.2 7.6 0 5.7 15 5.7 44.1z"/>
			<path id="&lt;Path&gt;" class="s14" d="m672.4 550.2c0 8.5-6.8 7.9-5.7 7.9-8.1 0-5.7-15.4-5.7-34.3 0-3.9 2.2-7.9 5.7-7.9 7.5 0 5.7 11.2 5.7 34.3z"/>
			<path id="&lt;Path&gt;" class="s14" d="m688.2 550.1c0 8.5-6.8 7.9-5.8 7.9-7.5 0-5.7-11.2-5.7-34.3 0-3.8 2.2-7.9 5.7-7.9 8.2 0 5.8 15.4 5.8 34.3z"/>
			<path id="&lt;Path&gt;" class="s14" d="m702.8 547.4c0 11.6-6.9 10.7-5.7 10.7-7.6 0-5.7-15.6-5.7-46.2 0-4.1 1.7-10.7 5.7-10.7 7.6 0 5.7 15.6 5.7 46.2z"/>
			<path id="&lt;Path&gt;" class="s17" d="m1477.5 537.4c0 15.2-12.3 27.5-27.5 27.5h-320.6c-15.2 0-27.5-12.3-27.5-27.5v-84.3c0-15.2 12.3-27.5 27.5-27.5h320.6c15.2 0 27.5 12.3 27.5 27.5z"/>
			<g id="&lt;Group&gt;">
				<g id="&lt;Group&gt;">
					<path id="&lt;Path&gt;" class="s17" d="m1031.6 359.5l52.3-26.4 32.1 22.4z"/>
					<path id="&lt;Path&gt;" class="s12" d="m1069.6 359.6l33.6-21.3 24.4 24.4z"/>
					<path id="&lt;Path&gt;" class="s101" d="m1140 434.8c0 6.6-5.4 12-12 12h-102.7c-6.6 0-12-5.4-12-12v-67.3c0-6.7 5.4-12 12-12h102.7c6.6 0 12 5.3 12 12z"/>
				</g>
				<path id="&lt;Path&gt;" class="s17" d="m1045.3 400.2c0 12.2-18.4 12.2-18.4 0 0-12.2 18.4-12.2 18.4 0z"/>
				<path id="&lt;Path&gt;" class="s17" d="m1073.8 401.1c0 12.2-18.5 12.2-18.5 0 0-12.2 18.5-12.2 18.5 0z"/>
				<path id="&lt;Path&gt;" class="s17" d="m1101.9 401.1c0 12.2-18.5 12.2-18.5 0 0-12.2 18.5-12.2 18.5 0z"/>
				<path id="&lt;Path&gt;" class="s17" d="m1127.6 401.1c0 12.2-18.5 12.2-18.5 0 0-12.2 18.5-12.2 18.5 0z"/>
			</g>
			<g id="&lt;Group&gt;">
				<g id="&lt;Group&gt;">
					<path id="&lt;Path&gt;" class="s17" d="m1527.8 849.3l52.4-26.4 32 22.4z"/>
					<path id="&lt;Path&gt;" class="s12" d="m1565.9 849.4l33.5-21.3 24.4 24.4z"/>
					<path id="&lt;Path&gt;" class="s101" d="m1636.3 924.6c0 6.6-5.4 12-12 12h-102.8c-6.6 0-12-5.4-12-12v-67.3c0-6.6 5.4-12 12-12h102.8c6.6 0 12 5.4 12 12z"/>
				</g>
				<path id="&lt;Path&gt;" class="s17" d="m1541.5 890c0 12.2-18.4 12.2-18.4 0 0-12.2 18.4-12.2 18.4 0z"/>
				<path id="&lt;Path&gt;" class="s17" d="m1570 890.9c0 12.2-18.4 12.3-18.4 0 0-12.1 18.4-12.2 18.4 0z"/>
				<path id="&lt;Path&gt;" class="s17" d="m1598.1 890.9c0 12.2-18.4 12.3-18.4 0 0-12.1 18.4-12.2 18.4 0z"/>
				<path id="&lt;Path&gt;" class="s17" d="m1623.8 890.9c0 12.2-18.4 12.3-18.4 0 0-12.1 18.4-12.2 18.4 0z"/>
			</g>
			<g id="&lt;Group&gt;">
				<path id="&lt;Path&gt;" class="s98" d="m1517.4 366l-153.6 108.1-66.3-94.1 153.6-108.2z"/>
				<path id="&lt;Path&gt;" class="s99" d="m1363.8 474.1l31.7-118.1 121.9 10c-4.4 3-149.3 105.1-153.6 108.1z"/>
				<path id="&lt;Path&gt;" class="s99" d="m1451.1 271.8l-31.7 118.2-121.9-10c4.3-3 149.3-105.1 153.6-108.2z"/>
			</g>
			<path id="&lt;Path&gt;" class="s101" d="m1451.1 493.4c0 6.5 17.2 4.4-306.6 4.4-3.9 0-4.8-4.4-4.5-4.4 0-6.6-17.2-4.5 306.6-4.5 4.5 0 4.4 4.5 4.5 4.5z"/>
			<path id="&lt;Path&gt;" class="s12" d="m1236.5 501.4c0 9.2-10.4 8.3-8.3 8.3-10.6 0-8.2-12.2-8.2-27.3 0-4.6 3.7-8.3 8.2-8.3 10.7 0 8.3 12.2 8.3 27.3z"/>
			<path id="&lt;Path&gt;" class="s17" d="m1928.4 1008c0 15.2-12.3 27.5-27.5 27.5h-314.8c-15.2 0-27.5-12.3-27.5-27.5v-64.6c0-15.1 12.3-27.5 27.5-27.5h314.8c15.2 0 27.5 12.4 27.5 27.5z"/>
			<path id="&lt;Compound Path&gt;" class="s98" d="m1855.9 901.6h-43.8c-1.5-66.2 39.7-74.8 60.8-100.8 8.1-10.1 8.8-30.9-6.3-42.7-19-14.8-66.3-18.5-77.1 33.1l-44.8-5.6c3.8-68.5 91.5-94.9 152.4-55.1 31.6 20.7 35.7 59.4 19.1 84.4-16.3 24.6-49.1 43-56.7 59.4q-3.9 8.6-3.6 27.3zm-44.1 65.1v-48.3h48.3v48.3z"/>
			<path id="&lt;Compound Path&gt;" fill-rule="evenodd" class="s14" d="m1749.1 968.7c-4.4 0.2-4.6 0.6-4.9 1.7-1.6 5.7-3 7.4-1.9 8.7 4.1 4.9 5.4 1.6-2.3 12.2-1.5 2-4.9-3-7.1-1.5-6.5 4.3-6.9 4.9-6.8 5.9 0.6 6.7 3.6 4.3-10 9-2.8-5.7-2.5-6-4.1-5.9-8.6 0.4-7.8-1.7-10.6 4.5-0.3 0.8-0.8 1.1-1.7 0.8-12.1-4.1-9.4-2-8.8-8.6 0.1-1.1-0.7-1.8-6.8-6-1-0.7-3 0.4-5 1.7-2.5 1.6-6-6.4-7.3-7.5 0.2-4.4 4.2-4.2 3.5-6.6-2.2-7.4-2.5-7.9-3.5-8.1-3.8-0.9-5.4-0.2-5.4-2 0.1-9.6-0.3-10.2 1.1-10.5 4.1-0.9 5.2-0.1 5.7-1.9 2.4-8.7 4-6.9-1.2-11.4-0.6-0.5-0.8-1-0.3-1.8 5.9-7.9 6-9 7.5-7.8 5.1 4.2 7 0.1 9.8-1.7 6.9-4.4-6.9-6.5 11.3-11 2-0.5 2.4 5.3 4.5 5.4 8.2 0.2 8.5 0.1 9-0.7 2.2-3.9 1.9-5.3 3.5-4.7 9.7 3.2 10.1 2.7 9.7 4.5-0.4 1.6-1.2 3.5-0.6 4.8 0.6 1.6 4.3 2.7 5.7 4.4 1.2 1.5 2.3 1.3 3.8 0.4 4.4-2.5 3.7-2.3 9.7 6.5 1.4 2-3 2.9-3.6 5.4-0.5 1.7 1.9 4.5 2.1 7.2 0.3 4.7 7.1-1.1 7.1 7.3 0 6.5 0 7.2-2.1 7.3zm-60.1-6.2c-0.2 25.8 39.2 26.4 39.4 0.1 0.2-25.9-39.3-26.4-39.4-0.1z"/>
		</g>
	</g>
</svg>